{
.appVersion = "1286";
copyright = OFL;
customParameters = (
{
name = glyphOrder;
value = (
space,
.notdef,
.null,
A,
B,
C,
D,
E,
F,
G,
H,
I,
J,
K,
L,
M,
N,
O,
P,
Q,
R,
S,
T,
U,
V,
W,
X,
Y,
Z,
a,
b,
c,
d,
e,
f,
g,
h,
i,
j,
k,
l,
m,
n,
o,
p,
q,
r,
s,
t,
u,
v,
w,
x,
y,
z,
zero,
one,
two,
three,
four,
five,
six,
seven,
eight,
nine,
numbersign,
percent,
degree,
dollar,
euro,
sterling,
cent,
exclam,
question,
exclamdown,
questiondown,
period,
comma,
hyphen,
endash,
emdash,
colon,
semicolon,
ellipsis,
guillemetleft,
guillemetright,
guilsinglleft,
guilsinglright,
quoteleft,
quoteright,
quotedblleft,
quotedblright,
quotesinglbase,
quotedblbase,
quotesingle,
quotedbl,
parenleft,
parenright,
bracketleft,
bracketright,
braceleft,
braceright,
slash,
backslash,
asterisk,
underscore,
bar,
plus,
minus,
equal,
multiply,
less,
greater,
ampersand,
at,
copyright,
bullet,
periodcentered,
asciicircum,
bullet,
Agrave,
Aacute,
Acircumflex,
Atilde,
Adieresis,
Aring,
AE,
Ccedilla,
Ccaron,
Dcaron,
Egrave,
Eacute,
Ecircumflex,
Edieresis,
Ecaron,
Igrave,
Iacute,
Icircumflex,
Idieresis,
Lcaron,
Ntilde,
Ncaron,
Ograve,
Oacute,
Ocircumflex,
Otilde,
Odieresis,
Oslash,
OE,
Rcaron,
Scaron,
Germandbls,
Tcaron,
Ugrave,
Uacute,
Ucircumflex,
Udieresis,
Yacute,
Ydieresis,
Zcaron,
agrave,
aacute,
acircumflex,
atilde,
adieresis,
aring,
ae,
ccedilla,
ccaron,
dcaron,
egrave,
eacute,
ecircumflex,
edieresis,
ecaron,
igrave,
iacute,
icircumflex,
idieresis,
idotless,
lcaron,
ntilde,
ncaron,
ograve,
oacute,
ocircumflex,
otilde,
odieresis,
oslash,
oe,
rcaron,
scaron,
germandbls,
tcaron,
ugrave,
uacute,
ucircumflex,
udieresis,
yacute,
ydieresis,
zcaron
);
},
{
name = note;
value = "";
},
{
name = Axes;
value = (
{
Name = Weight;
Tag = wght;
},
{
Name = Width;
Tag = wdth;
},
{
Name = Slant;
Tag = slnt;
},
{
Name = EcoFriendlyness;
Tag = ECOF;
}
);
}
);
date = "2018-12-01 22:09:35 +0000";
designer = "Luigi Gorlero";
designerURL = "http://luigigorlero.com/";
familyName = "Apfel Grotezk";
featurePrefixes = (
{

glyphs = (
{
glyphname = A;
lastChange = "2019-11-01 10:27:26 +0000";
layers = (
{
background = {
hints = (
{
horizontal = 1;
place = "{0, 21}";
target = up;
type = BottomGhost;
},
{
horizontal = 1;
place = "{191, 79}";
type = Stem;
},
{
horizontal = 1;
place = "{722, -20}";
target = down;
type = TopGhost;
},
{
place = "{5, 690}";
type = Stem;
},
{
horizontal = 1;
place = "{617, 105}";
type = Stem;
}
);
paths = (
{
closed = 1;
nodes = (
"137 176 LINE",
"501 176 LINE",
"501 254 LINE",
"137 254 LINE"
);
},
{
closed = 1;
nodes = (
"104 0 LINE",
"315 546 LINE",
"526 0 LINE",
"622 0 LINE",
"360 650 LINE",
"272 650 LINE",
"8 0 LINE"
);
}
);
};
layerId = "8007C042-6FBA-4E49-99B8-8B738A4EBE86";
paths = (
{
closed = 1;
nodes = (
"137 176 LINE",
"501 176 LINE",
"501 254 LINE",
"137 254 LINE"
);
},
{
closed = 1;
nodes = (
"104 0 LINE",
"315 546 LINE",
"526 0 LINE",
"622 0 LINE",
"360 650 LINE",
"272 650 LINE",
"8 0 LINE"
);
}
);
width = 626;
},
{
background = {
paths = (
{
closed = 1;
nodes = (
"137 176 LINE",
"501 176 LINE",
"501 254 LINE",
"137 254 LINE"
);
},
{
closed = 1;
nodes = (
"104 0 LINE",
"315 546 LINE",
"526 0 LINE",
"622 0 LINE",
"360 650 LINE",
"272 650 LINE",
"8 0 LINE"
);
}
);
};
layerId = "516EF9F5-8A61-4DB8-B238-FB46D711CD4C";
paths = (
{
closed = 1;
nodes = (
"104 0 LINE",
"161 148 LINE SMOOTH",
"164 155 OFFCURVE",
"161 160 OFFCURVE",
"153 160 CURVE SMOOTH",
"139 160 OFFCURVE",
"129 170 OFFCURVE",
"129 184 CURVE SMOOTH",
"129 198 OFFCURVE",
"139 208 OFFCURVE",
"153 208 CURVE SMOOTH",
"167 208 OFFCURVE",
"177 198 OFFCURVE",
"177 184 CURVE SMOOTH",
"177 179 OFFCURVE",
"180 176 OFFCURVE",
"185 176 CURVE SMOOTH",
"445 176 LINE SMOOTH",
"450 176 OFFCURVE",
"453 179 OFFCURVE",
"453 184 CURVE SMOOTH",
"453 198 OFFCURVE",
"463 208 OFFCURVE",
"477 208 CURVE SMOOTH",
"491 208 OFFCURVE",
"501 198 OFFCURVE",
"501 184 CURVE SMOOTH",
"501 170 OFFCURVE",
"491 160 OFFCURVE",
"477 160 CURVE SMOOTH",
"469 160 OFFCURVE",
"466 155 OFFCURVE",
"469 148 CURVE SMOOTH",
"526 0 LINE",
"622 0 LINE",
"360 650 LINE",
"272 650 LINE",
"8 0 LINE"
);
},
{
closed = 1;
nodes = (
"176 260 OFFCURVE",
"186 270 OFFCURVE",
"200 270 CURVE SMOOTH",
"206 270 OFFCURVE",
"209 273 OFFCURVE",
"211 278 CURVE SMOOTH",
"294 492 LINE SMOOTH",
"301 510 OFFCURVE",
"301 523 OFFCURVE",
"294 538 CURVE SMOOTH",
"292 542 OFFCURVE",
"291 546 OFFCURVE",
"291 550 CURVE SMOOTH",
"291 563 OFFCURVE",
"302 574 OFFCURVE",
"315 574 CURVE SMOOTH",
"328 574 OFFCURVE",
"339 563 OFFCURVE",
"339 550 CURVE SMOOTH",
"339 546 OFFCURVE",
"338 542 OFFCURVE",
"336 538 CURVE SMOOTH",
"329 523 OFFCURVE",
"329 510 OFFCURVE",
"336 492 CURVE SMOOTH",
"419 278 LINE SMOOTH",
"421 273 OFFCURVE",
"424 270 OFFCURVE",
"430 270 CURVE SMOOTH",
"444 270 OFFCURVE",
"454 260 OFFCURVE",
"454 246 CURVE SMOOTH",
"454 232 OFFCURVE",
"444 222 OFFCURVE",
"430 222 CURVE SMOOTH",
"416 222 OFFCURVE",
"406 232 OFFCURVE",
"406 246 CURVE SMOOTH",
"406 251 OFFCURVE",
"403 254 OFFCURVE",
"398 254 CURVE SMOOTH",
"232 254 LINE SMOOTH",
"227 254 OFFCURVE",
"224 251 OFFCURVE",
"224 246 CURVE SMOOTH",
"224 232 OFFCURVE",
"214 222 OFFCURVE",
"200 222 CURVE SMOOTH",
"186 222 OFFCURVE",
"176 232 OFFCURVE",
"176 246 CURVE SMOOTH"
);
},
{
closed = 1;
nodes = (
"577 37 OFFCURVE",
"567 27 OFFCURVE",
"553 27 CURVE SMOOTH",
"539 27 OFFCURVE",
"529 37 OFFCURVE",
"529 51 CURVE SMOOTH",
"529 65 OFFCURVE",
"539 75 OFFCURVE",
"553 75 CURVE SMOOTH",
"567 75 OFFCURVE",
"577 65 OFFCURVE",
"577 51 CURVE SMOOTH"
);
},
{
closed = 1;
nodes = (
"101 37 OFFCURVE",
"91 27 OFFCURVE",
"77 27 CURVE SMOOTH",
"63 27 OFFCURVE",
"53 37 OFFCURVE",
"53 51 CURVE SMOOTH",
"53 65 OFFCURVE",
"63 75 OFFCURVE",
"77 75 CURVE SMOOTH",
"91 75 OFFCURVE",
"101 65 OFFCURVE",
"101 51 CURVE SMOOTH"
);
},
{
closed = 1;
nodes = (
"206 383 OFFCURVE",
"195 394 OFFCURVE",
"195 407 CURVE SMOOTH",
"195 420 OFFCURVE",
"206 431 OFFCURVE",
"219 431 CURVE SMOOTH",
"232 431 OFFCURVE",
"243 420 OFFCURVE",
"243 407 CURVE SMOOTH",
"243 394 OFFCURVE",
"232 383 OFFCURVE",
"219 383 CURVE SMOOTH"
);
},
{
closed = 1;
nodes = (
"400 383 OFFCURVE",
"389 394 OFFCURVE",
"389 407 CURVE SMOOTH",
"389 420 OFFCURVE",
"400 431 OFFCURVE",
"413 431 CURVE SMOOTH",
"426 431 OFFCURVE",
"437 420 OFFCURVE",
"437 407 CURVE SMOOTH",
"437 394 OFFCURVE",
"426 383 OFFCURVE",
"413 383 CURVE SMOOTH"
);
}
);
width = 626;
},
{
associatedMasterId = "516EF9F5-8A61-4DB8-B238-FB46D711CD4C";
background = {
paths = (
{
closed = 1;
nodes = (
"137 176 LINE",
"501 176 LINE",
"501 254 LINE",
"137 254 LINE"
);
},
{
closed = 1;
nodes = (
"104 0 LINE",
"315 546 LINE",
"526 0 LINE",
"622 0 LINE",
"360 650 LINE",
"272 650 LINE",
"8 0 LINE"
);
}
);
};
layerId = "E42DA1A8-1BB2-4C83-ADCF-3FDC9DFB34D0";
name = "Oct 31 19, 18:18";
paths = (
{
closed = 1;
nodes = (
"104 0 LINE",
"161 148 LINE SMOOTH",
"164 155 OFFCURVE",
"161 160 OFFCURVE",
"153 160 CURVE SMOOTH",
"139 160 OFFCURVE",
"129 170 OFFCURVE",
"129 184 CURVE SMOOTH",
"129 198 OFFCURVE",
"139 208 OFFCURVE",
"153 208 CURVE SMOOTH",
"167 208 OFFCURVE",
"177 198 OFFCURVE",
"177 184 CURVE SMOOTH",
"177 179 OFFCURVE",
"180 176 OFFCURVE",
"185 176 CURVE SMOOTH",
"445 176 LINE SMOOTH",
"450 176 OFFCURVE",
"453 179 OFFCURVE",
"453 184 CURVE SMOOTH",
"453 198 OFFCURVE",
"463 208 OFFCURVE",
"477 208 CURVE SMOOTH",
"491 208 OFFCURVE",
"501 198 OFFCURVE",
"501 184 CURVE SMOOTH",
"501 170 OFFCURVE",
"491 160 OFFCURVE",
"477 160 CURVE SMOOTH",
"469 160 OFFCURVE",
"466 155 OFFCURVE",
"469 148 CURVE SMOOTH",
"526 0 LINE",
"622 0 LINE",
"360 650 LINE",
"272 650 LINE",
"8 0 LINE"
);
},
{
closed = 1;
nodes = (
"176 260 OFFCURVE",
"186 270 OFFCURVE",
"200 270 CURVE SMOOTH",
"206 270 OFFCURVE",
"209 273 OFFCURVE",
"211 278 CURVE SMOOTH",
"294 492 LINE SMOOTH",
"299 505 OFFCURVE",
"298 507 OFFCURVE",
"294 514 CURVE SMOOTH",
"292 518 OFFCURVE",
"291 522 OFFCURVE",
"291 526 CURVE SMOOTH",
"291 539 OFFCURVE",
"302 550 OFFCURVE",
"315 550 CURVE SMOOTH",
"328 550 OFFCURVE",
"339 539 OFFCURVE",
"339 526 CURVE SMOOTH",
"339 522 OFFCURVE",
"338 517 OFFCURVE",
"336 514 CURVE SMOOTH",
"332 507 OFFCURVE",
"331 505 OFFCURVE",
"336 492 CURVE SMOOTH",
"419 278 LINE SMOOTH",
"421 273 OFFCURVE",
"424 270 OFFCURVE",
"430 270 CURVE SMOOTH",
"444 270 OFFCURVE",
"454 260 OFFCURVE",
"454 246 CURVE SMOOTH",
"454 232 OFFCURVE",
"444 222 OFFCURVE",
"430 222 CURVE SMOOTH",
"416 222 OFFCURVE",
"406 232 OFFCURVE",
"406 246 CURVE SMOOTH",
"406 251 OFFCURVE",
"403 254 OFFCURVE",
"398 254 CURVE SMOOTH",
"232 254 LINE SMOOTH",
"227 254 OFFCURVE",
"224 251 OFFCURVE",
"224 246 CURVE SMOOTH",
"224 232 OFFCURVE",
"214 222 OFFCURVE",
"200 222 CURVE SMOOTH",
"186 222 OFFCURVE",
"176 232 OFFCURVE",
"176 246 CURVE SMOOTH"
);
},
{
closed = 1;
nodes = (
"582 27 OFFCURVE",
"572 17 OFFCURVE",
"558 17 CURVE SMOOTH",
"544 17 OFFCURVE",
"534 27 OFFCURVE",
"534 41 CURVE SMOOTH",
"534 55 OFFCURVE",
"544 65 OFFCURVE",
"558 65 CURVE SMOOTH",
"572 65 OFFCURVE",
"582 55 OFFCURVE",
"582 41 CURVE SMOOTH"
);
},
{
closed = 1;
nodes = (
"96 27 OFFCURVE",
"86 17 OFFCURVE",
"72 17 CURVE SMOOTH",
"58 17 OFFCURVE",
"48 27 OFFCURVE",
"48 41 CURVE SMOOTH",
"48 55 OFFCURVE",
"58 65 OFFCURVE",
"72 65 CURVE SMOOTH",
"86 65 OFFCURVE",
"96 55 OFFCURVE",
"96 41 CURVE SMOOTH"
);
},
{
closed = 1;
nodes = (
"206 383 OFFCURVE",
"195 394 OFFCURVE",
"195 407 CURVE SMOOTH",
"195 420 OFFCURVE",
"206 431 OFFCURVE",
"219 431 CURVE SMOOTH",
"232 431 OFFCURVE",
"243 420 OFFCURVE",
"243 407 CURVE SMOOTH",
"243 394 OFFCURVE",
"232 383 OFFCURVE",
"219 383 CURVE SMOOTH"
);
},
{
closed = 1;
nodes = (
"400 383 OFFCURVE",
"389 394 OFFCURVE",
"389 407 CURVE SMOOTH",
"389 420 OFFCURVE",
"400 431 OFFCURVE",
"413 431 CURVE SMOOTH",
"426 431 OFFCURVE",
"437 420 OFFCURVE",
"437 407 CURVE SMOOTH",
"437 394 OFFCURVE",
"426 383 OFFCURVE",
"413 383 CURVE SMOOTH"
);
}
);
width = 626;
}
);
leftKerningGroup = A;
rightKerningGroup = A;
unicode = 0041;
},
{
glyphname = B;
lastChange = "2019-11-03 18:20:16 +0000";
layers = (
{
background = {
hints = (
{
horizontal = 1;
place = "{0, 86}";
type = Stem;
},
{
horizontal = 1;
place = "{327, 82}";
type = Stem;
},
{
horizontal = 1;
place = "{636, 86}";
type = Stem;
},
{
place = "{77, 96}";
type = Stem;
},
{
place = "{538, 99}";
type = Stem;
},
{
place = "{509, 100}";
type = Stem;
}
);
paths = (
{
closed = 1;
nodes = (
"68 650 LINE",
"344 650 LINE SMOOTH",
"460 650 OFFCURVE",
"542 579 OFFCURVE",
"542 477 CURVE SMOOTH",
"542 417 OFFCURVE",
"502 356 OFFCURVE",
"446 336 CURVE",
"510 318 OFFCURVE",
"558 255 OFFCURVE",
"558 187 CURVE SMOOTH",
"558 75 OFFCURVE",
"478 0 OFFCURVE",
"364 0 CURVE SMOOTH",
"68 0 LINE"
);
},
{
closed = 1;
nodes = (
"340 80 LINE SMOOTH",
"416 80 OFFCURVE",
"472 127 OFFCURVE",
"472 191 CURVE SMOOTH",
"472 251 OFFCURVE",
"416 294 OFFCURVE",
"340 294 CURVE SMOOTH",
"150 294 LINE",
"150 80 LINE"
);
},
{
closed = 1;
nodes = (
"328 370 LINE SMOOTH",
"404 370 OFFCURVE",
"456 413 OFFCURVE",
"456 473 CURVE SMOOTH",
"456 531 OFFCURVE",
"404 572 OFFCURVE",
"328 572 CURVE SMOOTH",
"150 572 LINE",
"150 370 LINE"
);
}
);
};
layerId = "8007C042-6FBA-4E49-99B8-8B738A4EBE86";
paths = (
{
closed = 1;
nodes = (
"68 650 LINE",
"344 650 LINE SMOOTH",
"460 650 OFFCURVE",
"542 579 OFFCURVE",
"542 477 CURVE SMOOTH",
"542 417 OFFCURVE",
"502 356 OFFCURVE",
"446 336 CURVE",
"510 318 OFFCURVE",
"558 255 OFFCURVE",
"558 187 CURVE SMOOTH",
"558 75 OFFCURVE",
"478 0 OFFCURVE",
"364 0 CURVE SMOOTH",
"68 0 LINE"
);
},
{
closed = 1;
nodes = (
"340 80 LINE SMOOTH",
"416 80 OFFCURVE",
"472 127 OFFCURVE",
"472 191 CURVE SMOOTH",
"472 251 OFFCURVE",
"416 294 OFFCURVE",
"340 294 CURVE SMOOTH",
"150 294 LINE",
"150 80 LINE"
);
},
{
closed = 1;
nodes = (
"328 370 LINE SMOOTH",
"404 370 OFFCURVE",
"456 413 OFFCURVE",
"456 473 CURVE SMOOTH",
"456 531 OFFCURVE",
"404 572 OFFCURVE",
"328 572 CURVE SMOOTH",
"150 572 LINE",
"150 370 LINE"
);
}
);
width = 590;
},
{
associatedMasterId = "8007C042-6FBA-4E49-99B8-8B738A4EBE86";
background = {
paths = (
{
closed = 1;
nodes = (
"174 434 LINE SMOOTH",
"174 680 OFFCURVE",
"164 681 OFFCURVE",
"213 681 CURVE SMOOTH",
"285 681 LINE SMOOTH",
"413 681 OFFCURVE",
"478 651 OFFCURVE",
"478 531 CURVE SMOOTH",
"478 411 OFFCURVE",
"412 367 OFFCURVE",
"288 367 CURVE SMOOTH",
"174 367 LINE"
);
},
{
closed = 1;
nodes = (
"226 9 LINE SMOOTH",
"177 9 OFFCURVE",
"174 13 OFFCURVE",
"174 259 CURVE SMOOTH",
"174 356 LINE",
"301 356 LINE SMOOTH",
"445 356 OFFCURVE",
"501 300 OFFCURVE",
"501 189 CURVE SMOOTH",
"501 68 OFFCURVE",
"444 9 OFFCURVE",
"311 9 CURVE SMOOTH"
);
},
{
closed = 1;
nodes = (
"51 0 OFFCURVE",
"119 3 OFFCURVE",
"134 3 CURVE SMOOTH",
"147 3 OFFCURVE",
"308 0 OFFCURVE",
"326 0 CURVE SMOOTH",
"509 0 OFFCURVE",
"586 70 OFFCURVE",
"586 189 CURVE SMOOTH",
"586 297 OFFCURVE",
"487 353 OFFCURVE",
"359 364 CURVE",
"479 380 OFFCURVE",
"563 429 OFFCURVE",
"563 530 CURVE SMOOTH",
"563 654 OFFCURVE",
"468 693 OFFCURVE",
"300 693 CURVE SMOOTH",
"283 693 OFFCURVE",
"147 690 OFFCURVE",
"134 690 CURVE SMOOTH",
"119 690 OFFCURVE",
"51 693 OFFCURVE",
"23 693 CURVE SMOOTH",
"15 693 OFFCURVE",
"15 684 OFFCURVE",
"23 684 CURVE SMOOTH",
"41 684 LINE SMOOTH",
"90 684 OFFCURVE",
"95 679 OFFCURVE",
"95 434 CURVE SMOOTH",
"95 259 LINE SMOOTH",
"95 14 OFFCURVE",
"90 9 OFFCURVE",
"41 9 CURVE SMOOTH",
"23 9 LINE SMOOTH",
"15 9 OFFCURVE",
"15 0 OFFCURVE",
"23 0 CURVE SMOOTH"
);
}
);
};
layerId = "97242444-4575-4E5F-BB82-83CD0553FD86";
name = "Oct 18 17, 12:32";
paths = (
{
closed = 1;
nodes = (
"64 692 LINE",
"338 692 LINE SMOOTH",
"481 692 OFFCURVE",
"566 638 OFFCURVE",
"566 514 CURVE SMOOTH",
"566 434 OFFCURVE",
"530 378 OFFCURVE",
"470 364 CURVE",
"543 340 OFFCURVE",
"586 282 OFFCURVE",
"586 194 CURVE SMOOTH",
"586 70 OFFCURVE",
"503 0 OFFCURVE",
"362 0 CURVE SMOOTH",
"64 0 LINE"
);
},
{
closed = 1;
nodes = (
"358 82 LINE SMOOTH",
"451 82 OFFCURVE",
"506 124 OFFCURVE",
"506 196 CURVE SMOOTH",
"506 265 OFFCURVE",
"455 318 OFFCURVE",
"370 318 CURVE SMOOTH",
"146 318 LINE",
"146 82 LINE"
);
},
{
closed = 1;
nodes = (
"342 398 LINE SMOOTH",
"434 398 OFFCURVE",
"488 438 OFFCURVE",
"488 506 CURVE SMOOTH",
"488 573 OFFCURVE",
"437 612 OFFCURVE",
"350 612 CURVE SMOOTH",
"146 612 LINE",
"146 398 LINE"
);
}
);
width = 626;
},
{
background = {
paths = (
{
closed = 1;
nodes = (
"68 650 LINE",
"344 650 LINE SMOOTH",
"460 650 OFFCURVE",
"542 579 OFFCURVE",
"542 477 CURVE SMOOTH",
"542 417 OFFCURVE",
"502 356 OFFCURVE",
"446 336 CURVE",
"510 318 OFFCURVE",
"558 255 OFFCURVE",
"558 187 CURVE SMOOTH",
"558 75 OFFCURVE",
"478 0 OFFCURVE",
"364 0 CURVE SMOOTH",
"68 0 LINE"
);
},
{
closed = 1;
nodes = (
"340 80 LINE SMOOTH",
"416 80 OFFCURVE",
"472 127 OFFCURVE",
"472 191 CURVE SMOOTH",
"472 251 OFFCURVE",
"416 294 OFFCURVE",
"340 294 CURVE SMOOTH",
"150 294 LINE",
"150 80 LINE"
);
},
{
closed = 1;
nodes = (
"328 370 LINE SMOOTH",
"404 370 OFFCURVE",
"456 413 OFFCURVE",
"456 473 CURVE SMOOTH",
"456 531 OFFCURVE",
"404 572 OFFCURVE",
"328 572 CURVE SMOOTH",
"150 572 LINE",
"150 370 LINE"
);
}
);
};
layerId = "516EF9F5-8A61-4DB8-B238-FB46D711CD4C";
paths = (
{
closed = 1;
nodes = (
"118 85 OFFCURVE",
"129 96 OFFCURVE",
"142 96 CURVE SMOOTH",
"147 96 OFFCURVE",
"150 99 OFFCURVE",
"150 104 CURVE SMOOTH",
"150 270 LINE SMOOTH",
"150 275 OFFCURVE",
"147 278 OFFCURVE",
"142 278 CURVE SMOOTH",
"129 278 OFFCURVE",
"118 289 OFFCURVE",
"118 302 CURVE SMOOTH",
"118 315 OFFCURVE",
"129 326 OFFCURVE",
"142 326 CURVE SMOOTH",
"155 326 OFFCURVE",
"166 315 OFFCURVE",
"166 302 CURVE SMOOTH",
"166 297 OFFCURVE",
"169 294 OFFCURVE",
"174 294 CURVE SMOOTH",
"340 294 LINE SMOOTH",
"416 294 OFFCURVE",
"472 251 OFFCURVE",
"472 191 CURVE SMOOTH",
"472 127 OFFCURVE",
"416 80 OFFCURVE",
"340 80 CURVE SMOOTH",
"174 80 LINE SMOOTH",
"169 80 OFFCURVE",
"166 77 OFFCURVE",
"166 72 CURVE SMOOTH",
"166 59 OFFCURVE",
"155 48 OFFCURVE",
"142 48 CURVE SMOOTH",
"129 48 OFFCURVE",
"118 59 OFFCURVE",
"118 72 CURVE SMOOTH"
);
},
{
closed = 1;
nodes = (
"118 375 OFFCURVE",
"129 386 OFFCURVE",
"142 386 CURVE SMOOTH",
"147 386 OFFCURVE",
"150 389 OFFCURVE",
"150 394 CURVE SMOOTH",
"150 548 LINE SMOOTH",
"150 553 OFFCURVE",
"147 556 OFFCURVE",
"142 556 CURVE SMOOTH",
"129 556 OFFCURVE",
"118 567 OFFCURVE",
"118 580 CURVE SMOOTH",
"118 593 OFFCURVE",
"129 604 OFFCURVE",
"142 604 CURVE SMOOTH",
"155 604 OFFCURVE",
"166 593 OFFCURVE",
"166 580 CURVE SMOOTH",
"166 575 OFFCURVE",
"169 572 OFFCURVE",
"174 572 CURVE SMOOTH",
"328 572 LINE SMOOTH",
"404 572 OFFCURVE",
"456 531 OFFCURVE",
"456 473 CURVE SMOOTH",
"456 413 OFFCURVE",
"404 370 OFFCURVE",
"328 370 CURVE SMOOTH",
"174 370 LINE SMOOTH",
"169 370 OFFCURVE",
"166 367 OFFCURVE",
"166 362 CURVE SMOOTH",
"166 349 OFFCURVE",
"155 338 OFFCURVE",
"142 338 CURVE SMOOTH",
"129 338 OFFCURVE",
"118 349 OFFCURVE",
"118 362 CURVE SMOOTH"
);
},
{
closed = 1;
nodes = (
"342 634 OFFCURVE",
"352 624 OFFCURVE",
"352 610 CURVE SMOOTH",
"352 596 OFFCURVE",
"342 586 OFFCURVE",
"328 586 CURVE SMOOTH",
"280 586 LINE SMOOTH",
"266 586 OFFCURVE",
"256 596 OFFCURVE",
"256 610 CURVE SMOOTH",
"256 624 OFFCURVE",
"266 634 OFFCURVE",
"280 634 CURVE SMOOTH",
"328 634 LINE SMOOTH"
);
},
{
closed = 1;
nodes = (
"354 64 OFFCURVE",
"364 54 OFFCURVE",
"364 40 CURVE SMOOTH",
"364 26 OFFCURVE",
"354 16 OFFCURVE",
"340 16 CURVE SMOOTH",
"292 16 LINE SMOOTH",
"278 16 OFFCURVE",
"268 26 OFFCURVE",
"268 40 CURVE SMOOTH",
"268 54 OFFCURVE",
"278 64 OFFCURVE",
"292 64 CURVE SMOOTH",
"340 64 LINE SMOOTH"
);
},
{
closed = 1;
nodes = (
"474 502 OFFCURVE",
"463 513 OFFCURVE",
"463 526 CURVE SMOOTH",
"463 539 OFFCURVE",
"474 550 OFFCURVE",
"487 550 CURVE SMOOTH",
"500 550 OFFCURVE",
"511 539 OFFCURVE",
"511 526 CURVE SMOOTH",
"511 513 OFFCURVE",
"500 502 OFFCURVE",
"487 502 CURVE SMOOTH"
);
},
{
closed = 1;
nodes = (
"514 152 OFFCURVE",
"525 141 OFFCURVE",
"525 128 CURVE SMOOTH",
"525 115 OFFCURVE",
"514 104 OFFCURVE",
"501 104 CURVE SMOOTH",
"488 104 OFFCURVE",
"477 115 OFFCURVE",
"477 128 CURVE SMOOTH",
"477 141 OFFCURVE",
"488 152 OFFCURVE",
"501 152 CURVE SMOOTH"
);
},
{
closed = 1;
nodes = (
"302 356 OFFCURVE",
"312 346 OFFCURVE",
"312 332 CURVE SMOOTH",
"312 318 OFFCURVE",
"302 308 OFFCURVE",
"288 308 CURVE SMOOTH",
"274 308 OFFCURVE",
"264 318 OFFCURVE",
"264 332 CURVE SMOOTH",
"264 346 OFFCURVE",
"274 356 OFFCURVE",
"288 356 CURVE SMOOTH"
);
},
{
closed = 1;
nodes = (
"483 320 OFFCURVE",
"478 320 OFFCURVE",
"475 317 CURVE SMOOTH",
"470 312 OFFCURVE",
"465 312 OFFCURVE",
"460 312 CURVE SMOOTH",
"446 312 OFFCURVE",
"437 322 OFFCURVE",
"437 336 CURVE SMOOTH",
"437 350 OFFCURVE",
"447 360 OFFCURVE",
"461 360 CURVE SMOOTH",
"465 360 OFFCURVE",
"468 359 OFFCURVE",
"472 357 CURVE SMOOTH",
"477 354 OFFCURVE",
"480 355 OFFCURVE",
"484 358 CURVE SMOOTH",
"519 386 OFFCURVE",
"542 432 OFFCURVE",
"542 477 CURVE SMOOTH",
"542 579 OFFCURVE",
"460 650 OFFCURVE",
"344 650 CURVE SMOOTH",
"68 650 LINE",
"68 0 LINE",
"364 0 LINE SMOOTH",
"478 0 OFFCURVE",
"558 75 OFFCURVE",
"558 187 CURVE SMOOTH",
"558 239 OFFCURVE",
"529 289 OFFCURVE",
"487 317 CURVE SMOOTH"
);
}
);
width = 590;
},
{
associatedMasterId = "516EF9F5-8A61-4DB8-B238-FB46D711CD4C";
background = {
paths = (
{
closed = 1;
nodes = (
"174 434 LINE SMOOTH",
"174 680 OFFCURVE",
"164 681 OFFCURVE",
"213 681 CURVE SMOOTH",
"285 681 LINE SMOOTH",
"413 681 OFFCURVE",
"478 651 OFFCURVE",
"478 531 CURVE SMOOTH",
"478 411 OFFCURVE",
"412 367 OFFCURVE",
"288 367 CURVE SMOOTH",
"174 367 LINE"
);
},
{
closed = 1;
nodes = (
"226 9 LINE SMOOTH",
"177 9 OFFCURVE",
"174 13 OFFCURVE",
"174 259 CURVE SMOOTH",
"174 356 LINE",
"301 356 LINE SMOOTH",
"445 356 OFFCURVE",
"501 300 OFFCURVE",
"501 189 CURVE SMOOTH",
"501 68 OFFCURVE",
"444 9 OFFCURVE",
"311 9 CURVE SMOOTH"
);
},
{
closed = 1;
nodes = (
"51 0 OFFCURVE",
"119 3 OFFCURVE",
"134 3 CURVE SMOOTH",
"147 3 OFFCURVE",
"308 0 OFFCURVE",
"326 0 CURVE SMOOTH",
"509 0 OFFCURVE",
"586 70 OFFCURVE",
"586 189 CURVE SMOOTH",
"586 297 OFFCURVE",
"487 353 OFFCURVE",
"359 364 CURVE",
"479 380 OFFCURVE",
"563 429 OFFCURVE",
"563 530 CURVE SMOOTH",
"563 654 OFFCURVE",
"468 693 OFFCURVE",
"300 693 CURVE SMOOTH",
"283 693 OFFCURVE",
"147 690 OFFCURVE",
"134 690 CURVE SMOOTH",
"119 690 OFFCURVE",
"51 693 OFFCURVE",
"23 693 CURVE SMOOTH",
"15 693 OFFCURVE",
"15 684 OFFCURVE",
"23 684 CURVE SMOOTH",
"41 684 LINE SMOOTH",
"90 684 OFFCURVE",
"95 679 OFFCURVE",
"95 434 CURVE SMOOTH",
"95 259 LINE SMOOTH",
"95 14 OFFCURVE",
"90 9 OFFCURVE",
"41 9 CURVE SMOOTH",
"23 9 LINE SMOOTH",
"15 9 OFFCURVE",
"15 0 OFFCURVE",
"23 0 CURVE SMOOTH"
);
}
);
};
layerId = "61C2CD18-E409-48F1-98BD-E3D30C6654D9";
name = "Oct 18 17, 12:32";
paths = (
{
closed = 1;
nodes = (
"68 650 LINE",
"344 650 LINE SMOOTH",
"460 650 OFFCURVE",
"542 579 OFFCURVE",
"542 477 CURVE SMOOTH",
"542 430 OFFCURVE",
"521 386 OFFCURVE",
"481 355 CURVE SMOOTH",
"475 350 OFFCURVE",
"470 350 OFFCURVE",
"466 354 CURVE SMOOTH",
"462 358 OFFCURVE",
"457 360 OFFCURVE",
"451 360 CURVE SMOOTH",
"438 360 OFFCURVE",
"427 349 OFFCURVE",
"427 336 CURVE SMOOTH",
"427 323 OFFCURVE",
"438 312 OFFCURVE",
"451 312 CURVE SMOOTH",
"461 312 OFFCURVE",
"465 318 OFFCURVE",
"468 321 CURVE SMOOTH",
"472 325 OFFCURVE",
"477 325 OFFCURVE",
"482 321 CURVE SMOOTH",
"530 289 OFFCURVE",
"558 241 OFFCURVE",
"558 187 CURVE SMOOTH",
"558 75 OFFCURVE",
"478 0 OFFCURVE",
"364 0 CURVE SMOOTH",
"68 0 LINE"
);
},
{
closed = 1;
nodes = (
"118 85 OFFCURVE",
"129 96 OFFCURVE",
"142 96 CURVE SMOOTH",
"147 96 OFFCURVE",
"150 99 OFFCURVE",
"150 104 CURVE",
"174 80 LINE",
"169 80 OFFCURVE",
"166 77 OFFCURVE",
"166 72 CURVE SMOOTH",
"166 59 OFFCURVE",
"155 48 OFFCURVE",
"142 48 CURVE SMOOTH",
"129 48 OFFCURVE",
"118 59 OFFCURVE",
"118 72 CURVE SMOOTH"
);
},
{
closed = 1;
nodes = (
"118 315 OFFCURVE",
"129 326 OFFCURVE",
"142 326 CURVE SMOOTH",
"155 326 OFFCURVE",
"166 315 OFFCURVE",
"166 302 CURVE SMOOTH",
"166 297 OFFCURVE",
"169 294 OFFCURVE",
"174 294 CURVE",
"150 270 LINE",
"150 275 OFFCURVE",
"147 278 OFFCURVE",
"142 278 CURVE SMOOTH",
"129 278 OFFCURVE",
"118 289 OFFCURVE",
"118 302 CURVE SMOOTH"
);
},
{
closed = 1;
nodes = (
"118 375 OFFCURVE",
"129 386 OFFCURVE",
"142 386 CURVE SMOOTH",
"147 386 OFFCURVE",
"150 389 OFFCURVE",
"150 394 CURVE",
"174 370 LINE",
"169 370 OFFCURVE",
"166 367 OFFCURVE",
"166 362 CURVE SMOOTH",
"166 349 OFFCURVE",
"155 338 OFFCURVE",
"142 338 CURVE SMOOTH",
"129 338 OFFCURVE",
"118 349 OFFCURVE",
"118 362 CURVE SMOOTH"
);
},
{
closed = 1;
nodes = (
"118 593 OFFCURVE",
"129 604 OFFCURVE",
"142 604 CURVE SMOOTH",
"155 604 OFFCURVE",
"166 593 OFFCURVE",
"166 580 CURVE SMOOTH",
"166 575 OFFCURVE",
"169 572 OFFCURVE",
"174 572 CURVE",
"150 548 LINE",
"150 553 OFFCURVE",
"147 556 OFFCURVE",
"142 556 CURVE SMOOTH",
"129 556 OFFCURVE",
"118 567 OFFCURVE",
"118 580 CURVE SMOOTH"
);
},
{
closed = 1;
nodes = (
"340 80 LINE SMOOTH",
"416 80 OFFCURVE",
"472 127 OFFCURVE",
"472 191 CURVE SMOOTH",
"472 251 OFFCURVE",
"416 294 OFFCURVE",
"340 294 CURVE SMOOTH",
"150 294 LINE",
"150 80 LINE"
);
},
{
closed = 1;
nodes = (
"328 370 LINE SMOOTH",
"404 370 OFFCURVE",
"456 413 OFFCURVE",
"456 473 CURVE SMOOTH",
"456 531 OFFCURVE",
"404 572 OFFCURVE",
"328 572 CURVE SMOOTH",
"150 572 LINE",
"150 370 LINE"
);
}
);
width = 590;
}
);
leftMetricsKey = l;
unicode = 0042;
},
{
glyphname = C;
lastChange = "2019-11-01 10:54:23 +0000";
layers = (
{
background = {
hints = (
{
horizontal = 1;
place = "{-13, 88}";
type = Stem;
},
{
horizontal = 1;
place = "{653, 88}";
type = Stem;
},
{
place = "{47, 100}";
type = Stem;
}
);
paths = (
{
closed = 1;
nodes = (
"550 248 LINE",
"542 146 OFFCURVE",
"464 72 OFFCURVE",
"368 72 CURVE SMOOTH",
"234 72 OFFCURVE",
"136 179 OFFCURVE",
"136 325 CURVE SMOOTH",
"136 473 OFFCURVE",
"230 580 OFFCURVE",
"360 580 CURVE SMOOTH",
"450 580 OFFCURVE",
"532 514 OFFCURVE",
"544 414 CURVE",
"638 442 LINE",
"614 570 OFFCURVE",
"496 662 OFFCURVE",
"360 662 CURVE SMOOTH",
"181 662 OFFCURVE",
"48 520 OFFCURVE",
"48 324 CURVE SMOOTH",
"48 130 OFFCURVE",
"182 -12 OFFCURVE",
"368 -12 CURVE SMOOTH",
"506 -12 OFFCURVE",
"622 84 OFFCURVE",
"646 220 CURVE"
);
}
);
};
layerId = "8007C042-6FBA-4E49-99B8-8B738A4EBE86";
paths = (
{
closed = 1;
nodes = (
"556 248 LINE",
"548 147 OFFCURVE",
"468 72 OFFCURVE",
"364 72 CURVE SMOOTH",
"234 72 OFFCURVE",
"136 180 OFFCURVE",
"136 326 CURVE SMOOTH",
"136 472 OFFCURVE",
"230 580 OFFCURVE",
"360 580 CURVE SMOOTH",
"456 580 OFFCURVE",
"536 508 OFFCURVE",
"548 412 CURVE",
"644 444 LINE",
"620 572 OFFCURVE",
"502 662 OFFCURVE",
"362 662 CURVE SMOOTH",
"180 662 OFFCURVE",
"48 520 OFFCURVE",
"48 324 CURVE SMOOTH",
"48 130 OFFCURVE",
"182 -12 OFFCURVE",
"364 -12 CURVE SMOOTH",
"504 -12 OFFCURVE",
"628 84 OFFCURVE",
"650 220 CURVE"
);
}
);
width = 682;
},
{
associatedMasterId = "8007C042-6FBA-4E49-99B8-8B738A4EBE86";
background = {
paths = (
{
closed = 1;
nodes = (
"472 571 OFFCURVE",
"537 532 OFFCURVE",
"573 453 CURVE",
"654 497 LINE",
"597 604 OFFCURVE",
"505 657 OFFCURVE",
"379 657 CURVE SMOOTH",
"194 657 OFFCURVE",
"47 520 OFFCURVE",
"47 326 CURVE SMOOTH",
"47 131 OFFCURVE",
"191 -9 OFFCURVE",
"379 -9 CURVE SMOOTH",
"496 -9 OFFCURVE",
"598 49 OFFCURVE",
"658 151 CURVE",
"578 194 LINE",
"539 118 OFFCURVE",
"465 77 OFFCURVE",
"379 77 CURVE SMOOTH",
"245 77 OFFCURVE",
"143 179 OFFCURVE",
"143 325 CURVE SMOOTH",
"143 471 OFFCURVE",
"241 571 OFFCURVE",
"379 571 CURVE SMOOTH"
);
}
);
};
layerId = "FFBD3A5A-F1E2-48FE-BD02-F9581128138F";
name = "Jan 30 18, 21:55";
paths = (
{
closed = 1;
nodes = (
"661 489 LINE",
"635 628 OFFCURVE",
"528 710 OFFCURVE",
"373 710 CURVE SMOOTH",
"166 710 OFFCURVE",
"44 576 OFFCURVE",
"44 350 CURVE SMOOTH",
"44 124 OFFCURVE",
"167 -10 OFFCURVE",
"375 -10 CURVE SMOOTH",
"535 -10 OFFCURVE",
"643 72 OFFCURVE",
"667 212 CURVE",
"583 235 LINE",
"562 136 OFFCURVE",
"483 78 OFFCURVE",
"371 78 CURVE SMOOTH",
"220 78 OFFCURVE",
"130 180 OFFCURVE",
"130 353 CURVE SMOOTH",
"130 522 OFFCURVE",
"219 622 OFFCURVE",
"369 622 CURVE SMOOTH",
"480 622 OFFCURVE",
"558 563 OFFCURVE",
"579 463 CURVE"
);
}
);
width = 723;
},
{
associatedMasterId = "8007C042-6FBA-4E49-99B8-8B738A4EBE86";
background = {
paths = (
{
closed = 1;
nodes = (
"475 570 OFFCURVE",
"540 531 OFFCURVE",
"575 452 CURVE",
"657 495 LINE",
"599 602 OFFCURVE",
"508 656 OFFCURVE",
"382 656 CURVE SMOOTH",
"198 656 OFFCURVE",
"51 519 OFFCURVE",
"51 325 CURVE SMOOTH",
"51 131 OFFCURVE",
"194 -9 OFFCURVE",
"382 -9 CURVE SMOOTH",
"499 -9 OFFCURVE",
"601 49 OFFCURVE",
"661 150 CURVE",
"581 194 LINE",
"542 118 OFFCURVE",
"468 76 OFFCURVE",
"382 76 CURVE SMOOTH",
"248 76 OFFCURVE",
"147 178 OFFCURVE",
"147 324 CURVE SMOOTH",
"147 470 OFFCURVE",
"245 570 OFFCURVE",
"382 570 CURVE SMOOTH"
);
}
);
};
layerId = "3D9CDD05-E1DE-447D-85C5-754E28E32ED0";
name = "Aug 1 18, 20:35";
paths = (
{
closed = 1;
nodes = (
"656 438 LINE",
"636 566 OFFCURVE",
"521 662 OFFCURVE",
"369 662 CURVE SMOOTH",
"179 662 OFFCURVE",
"44 518 OFFCURVE",
"44 324 CURVE SMOOTH",
"44 128 OFFCURVE",
"185 -12 OFFCURVE",
"377 -12 CURVE SMOOTH",
"535 -12 OFFCURVE",
"654 95 OFFCURVE",
"666 239 CURVE",
"584 251 LINE",
"576 149 OFFCURVE",
"493 72 OFFCURVE",
"373 72 CURVE SMOOTH",
"231 72 OFFCURVE",
"130 177 OFFCURVE",
"130 325 CURVE SMOOTH",
"130 473 OFFCURVE",
"229 580 OFFCURVE",
"369 580 CURVE SMOOTH",
"479 580 OFFCURVE",
"560 514 OFFCURVE",
"576 418 CURVE"
);
}
);
width = 706;
},
{
background = {
paths = (
{
closed = 1;
nodes = (
"550 248 LINE",
"542 146 OFFCURVE",
"464 72 OFFCURVE",
"368 72 CURVE SMOOTH",
"234 72 OFFCURVE",
"136 179 OFFCURVE",
"136 325 CURVE SMOOTH",
"136 473 OFFCURVE",
"230 580 OFFCURVE",
"360 580 CURVE SMOOTH",
"450 580 OFFCURVE",
"532 514 OFFCURVE",
"544 414 CURVE",
"638 442 LINE",
"614 570 OFFCURVE",
"496 662 OFFCURVE",
"360 662 CURVE SMOOTH",
"181 662 OFFCURVE",
"48 520 OFFCURVE",
"48 324 CURVE SMOOTH",
"48 130 OFFCURVE",
"182 -12 OFFCURVE",
"368 -12 CURVE SMOOTH",
"506 -12 OFFCURVE",
"622 84 OFFCURVE",
"646 220 CURVE"
);
}
);
};
layerId = "516EF9F5-8A61-4DB8-B238-FB46D711CD4C";
paths = (
{
closed = 1;
nodes = (
"556 248 LINE",
"548 147 OFFCURVE",
"468 72 OFFCURVE",
"364 72 CURVE SMOOTH",
"234 72 OFFCURVE",
"136 180 OFFCURVE",
"136 326 CURVE SMOOTH",
"136 472 OFFCURVE",
"230 580 OFFCURVE",
"360 580 CURVE SMOOTH",
"456 580 OFFCURVE",
"536 508 OFFCURVE",
"548 412 CURVE",
"644 444 LINE",
"620 572 OFFCURVE",
"502 662 OFFCURVE",
"362 662 CURVE SMOOTH",
"180 662 OFFCURVE",
"48 520 OFFCURVE",
"48 324 CURVE SMOOTH",
"48 130 OFFCURVE",
"182 -12 OFFCURVE",
"364 -12 CURVE SMOOTH",
"504 -12 OFFCURVE",
"628 84 OFFCURVE",
"650 220 CURVE"
);
},
{
closed = 1;
nodes = (
"541 502 OFFCURVE",
"530 513 OFFCURVE",
"530 526 CURVE SMOOTH",
"530 539 OFFCURVE",
"541 550 OFFCURVE",
"554 550 CURVE SMOOTH",
"567 550 OFFCURVE",
"578 539 OFFCURVE",
"578 526 CURVE SMOOTH",
"578 513 OFFCURVE",
"567 502 OFFCURVE",
"554 502 CURVE SMOOTH"
);
},
{
closed = 1;
nodes = (
"155 510 OFFCURVE",
"144 521 OFFCURVE",
"144 534 CURVE SMOOTH",
"144 547 OFFCURVE",
"155 558 OFFCURVE",
"168 558 CURVE SMOOTH",
"181 558 OFFCURVE",
"192 547 OFFCURVE",
"192 534 CURVE SMOOTH",
"192 521 OFFCURVE",
"181 510 OFFCURVE",
"168 510 CURVE SMOOTH"
);
},
{
closed = 1;
nodes = (
"401 55 OFFCURVE",
"413 47 OFFCURVE",
"413 33 CURVE SMOOTH",
"413 21 OFFCURVE",
"405 13 OFFCURVE",
"391 10 CURVE SMOOTH",
"375 7 OFFCURVE",
"351 7 OFFCURVE",
"335 10 CURVE SMOOTH",
"321 13 OFFCURVE",
"313 21 OFFCURVE",
"313 33 CURVE SMOOTH",
"313 47 OFFCURVE",
"325 55 OFFCURVE",
"339 53 CURVE SMOOTH",
"353 51 OFFCURVE",
"373 51 OFFCURVE",
"387 53 CURVE SMOOTH"
);
},
{
closed = 1;
nodes = (
"369 599 OFFCURVE",
"349 599 OFFCURVE",
"335 597 CURVE SMOOTH",
"321 595 OFFCURVE",
"309 603 OFFCURVE",
"309 617 CURVE SMOOTH",
"309 629 OFFCURVE",
"317 637 OFFCURVE",
"331 640 CURVE SMOOTH",
"347 643 OFFCURVE",
"371 643 OFFCURVE",
"387 640 CURVE SMOOTH",
"401 637 OFFCURVE",
"409 629 OFFCURVE",
"409 617 CURVE SMOOTH",
"409 603 OFFCURVE",
"397 595 OFFCURVE",
"383 597 CURVE SMOOTH"
);
},
{
closed = 1;
nodes = (
"118 287 OFFCURVE",
"110 275 OFFCURVE",
"96 275 CURVE SMOOTH",
"84 275 OFFCURVE",
"76 283 OFFCURVE",
"73 297 CURVE SMOOTH",
"70 313 OFFCURVE",
"70 337 OFFCURVE",
"73 353 CURVE SMOOTH",
"76 367 OFFCURVE",
"84 375 OFFCURVE",
"96 375 CURVE SMOOTH",
"110 375 OFFCURVE",
"118 363 OFFCURVE",
"116 349 CURVE SMOOTH",
"114 335 OFFCURVE",
"114 315 OFFCURVE",
"116 301 CURVE SMOOTH"
);
},
{
closed = 1;
nodes = (
"572 152 OFFCURVE",
"583 141 OFFCURVE",
"583 128 CURVE SMOOTH",
"583 115 OFFCURVE",
"572 104 OFFCURVE",
"559 104 CURVE SMOOTH",
"546 104 OFFCURVE",
"535 115 OFFCURVE",
"535 128 CURVE SMOOTH",
"535 141 OFFCURVE",
"546 152 OFFCURVE",
"559 152 CURVE SMOOTH"
);
},
{
closed = 1;
nodes = (
"185 138 OFFCURVE",
"196 127 OFFCURVE",
"196 114 CURVE SMOOTH",
"196 101 OFFCURVE",
"185 90 OFFCURVE",
"172 90 CURVE SMOOTH",
"159 90 OFFCURVE",
"148 101 OFFCURVE",
"148 114 CURVE SMOOTH",
"148 127 OFFCURVE",
"159 138 OFFCURVE",
"172 138 CURVE SMOOTH"
);
}
);
width = 682;
},
{
associatedMasterId = "516EF9F5-8A61-4DB8-B238-FB46D711CD4C";
background = {
paths = (
{
closed = 1;
nodes = (
"472 571 OFFCURVE",
"537 532 OFFCURVE",
"573 453 CURVE",
"654 497 LINE",
"597 604 OFFCURVE",
"505 657 OFFCURVE",
"379 657 CURVE SMOOTH",
"194 657 OFFCURVE",
"47 520 OFFCURVE",
"47 326 CURVE SMOOTH",
"47 131 OFFCURVE",
"191 -9 OFFCURVE",
"379 -9 CURVE SMOOTH",
"496 -9 OFFCURVE",
"598 49 OFFCURVE",
"658 151 CURVE",
"578 194 LINE",
"539 118 OFFCURVE",
"465 77 OFFCURVE",
"379 77 CURVE SMOOTH",
"245 77 OFFCURVE",
"143 179 OFFCURVE",
"143 325 CURVE SMOOTH",
"143 471 OFFCURVE",
"241 571 OFFCURVE",
"379 571 CURVE SMOOTH"
);
}
);
};
layerId = "362192AC-11FF-4B23-9B60-5A3EBA8CE117";
name = "Jan 30 18, 21:55";
paths = (
{
closed = 1;
nodes = (
"661 489 LINE",
"635 628 OFFCURVE",
"528 710 OFFCURVE",
"373 710 CURVE SMOOTH",
"166 710 OFFCURVE",
"44 576 OFFCURVE",
"44 350 CURVE SMOOTH",
"44 124 OFFCURVE",
"167 -10 OFFCURVE",
"375 -10 CURVE SMOOTH",
"535 -10 OFFCURVE",
"643 72 OFFCURVE",
"667 212 CURVE",
"583 235 LINE",
"562 136 OFFCURVE",
"483 78 OFFCURVE",
"371 78 CURVE SMOOTH",
"220 78 OFFCURVE",
"130 180 OFFCURVE",
"130 353 CURVE SMOOTH",
"130 522 OFFCURVE",
"219 622 OFFCURVE",
"369 622 CURVE SMOOTH",
"480 622 OFFCURVE",
"558 563 OFFCURVE",
"579 463 CURVE"
);
}
);
width = 723;
},
{
associatedMasterId = "516EF9F5-8A61-4DB8-B238-FB46D711CD4C";
background = {
paths = (
{
closed = 1;
nodes = (
"475 570 OFFCURVE",
"540 531 OFFCURVE",
"575 452 CURVE",
"657 495 LINE",
"599 602 OFFCURVE",
"508 656 OFFCURVE",
"382 656 CURVE SMOOTH",
"198 656 OFFCURVE",
"51 519 OFFCURVE",
"51 325 CURVE SMOOTH",
"51 131 OFFCURVE",
"194 -9 OFFCURVE",
"382 -9 CURVE SMOOTH",
"499 -9 OFFCURVE",
"601 49 OFFCURVE",
"661 150 CURVE",
"581 194 LINE",
"542 118 OFFCURVE",
"468 76 OFFCURVE",
"382 76 CURVE SMOOTH",
"248 76 OFFCURVE",
"147 178 OFFCURVE",
"147 324 CURVE SMOOTH",
"147 470 OFFCURVE",
"245 570 OFFCURVE",
"382 570 CURVE SMOOTH"
);
}
);
};
layerId = "BB052611-FF53-4B91-B0A3-9BB07C5ACE36";
name = "Aug 1 18, 20:35";
paths = (
{
closed = 1;
nodes = (
"656 438 LINE",
"636 566 OFFCURVE",
"521 662 OFFCURVE",
"369 662 CURVE SMOOTH",
"179 662 OFFCURVE",
"44 518 OFFCURVE",
"44 324 CURVE SMOOTH",
"44 128 OFFCURVE",
"185 -12 OFFCURVE",
"377 -12 CURVE SMOOTH",
"535 -12 OFFCURVE",
"654 95 OFFCURVE",
"666 239 CURVE",
"584 251 LINE",
"576 149 OFFCURVE",
"493 72 OFFCURVE",
"373 72 CURVE SMOOTH",
"231 72 OFFCURVE",
"130 177 OFFCURVE",
"130 325 CURVE SMOOTH",
"130 473 OFFCURVE",
"229 580 OFFCURVE",
"369 580 CURVE SMOOTH",
"479 580 OFFCURVE",
"560 514 OFFCURVE",
"576 418 CURVE"
);
}
);
width = 706;
}
);
leftMetricsKey = O;
unicode = 0043;
},
{
glyphname = D;
lastChange = "2019-11-01 10:54:20 +0000";
layers = (
{
background = {
hints = (
{
horizontal = 1;
place = "{0, 86}";
type = Stem;
},
{
horizontal = 1;
place = "{636, 86}";
type = Stem;
},
{
place = "{77, 96}";
type = Stem;
},
{
place = "{599, 99}";
type = Stem;
}
);
paths = (
{
closed = 1;
nodes = (
"68 0 LINE",
"150 0 LINE",
"150 650 LINE",
"68 650 LINE"
);
},
{
closed = 1;
nodes = (
"150 570 LINE",
"308 570 LINE",
"444 570 OFFCURVE",
"540 465 OFFCURVE",
"540 325 CURVE SMOOTH",
"540 185 OFFCURVE",
"444 82 OFFCURVE",
"308 82 CURVE",
"150 82 LINE",
"150 0 LINE",
"316 0 LINE",
"496 0 OFFCURVE",
"628 135 OFFCURVE",
"628 325 CURVE SMOOTH",
"628 515 OFFCURVE",
"496 650 OFFCURVE",
"316 650 CURVE",
"150 650 LINE"
);
}
);
};
layerId = "8007C042-6FBA-4E49-99B8-8B738A4EBE86";
paths = (
{
closed = 1;
nodes = (
"68 0 LINE",
"150 0 LINE",
"150 650 LINE",
"68 650 LINE"
);
},
{
closed = 1;
nodes = (
"150 570 LINE",
"308 570 LINE",
"444 570 OFFCURVE",
"540 465 OFFCURVE",
"540 325 CURVE SMOOTH",
"540 185 OFFCURVE",
"444 82 OFFCURVE",
"308 82 CURVE",
"150 82 LINE",
"150 0 LINE",
"316 0 LINE",
"496 0 OFFCURVE",
"628 135 OFFCURVE",
"628 325 CURVE SMOOTH",
"628 515 OFFCURVE",
"496 650 OFFCURVE",
"316 650 CURVE",
"150 650 LINE"
);
}
);
width = 676;
},
{
background = {
paths = (
{
closed = 1;
nodes = (
"68 0 LINE",
"150 0 LINE",
"150 650 LINE",
"68 650 LINE"
);
},
{
closed = 1;
nodes = (
"150 570 LINE",
"308 570 LINE",
"444 570 OFFCURVE",
"540 465 OFFCURVE",
"540 325 CURVE SMOOTH",
"540 185 OFFCURVE",
"444 82 OFFCURVE",
"308 82 CURVE",
"150 82 LINE",
"150 0 LINE",
"316 0 LINE",
"496 0 OFFCURVE",
"628 135 OFFCURVE",
"628 325 CURVE SMOOTH",
"628 515 OFFCURVE",
"496 650 OFFCURVE",
"316 650 CURVE",
"150 650 LINE"
);
}
);
};
layerId = "516EF9F5-8A61-4DB8-B238-FB46D711CD4C";
paths = (
{
closed = 1;
nodes = (
"316 0 LINE SMOOTH",
"496 0 OFFCURVE",
"628 135 OFFCURVE",
"628 325 CURVE SMOOTH",
"628 515 OFFCURVE",
"496 650 OFFCURVE",
"316 650 CURVE SMOOTH",
"68 650 LINE",
"68 0 LINE"
);
},
{
closed = 1;
nodes = (
"118 87 OFFCURVE",
"129 98 OFFCURVE",
"142 98 CURVE SMOOTH",
"147 98 OFFCURVE",
"150 101 OFFCURVE",
"150 106 CURVE SMOOTH",
"150 546 LINE SMOOTH",
"150 551 OFFCURVE",
"147 554 OFFCURVE",
"142 554 CURVE SMOOTH",
"129 554 OFFCURVE",
"118 565 OFFCURVE",
"118 578 CURVE SMOOTH",
"118 591 OFFCURVE",
"129 602 OFFCURVE",
"142 602 CURVE SMOOTH",
"155 602 OFFCURVE",
"166 591 OFFCURVE",
"166 578 CURVE SMOOTH",
"166 573 OFFCURVE",
"169 570 OFFCURVE",
"174 570 CURVE SMOOTH",
"308 570 LINE SMOOTH",
"444 570 OFFCURVE",
"540 465 OFFCURVE",
"540 325 CURVE SMOOTH",
"540 185 OFFCURVE",
"444 82 OFFCURVE",
"308 82 CURVE SMOOTH",
"174 82 LINE SMOOTH",
"169 82 OFFCURVE",
"166 79 OFFCURVE",
"166 74 CURVE SMOOTH",
"166 61 OFFCURVE",
"155 50 OFFCURVE",
"142 50 CURVE SMOOTH",
"129 50 OFFCURVE",
"118 61 OFFCURVE",
"118 74 CURVE SMOOTH"
);
},
{
closed = 1;
nodes = (
"476 127 OFFCURVE",
"487 138 OFFCURVE",
"500 138 CURVE SMOOTH",
"513 138 OFFCURVE",
"524 127 OFFCURVE",
"524 114 CURVE SMOOTH",
"524 101 OFFCURVE",
"513 90 OFFCURVE",
"500 90 CURVE SMOOTH",
"487 90 OFFCURVE",
"476 101 OFFCURVE",
"476 114 CURVE SMOOTH"
);
},
{
closed = 1;
nodes = (
"476 547 OFFCURVE",
"487 558 OFFCURVE",
"500 558 CURVE SMOOTH",
"513 558 OFFCURVE",
"524 547 OFFCURVE",
"524 534 CURVE SMOOTH",
"524 521 OFFCURVE",
"513 510 OFFCURVE",
"500 510 CURVE SMOOTH",
"487 510 OFFCURVE",
"476 521 OFFCURVE",
"476 534 CURVE SMOOTH"
);
},
{
closed = 1;
nodes = (
"562 315 OFFCURVE",
"562 335 OFFCURVE",
"560 349 CURVE SMOOTH",
"558 363 OFFCURVE",
"566 375 OFFCURVE",
"580 375 CURVE SMOOTH",
"592 375 OFFCURVE",
"600 367 OFFCURVE",
"603 353 CURVE SMOOTH",
"606 337 OFFCURVE",
"606 313 OFFCURVE",
"603 297 CURVE SMOOTH",
"600 283 OFFCURVE",
"592 275 OFFCURVE",
"580 275 CURVE SMOOTH",
"566 275 OFFCURVE",
"558 287 OFFCURVE",
"560 301 CURVE SMOOTH"
);
},
{
closed = 1;
nodes = (
"326 66 OFFCURVE",
"336 56 OFFCURVE",
"336 42 CURVE SMOOTH",
"336 28 OFFCURVE",
"326 18 OFFCURVE",
"312 18 CURVE SMOOTH",
"264 18 LINE SMOOTH",
"250 18 OFFCURVE",
"240 28 OFFCURVE",
"240 42 CURVE SMOOTH",
"240 56 OFFCURVE",
"250 66 OFFCURVE",
"264 66 CURVE SMOOTH",
"312 66 LINE SMOOTH"
);
},
{
closed = 1;
nodes = (
"326 634 OFFCURVE",
"336 624 OFFCURVE",
"336 610 CURVE SMOOTH",
"336 596 OFFCURVE",
"326 586 OFFCURVE",
"312 586 CURVE SMOOTH",
"264 586 LINE SMOOTH",
"250 586 OFFCURVE",
"240 596 OFFCURVE",
"240 610 CURVE SMOOTH",
"240 624 OFFCURVE",
"250 634 OFFCURVE",
"264 634 CURVE SMOOTH",
"312 634 LINE SMOOTH"
);
},
{
closed = 1;
nodes = (
"85 368 OFFCURVE",
"95 378 OFFCURVE",
"109 378 CURVE SMOOTH",
"123 378 OFFCURVE",
"133 368 OFFCURVE",
"133 354 CURVE SMOOTH",
"133 252 LINE SMOOTH",
"133 238 OFFCURVE",
"123 228 OFFCURVE",
"109 228 CURVE SMOOTH",
"95 228 OFFCURVE",
"85 238 OFFCURVE",
"85 252 CURVE SMOOTH",
"85 354 LINE SMOOTH"
);
}
);
width = 676;
}
);
leftMetricsKey = l;
rightKerningGroup = O;
rightMetricsKey = O;
unicode = 0044;
},
{
glyphname = E;
lastChange = "2019-10-26 17:44:41 +0000";
layers = (
{
background = {
hints = (
{
horizontal = 1;
place = "{0, 86}";
type = Stem;
},
{
horizontal = 1;
place = "{319, 84}";
type = Stem;
},
{
horizontal = 1;
place = "{636, 86}";
type = Stem;
},
{
place = "{77, 96}";
type = Stem;
}
);
paths = (
{
closed = 1;
nodes = (
"68 0 LINE",
"150 0 LINE",
"150 650 LINE",
"68 650 LINE"
);
},
{
closed = 1;
nodes = (
"150 572 LINE",
"524 572 LINE",
"524 650 LINE",
"150 650 LINE"
);
},
{
closed = 1;
nodes = (
"150 0 LINE",
"528 0 LINE",
"528 80 LINE",
"150 80 LINE"
);
},
{
closed = 1;
nodes = (
"150 287 LINE",
"472 287 LINE",
"472 366 LINE",
"150 366 LINE"
);
}
);
};
layerId = "8007C042-6FBA-4E49-99B8-8B738A4EBE86";
paths = (
{
closed = 1;
nodes = (
"68 0 LINE",
"150 0 LINE",
"150 650 LINE",
"68 650 LINE"
);
},
{
closed = 1;
nodes = (
"150 572 LINE",
"524 572 LINE",
"524 650 LINE",
"150 650 LINE"
);
},
{
closed = 1;
nodes = (
"150 0 LINE",
"528 0 LINE",
"528 80 LINE",
"150 80 LINE"
);
},
{
closed = 1;
nodes = (
"150 287 LINE",
"472 287 LINE",
"472 366 LINE",
"150 366 LINE"
);
}
);
width = 552;
},
{
background = {
paths = (
{
closed = 1;
nodes = (
"68 0 LINE",
"150 0 LINE",
"150 650 LINE",
"68 650 LINE"
);
},
{
closed = 1;
nodes = (
"150 572 LINE",
"524 572 LINE",
"524 650 LINE",
"150 650 LINE"
);
},
{
closed = 1;
nodes = (
"150 0 LINE",
"528 0 LINE",
"528 80 LINE",
"150 80 LINE"
);
},
{
closed = 1;
nodes = (
"150 287 LINE",
"472 287 LINE",
"472 366 LINE",
"150 366 LINE"
);
}
);
};
layerId = "516EF9F5-8A61-4DB8-B238-FB46D711CD4C";
paths = (
{
closed = 1;
nodes = (
"528 0 LINE",
"528 80 LINE",
"174 80 LINE SMOOTH",
"169 80 OFFCURVE",
"166 77 OFFCURVE",
"166 72 CURVE SMOOTH",
"166 59 OFFCURVE",
"155 48 OFFCURVE",
"142 48 CURVE SMOOTH",
"129 48 OFFCURVE",
"118 59 OFFCURVE",
"118 72 CURVE SMOOTH",
"118 85 OFFCURVE",
"129 96 OFFCURVE",
"142 96 CURVE SMOOTH",
"147 96 OFFCURVE",
"150 99 OFFCURVE",
"150 104 CURVE SMOOTH",
"150 263 LINE SMOOTH",
"150 268 OFFCURVE",
"147 271 OFFCURVE",
"142 271 CURVE SMOOTH",
"129 271 OFFCURVE",
"118 282 OFFCURVE",
"118 295 CURVE SMOOTH",
"118 308 OFFCURVE",
"129 319 OFFCURVE",
"142 319 CURVE SMOOTH",
"155 319 OFFCURVE",
"166 308 OFFCURVE",
"166 295 CURVE SMOOTH",
"166 290 OFFCURVE",
"169 287 OFFCURVE",
"174 287 CURVE SMOOTH",
"472 287 LINE",
"472 366 LINE",
"174 366 LINE SMOOTH",
"169 366 OFFCURVE",
"166 363 OFFCURVE",
"166 358 CURVE SMOOTH",
"166 345 OFFCURVE",
"155 334 OFFCURVE",
"142 334 CURVE SMOOTH",
"129 334 OFFCURVE",
"118 345 OFFCURVE",
"118 358 CURVE SMOOTH",
"118 371 OFFCURVE",
"129 382 OFFCURVE",
"142 382 CURVE SMOOTH",
"147 382 OFFCURVE",
"150 385 OFFCURVE",
"150 390 CURVE SMOOTH",
"150 548 LINE SMOOTH",
"150 553 OFFCURVE",
"147 556 OFFCURVE",
"142 556 CURVE SMOOTH",
"129 556 OFFCURVE",
"118 567 OFFCURVE",
"118 580 CURVE SMOOTH",
"118 593 OFFCURVE",
"129 604 OFFCURVE",
"142 604 CURVE SMOOTH",
"155 604 OFFCURVE",
"166 593 OFFCURVE",
"166 580 CURVE SMOOTH",
"166 575 OFFCURVE",
"169 572 OFFCURVE",
"174 572 CURVE SMOOTH",
"524 572 LINE",
"524 650 LINE",
"68 650 LINE",
"68 0 LINE"
);
},
{
closed = 1;
nodes = (
"501 27 OFFCURVE",
"491 17 OFFCURVE",
"477 17 CURVE SMOOTH",
"463 17 OFFCURVE",
"453 27 OFFCURVE",
"453 41 CURVE SMOOTH",
"453 55 OFFCURVE",
"463 65 OFFCURVE",
"477 65 CURVE SMOOTH",
"491 65 OFFCURVE",
"501 55 OFFCURVE",
"501 41 CURVE SMOOTH"
);
},
{
closed = 1;
nodes = (
"497 597 OFFCURVE",
"487 587 OFFCURVE",
"473 587 CURVE SMOOTH",
"459 587 OFFCURVE",
"449 597 OFFCURVE",
"449 611 CURVE SMOOTH",
"449 625 OFFCURVE",
"459 635 OFFCURVE",
"473 635 CURVE SMOOTH",
"487 635 OFFCURVE",
"497 625 OFFCURVE",
"497 611 CURVE SMOOTH"
);
},
{
closed = 1;
nodes = (
"435 351 OFFCURVE",
"445 341 OFFCURVE",
"445 327 CURVE SMOOTH",
"445 313 OFFCURVE",
"435 303 OFFCURVE",
"421 303 CURVE SMOOTH",
"373 303 LINE SMOOTH",
"359 303 OFFCURVE",
"349 313 OFFCURVE",
"349 327 CURVE SMOOTH",
"349 341 OFFCURVE",
"359 351 OFFCURVE",
"373 351 CURVE SMOOTH",
"421 351 LINE SMOOTH"
);
},
{
closed = 1;
nodes = (
"372 65 OFFCURVE",
"382 55 OFFCURVE",
"382 41 CURVE SMOOTH",
"382 27 OFFCURVE",
"372 17 OFFCURVE",
"358 17 CURVE SMOOTH",
"256 17 LINE SMOOTH",
"242 17 OFFCURVE",
"232 27 OFFCURVE",
"232 41 CURVE SMOOTH",
"232 55 OFFCURVE",
"242 65 OFFCURVE",
"256 65 CURVE SMOOTH",
"358 65 LINE SMOOTH"
);
},
{
closed = 1;
nodes = (
"368 635 OFFCURVE",
"378 625 OFFCURVE",
"378 611 CURVE SMOOTH",
"378 597 OFFCURVE",
"368 587 OFFCURVE",
"354 587 CURVE SMOOTH",
"252 587 LINE SMOOTH",
"238 587 OFFCURVE",
"228 597 OFFCURVE",
"228 611 CURVE SMOOTH",
"228 625 OFFCURVE",
"238 635 OFFCURVE",
"252 635 CURVE SMOOTH",
"354 635 LINE SMOOTH"
);
}
);
width = 552;
}
);
leftMetricsKey = l;
unicode = 0045;
},
{
glyphname = F;
lastChange = "2019-10-26 20:08:22 +0000";
layers = (
{
background = {
hints = (
{
horizontal = 1;
place = "{0, 21}";
target = up;
type = BottomGhost;
},
{
horizontal = 1;
place = "{319, 84}";
type = Stem;
},
{
horizontal = 1;
place = "{636, 86}";
type = Stem;
},
{
place = "{77, 96}";
type = Stem;
}
);
paths = (
{
closed = 1;
nodes = (
"68 0 LINE",
"150 0 LINE",
"150 650 LINE",
"68 650 LINE"
);
},
{
closed = 1;
nodes = (
"150 572 LINE",
"508 572 LINE",
"508 650 LINE",
"150 650 LINE"
);
},
{
closed = 1;
nodes = (
"150 271 LINE",
"464 271 LINE",
"464 351 LINE",
"150 351 LINE"
);
}
);
};
layerId = "8007C042-6FBA-4E49-99B8-8B738A4EBE86";
paths = (
{
closed = 1;
nodes = (
"68 0 LINE",
"150 0 LINE",
"150 650 LINE",
"68 650 LINE"
);
},
{
closed = 1;
nodes = (
"150 572 LINE",
"508 572 LINE",
"508 650 LINE",
"150 650 LINE"
);
},
{
closed = 1;
nodes = (
"150 271 LINE",
"464 271 LINE",
"464 351 LINE",
"150 351 LINE"
);
}
);
width = 520;
},
{
background = {
paths = (
{
closed = 1;
nodes = (
"68 0 LINE",
"150 0 LINE",
"150 650 LINE",
"68 650 LINE"
);
},
{
closed = 1;
nodes = (
"150 572 LINE",
"508 572 LINE",
"508 650 LINE",
"150 650 LINE"
);
},
{
closed = 1;
nodes = (
"150 271 LINE",
"464 271 LINE",
"464 351 LINE",
"150 351 LINE"
);
}
);
};
layerId = "516EF9F5-8A61-4DB8-B238-FB46D711CD4C";
paths = (
{
closed = 1;
nodes = (
"150 0 LINE",
"150 247 LINE SMOOTH",
"150 252 OFFCURVE",
"147 255 OFFCURVE",
"142 255 CURVE SMOOTH",
"129 255 OFFCURVE",
"118 266 OFFCURVE",
"118 279 CURVE SMOOTH",
"118 292 OFFCURVE",
"129 303 OFFCURVE",
"142 303 CURVE SMOOTH",
"155 303 OFFCURVE",
"166 292 OFFCURVE",
"166 279 CURVE SMOOTH",
"166 274 OFFCURVE",
"169 271 OFFCURVE",
"174 271 CURVE SMOOTH",
"464 271 LINE",
"464 351 LINE",
"174 351 LINE SMOOTH",
"169 351 OFFCURVE",
"166 348 OFFCURVE",
"166 343 CURVE SMOOTH",
"166 330 OFFCURVE",
"155 319 OFFCURVE",
"142 319 CURVE SMOOTH",
"129 319 OFFCURVE",
"118 330 OFFCURVE",
"118 343 CURVE SMOOTH",
"118 356 OFFCURVE",
"129 367 OFFCURVE",
"142 367 CURVE SMOOTH",
"147 367 OFFCURVE",
"150 370 OFFCURVE",
"150 375 CURVE SMOOTH",
"150 548 LINE SMOOTH",
"150 553 OFFCURVE",
"147 556 OFFCURVE",
"142 556 CURVE SMOOTH",
"129 556 OFFCURVE",
"118 567 OFFCURVE",
"118 580 CURVE SMOOTH",
"118 593 OFFCURVE",
"129 604 OFFCURVE",
"142 604 CURVE SMOOTH",
"155 604 OFFCURVE",
"166 593 OFFCURVE",
"166 580 CURVE SMOOTH",
"166 575 OFFCURVE",
"169 572 OFFCURVE",
"174 572 CURVE SMOOTH",
"508 572 LINE",
"508 650 LINE",
"68 650 LINE",
"68 0 LINE"
);
},
{
closed = 1;
nodes = (
"481 597 OFFCURVE",
"471 587 OFFCURVE",
"457 587 CURVE SMOOTH",
"443 587 OFFCURVE",
"433 597 OFFCURVE",
"433 611 CURVE SMOOTH",
"433 625 OFFCURVE",
"443 635 OFFCURVE",
"457 635 CURVE SMOOTH",
"471 635 OFFCURVE",
"481 625 OFFCURVE",
"481 611 CURVE SMOOTH"
);
},
{
closed = 1;
nodes = (
"352 635 OFFCURVE",
"362 625 OFFCURVE",
"362 611 CURVE SMOOTH",
"362 597 OFFCURVE",
"352 587 OFFCURVE",
"338 587 CURVE SMOOTH",
"290 587 LINE SMOOTH",
"276 587 OFFCURVE",
"266 597 OFFCURVE",
"266 611 CURVE SMOOTH",
"266 625 OFFCURVE",
"276 635 OFFCURVE",
"290 635 CURVE SMOOTH",
"338 635 LINE SMOOTH"
);
},
{
closed = 1;
nodes = (
"85 113 OFFCURVE",
"95 123 OFFCURVE",
"109 123 CURVE SMOOTH",
"123 123 OFFCURVE",
"133 113 OFFCURVE",
"133 99 CURVE SMOOTH",
"133 51 LINE SMOOTH",
"133 37 OFFCURVE",
"123 27 OFFCURVE",
"109 27 CURVE SMOOTH",
"95 27 OFFCURVE",
"85 37 OFFCURVE",
"85 51 CURVE SMOOTH",
"85 99 LINE SMOOTH"
);
},
{
closed = 1;
nodes = (
"427 335 OFFCURVE",
"437 325 OFFCURVE",
"437 311 CURVE SMOOTH",
"437 297 OFFCURVE",
"427 287 OFFCURVE",
"413 287 CURVE SMOOTH",
"365 287 LINE SMOOTH",
"351 287 OFFCURVE",
"341 297 OFFCURVE",
"341 311 CURVE SMOOTH",
"341 325 OFFCURVE",
"351 335 OFFCURVE",
"365 335 CURVE SMOOTH",
"413 335 LINE SMOOTH"
);
}
);
width = 520;
}
);
leftMetricsKey = l;
unicode = 0046;
},
{
glyphname = G;
lastChange = "2019-11-01 10:54:30 +0000";
layers = (
{
background = {
hints = (
{
horizontal = 1;
place = "{-15, 89}";
type = Stem;
},
{
horizontal = 1;
place = "{251, 88}";
type = Stem;
},
{
horizontal = 1;
place = "{634, 90}";
type = Stem;
},
{
place = "{45, 100}";
type = Stem;
}
);
paths = (
{
closed = 1;
nodes = (
"657 450 LINE",
"637 574 OFFCURVE",
"519 662 OFFCURVE",
"373 662 CURVE SMOOTH",
"185 662 OFFCURVE",
"48 521 OFFCURVE",
"48 325 CURVE SMOOTH",
"48 129 OFFCURVE",
"187 -12 OFFCURVE",
"375 -12 CURVE SMOOTH",
"511 -12 OFFCURVE",
"612 80 OFFCURVE",
"616 204 CURVE",
"588 240 LINE",
"584 144 OFFCURVE",
"497 72 OFFCURVE",
"373 72 CURVE SMOOTH",
"235 72 OFFCURVE",
"134 179 OFFCURVE",
"134 325 CURVE SMOOTH",
"134 471 OFFCURVE",
"237 580 OFFCURVE",
"373 580 CURVE SMOOTH",
"475 580 OFFCURVE",
"553 514 OFFCURVE",
"565 422 CURVE"
);
},
{
closed = 1;
nodes = (
"296 276 LINE",
"588 276 LINE",
"588 240 LINE",
"606 184 LINE",
"626 0 LINE",
"682 0 LINE",
"662 355 LINE",
"296 355 LINE"
);
}
);
};
layerId = "8007C042-6FBA-4E49-99B8-8B738A4EBE86";
paths = (
{
closed = 1;
nodes = (
"655 450 LINE",
"635 574 OFFCURVE",
"511 662 OFFCURVE",
"367 662 CURVE SMOOTH",
"183 662 OFFCURVE",
"48 521 OFFCURVE",
"48 325 CURVE SMOOTH",
"48 129 OFFCURVE",
"185 -12 OFFCURVE",
"369 -12 CURVE SMOOTH",
"505 -12 OFFCURVE",
"608 88 OFFCURVE",
"608 212 CURVE",
"580 240 LINE",
"572 144 OFFCURVE",
"485 72 OFFCURVE",
"369 72 CURVE SMOOTH",
"233 72 OFFCURVE",
"134 180 OFFCURVE",
"134 326 CURVE SMOOTH",
"134 472 OFFCURVE",
"231 580 OFFCURVE",
"365 580 CURVE SMOOTH",
"465 580 OFFCURVE",
"547 512 OFFCURVE",
"559 422 CURVE"
);
},
{
closed = 1;
nodes = (
"288 276 LINE",
"580 276 LINE",
"580 240 LINE",
"598 184 LINE",
"618 0 LINE",
"674 0 LINE",
"654 355 LINE",
"288 355 LINE"
);
}
);
width = 714;
},
{
background = {
paths = (
{
closed = 1;
nodes = (
"657 450 LINE",
"637 574 OFFCURVE",
"519 662 OFFCURVE",
"373 662 CURVE SMOOTH",
"185 662 OFFCURVE",
"48 521 OFFCURVE",
"48 325 CURVE SMOOTH",
"48 129 OFFCURVE",
"187 -12 OFFCURVE",
"375 -12 CURVE SMOOTH",
"511 -12 OFFCURVE",
"612 80 OFFCURVE",
"616 204 CURVE",
"588 240 LINE",
"584 144 OFFCURVE",
"497 72 OFFCURVE",
"373 72 CURVE SMOOTH",
"235 72 OFFCURVE",
"134 179 OFFCURVE",
"134 325 CURVE SMOOTH",
"134 471 OFFCURVE",
"237 580 OFFCURVE",
"373 580 CURVE SMOOTH",
"475 580 OFFCURVE",
"553 514 OFFCURVE",
"565 422 CURVE"
);
},
{
closed = 1;
nodes = (
"296 276 LINE",
"588 276 LINE",
"588 240 LINE",
"606 184 LINE",
"626 0 LINE",
"682 0 LINE",
"662 355 LINE",
"296 355 LINE"
);
}
);
};
layerId = "516EF9F5-8A61-4DB8-B238-FB46D711CD4C";
paths = (
{
closed = 1;
nodes = (
"48 129 OFFCURVE",
"185 -12 OFFCURVE",
"369 -12 CURVE SMOOTH",
"468 -12 OFFCURVE",
"545 43 OFFCURVE",
"586 117 CURVE SMOOTH",
"589 122 OFFCURVE",
"590 126 OFFCURVE",
"590 133 CURVE SMOOTH",
"590 146 LINE SMOOTH",
"590 160 OFFCURVE",
"600 170 OFFCURVE",
"614 170 CURVE SMOOTH",
"628 170 OFFCURVE",
"638 160 OFFCURVE",
"638 146 CURVE SMOOTH",
"638 132 OFFCURVE",
"628 122 OFFCURVE",
"614 122 CURVE SMOOTH",
"609 122 OFFCURVE",
"606 118 OFFCURVE",
"606 114 CURVE SMOOTH",
"618 0 LINE",
"674 0 LINE",
"654 355 LINE",
"288 355 LINE",
"288 276 LINE",
"556 276 LINE SMOOTH",
"561 276 OFFCURVE",
"564 279 OFFCURVE",
"564 284 CURVE SMOOTH",
"564 297 OFFCURVE",
"575 308 OFFCURVE",
"588 308 CURVE SMOOTH",
"601 308 OFFCURVE",
"612 297 OFFCURVE",
"612 284 CURVE SMOOTH",
"612 271 OFFCURVE",
"601 260 OFFCURVE",
"588 260 CURVE SMOOTH",
"583 260 OFFCURVE",
"580 257 OFFCURVE",
"580 252 CURVE SMOOTH",
"580 240 LINE",
"572 144 OFFCURVE",
"485 72 OFFCURVE",
"369 72 CURVE SMOOTH",
"233 72 OFFCURVE",
"134 180 OFFCURVE",
"134 326 CURVE SMOOTH",
"134 472 OFFCURVE",
"231 580 OFFCURVE",
"365 580 CURVE SMOOTH",
"465 580 OFFCURVE",
"547 512 OFFCURVE",
"559 422 CURVE",
"655 450 LINE",
"635 574 OFFCURVE",
"511 662 OFFCURVE",
"367 662 CURVE SMOOTH",
"183 662 OFFCURVE",
"48 521 OFFCURVE",
"48 325 CURVE SMOOTH"
);
},
{
closed = 1;
nodes = (
"70 315 OFFCURVE",
"70 337 OFFCURVE",
"73 353 CURVE SMOOTH",
"76 367 OFFCURVE",
"84 375 OFFCURVE",
"96 375 CURVE SMOOTH",
"110 375 OFFCURVE",
"118 363 OFFCURVE",
"116 349 CURVE SMOOTH",
"114 333 OFFCURVE",
"114 319 OFFCURVE",
"116 303 CURVE SMOOTH",
"118 289 OFFCURVE",
"110 277 OFFCURVE",
"96 277 CURVE SMOOTH",
"84 277 OFFCURVE",
"76 285 OFFCURVE",
"73 299 CURVE SMOOTH"
);
},
{
closed = 1;
nodes = (
"144 547 OFFCURVE",
"155 558 OFFCURVE",
"168 558 CURVE SMOOTH",
"181 558 OFFCURVE",
"192 547 OFFCURVE",
"192 534 CURVE SMOOTH",
"192 521 OFFCURVE",
"181 510 OFFCURVE",
"168 510 CURVE SMOOTH",
"155 510 OFFCURVE",
"144 521 OFFCURVE",
"144 534 CURVE SMOOTH"
);
},
{
closed = 1;
nodes = (
"147 127 OFFCURVE",
"158 138 OFFCURVE",
"171 138 CURVE SMOOTH",
"184 138 OFFCURVE",
"195 127 OFFCURVE",
"195 114 CURVE SMOOTH",
"195 101 OFFCURVE",
"184 90 OFFCURVE",
"171 90 CURVE SMOOTH",
"158 90 OFFCURVE",
"147 101 OFFCURVE",
"147 114 CURVE SMOOTH"
);
},
{
closed = 1;
nodes = (
"315 330 OFFCURVE",
"325 340 OFFCURVE",
"339 340 CURVE SMOOTH",
"387 340 LINE SMOOTH",
"401 340 OFFCURVE",
"411 330 OFFCURVE",
"411 316 CURVE SMOOTH",
"411 302 OFFCURVE",
"401 292 OFFCURVE",
"387 292 CURVE SMOOTH",
"339 292 LINE SMOOTH",
"325 292 OFFCURVE",
"315 302 OFFCURVE",
"315 316 CURVE SMOOTH"
);
},
{
closed = 1;
nodes = (
"315 629 OFFCURVE",
"323 637 OFFCURVE",
"337 640 CURVE SMOOTH",
"353 643 OFFCURVE",
"377 643 OFFCURVE",
"393 640 CURVE SMOOTH",
"407 637 OFFCURVE",
"415 629 OFFCURVE",
"415 617 CURVE SMOOTH",
"415 603 OFFCURVE",
"403 595 OFFCURVE",
"389 597 CURVE SMOOTH",
"375 599 OFFCURVE",
"355 599 OFFCURVE",
"341 597 CURVE SMOOTH",
"327 595 OFFCURVE",
"315 603 OFFCURVE",
"315 617 CURVE SMOOTH"
);
},
{
closed = 1;
nodes = (
"319 47 OFFCURVE",
"331 55 OFFCURVE",
"345 53 CURVE SMOOTH",
"359 51 OFFCURVE",
"379 51 OFFCURVE",
"393 53 CURVE SMOOTH",
"407 55 OFFCURVE",
"419 47 OFFCURVE",
"419 33 CURVE SMOOTH",
"419 21 OFFCURVE",
"411 13 OFFCURVE",
"397 10 CURVE SMOOTH",
"381 7 OFFCURVE",
"357 7 OFFCURVE",
"341 10 CURVE SMOOTH",
"327 13 OFFCURVE",
"319 21 OFFCURVE",
"319 33 CURVE SMOOTH"
);
},
{
closed = 1;
nodes = (
"554 502 OFFCURVE",
"543 513 OFFCURVE",
"543 526 CURVE SMOOTH",
"543 539 OFFCURVE",
"554 550 OFFCURVE",
"567 550 CURVE SMOOTH",
"580 550 OFFCURVE",
"591 539 OFFCURVE",
"591 526 CURVE SMOOTH",
"591 513 OFFCURVE",
"580 502 OFFCURVE",
"567 502 CURVE SMOOTH"
);
}
);
width = 714;
}
);
leftMetricsKey = O;
unicode = 0047;
},
{
glyphname = H;
lastChange = "2019-10-27 14:43:01 +0000";
layers = (
{
background = {
hints = (
{
horizontal = 1;
place = "{0, 21}";
target = up;
type = BottomGhost;
},
{
horizontal = 1;
place = "{318, 86}";
type = Stem;
},
{
horizontal = 1;
place = "{722, -20}";
target = down;
type = TopGhost;
},
{
place = "{77, 96}";
type = Stem;
},
{
place = "{570, 96}";
type = Stem;
}
);
paths = (
{
closed = 1;
nodes = (
"68 0 LINE",
"150 0 LINE",
"150 650 LINE",
"68 650 LINE"
);
},
{
closed = 1;
nodes = (
"510 0 LINE",
"592 0 LINE",
"592 650 LINE",
"510 650 LINE"
);
},
{
closed = 1;
nodes = (
"150 367 LINE",
"150 288 LINE",
"510 288 LINE",
"510 367 LINE"
);
}
);
};
layerId = "8007C042-6FBA-4E49-99B8-8B738A4EBE86";
paths = (
{
closed = 1;
nodes = (
"68 0 LINE",
"150 0 LINE",
"150 650 LINE",
"68 650 LINE"
);
},
{
closed = 1;
nodes = (
"518 0 LINE",
"600 0 LINE",
"600 650 LINE",
"518 650 LINE"
);
},
{
closed = 1;
nodes = (
"150 367 LINE",
"150 288 LINE",
"518 288 LINE",
"518 367 LINE"
);
}
);
width = 668;
},
{
background = {
paths = (
{
closed = 1;
nodes = (
"68 0 LINE",
"150 0 LINE",
"150 650 LINE",
"68 650 LINE"
);
},
{
closed = 1;
nodes = (
"510 0 LINE",
"592 0 LINE",
"592 650 LINE",
"510 650 LINE"
);
},
{
closed = 1;
nodes = (
"150 367 LINE",
"150 288 LINE",
"510 288 LINE",
"510 367 LINE"
);
}
);
};
layerId = "516EF9F5-8A61-4DB8-B238-FB46D711CD4C";
paths = (
{
closed = 1;
nodes = (
"68 650 LINE",
"150 650 LINE",
"150 391 LINE SMOOTH",
"150 386 OFFCURVE",
"147 383 OFFCURVE",
"142 383 CURVE SMOOTH",
"129 383 OFFCURVE",
"118 372 OFFCURVE",
"118 359 CURVE SMOOTH",
"118 346 OFFCURVE",
"129 335 OFFCURVE",
"142 335 CURVE SMOOTH",
"155 335 OFFCURVE",
"166 346 OFFCURVE",
"166 359 CURVE SMOOTH",
"166 364 OFFCURVE",
"169 367 OFFCURVE",
"174 367 CURVE SMOOTH",
"494 367 LINE SMOOTH",
"499 367 OFFCURVE",
"502 364 OFFCURVE",
"502 359 CURVE SMOOTH",
"502 346 OFFCURVE",
"513 335 OFFCURVE",
"526 335 CURVE SMOOTH",
"539 335 OFFCURVE",
"550 346 OFFCURVE",
"550 359 CURVE SMOOTH",
"550 372 OFFCURVE",
"539 383 OFFCURVE",
"526 383 CURVE SMOOTH",
"521 383 OFFCURVE",
"518 386 OFFCURVE",
"518 391 CURVE SMOOTH",
"518 650 LINE",
"600 650 LINE",
"600 0 LINE",
"518 0 LINE",
"518 264 LINE SMOOTH",
"518 269 OFFCURVE",
"521 272 OFFCURVE",
"526 272 CURVE SMOOTH",
"539 272 OFFCURVE",
"550 283 OFFCURVE",
"550 296 CURVE SMOOTH",
"550 309 OFFCURVE",
"539 320 OFFCURVE",
"526 320 CURVE SMOOTH",
"513 320 OFFCURVE",
"502 309 OFFCURVE",
"502 296 CURVE SMOOTH",
"502 291 OFFCURVE",
"499 288 OFFCURVE",
"494 288 CURVE SMOOTH",
"174 288 LINE SMOOTH",
"169 288 OFFCURVE",
"166 291 OFFCURVE",
"166 296 CURVE SMOOTH",
"166 309 OFFCURVE",
"155 320 OFFCURVE",
"142 320 CURVE SMOOTH",
"129 320 OFFCURVE",
"118 309 OFFCURVE",
"118 296 CURVE SMOOTH",
"118 283 OFFCURVE",
"129 272 OFFCURVE",
"142 272 CURVE SMOOTH",
"147 272 OFFCURVE",
"150 269 OFFCURVE",
"150 264 CURVE SMOOTH",
"150 0 LINE",
"68 0 LINE"
);
},
{
closed = 1;
nodes = (
"85 551 LINE SMOOTH",
"85 537 OFFCURVE",
"95 527 OFFCURVE",
"109 527 CURVE SMOOTH",
"123 527 OFFCURVE",
"133 537 OFFCURVE",
"133 551 CURVE SMOOTH",
"133 599 LINE SMOOTH",
"133 613 OFFCURVE",
"123 623 OFFCURVE",
"109 623 CURVE SMOOTH",
"95 623 OFFCURVE",
"85 613 OFFCURVE",
"85 599 CURVE SMOOTH"
);
},
{
closed = 1;
nodes = (
"535 53 LINE SMOOTH",
"535 39 OFFCURVE",
"545 29 OFFCURVE",
"559 29 CURVE SMOOTH",
"573 29 OFFCURVE",
"583 39 OFFCURVE",
"583 53 CURVE SMOOTH",
"583 101 LINE SMOOTH",
"583 115 OFFCURVE",
"573 125 OFFCURVE",
"559 125 CURVE SMOOTH",
"545 125 OFFCURVE",
"535 115 OFFCURVE",
"535 101 CURVE SMOOTH"
);
},
{
closed = 1;
nodes = (
"347 302 OFFCURVE",
"358 313 OFFCURVE",
"358 326 CURVE SMOOTH",
"358 339 OFFCURVE",
"347 350 OFFCURVE",
"334 350 CURVE SMOOTH",
"321 350 OFFCURVE",
"310 339 OFFCURVE",
"310 326 CURVE SMOOTH",
"310 313 OFFCURVE",
"321 302 OFFCURVE",
"334 302 CURVE SMOOTH"
);
},
{
closed = 1;
nodes = (
"572 575 OFFCURVE",
"583 586 OFFCURVE",
"583 599 CURVE SMOOTH",
"583 612 OFFCURVE",
"572 623 OFFCURVE",
"559 623 CURVE SMOOTH",
"546 623 OFFCURVE",
"535 612 OFFCURVE",
"535 599 CURVE SMOOTH",
"535 586 OFFCURVE",
"546 575 OFFCURVE",
"559 575 CURVE SMOOTH"
);
},
{
closed = 1;
nodes = (
"122 27 OFFCURVE",
"133 38 OFFCURVE",
"133 51 CURVE SMOOTH",
"133 64 OFFCURVE",
"122 75 OFFCURVE",
"109 75 CURVE SMOOTH",
"96 75 OFFCURVE",
"85 64 OFFCURVE",
"85 51 CURVE SMOOTH",
"85 38 OFFCURVE",
"96 27 OFFCURVE",
"109 27 CURVE SMOOTH"
);
}
);
width = 668;
}
);
leftMetricsKey = l;
rightMetricsKey = l;
unicode = 0048;
},
{
glyphname = I;
lastChange = "2019-10-26 13:37:58 +0000";
layers = (
{
background = {
hints = (
{
horizontal = 1;
place = "{0, 21}";
target = up;
type = BottomGhost;
},
{
horizontal = 1;
place = "{722, -20}";
target = down;
type = TopGhost;
},
{
place = "{77, 96}";
type = Stem;
}
);
paths = (
{
closed = 1;
nodes = (
"68 0 LINE",
"150 0 LINE",
"150 650 LINE",
"68 650 LINE"
);
}
);
};
layerId = "8007C042-6FBA-4E49-99B8-8B738A4EBE86";
paths = (
{
closed = 1;
nodes = (
"68 0 LINE",
"150 0 LINE",
"150 650 LINE",
"68 650 LINE"
);
}
);
width = 218;
},
{
background = {
paths = (
{
closed = 1;
nodes = (
"68 0 LINE",
"150 0 LINE",
"150 650 LINE",
"68 650 LINE"
);
}
);
};
layerId = "516EF9F5-8A61-4DB8-B238-FB46D711CD4C";
paths = (
{
closed = 1;
nodes = (
"68 0 LINE",
"150 0 LINE",
"150 650 LINE",
"68 650 LINE"
);
},
{
closed = 1;
nodes = (
"85 470 OFFCURVE",
"95 480 OFFCURVE",
"109 480 CURVE SMOOTH",
"123 480 OFFCURVE",
"133 470 OFFCURVE",
"133 456 CURVE SMOOTH",
"133 354 LINE SMOOTH",
"133 340 OFFCURVE",
"123 330 OFFCURVE",
"109 330 CURVE SMOOTH",
"95 330 OFFCURVE",
"85 340 OFFCURVE",
"85 354 CURVE SMOOTH",
"85 456 LINE SMOOTH"
);
},
{
closed = 1;
nodes = (
"96 575 OFFCURVE",
"85 586 OFFCURVE",
"85 599 CURVE SMOOTH",
"85 612 OFFCURVE",
"96 623 OFFCURVE",
"109 623 CURVE SMOOTH",
"122 623 OFFCURVE",
"133 612 OFFCURVE",
"133 599 CURVE SMOOTH",
"133 586 OFFCURVE",
"122 575 OFFCURVE",
"109 575 CURVE SMOOTH"
);
},
{
closed = 1;
nodes = (
"85 113 OFFCURVE",
"95 123 OFFCURVE",
"109 123 CURVE SMOOTH",
"123 123 OFFCURVE",
"133 113 OFFCURVE",
"133 99 CURVE SMOOTH",
"133 51 LINE SMOOTH",
"133 37 OFFCURVE",
"123 27 OFFCURVE",
"109 27 CURVE SMOOTH",
"95 27 OFFCURVE",
"85 37 OFFCURVE",
"85 51 CURVE SMOOTH",
"85 99 LINE SMOOTH"
);
}
);
width = 218;
}
);
leftMetricsKey = l;
rightMetricsKey = l;
unicode = 0049;
},
{
glyphname = J;
lastChange = "2019-10-31 17:29:15 +0000";
layers = (
{
background = {
hints = (
{
horizontal = 1;
place = "{-13, 88}";
type = Stem;
},
{
horizontal = 1;
place = "{722, -20}";
target = down;
type = TopGhost;
},
{
place = "{39, 91}";
type = Stem;
},
{
place = "{440, 96}";
type = Stem;
}
);
paths = (
{
closed = 1;
nodes = (
"191 72 OFFCURVE",
"126 138 OFFCURVE",
"126 228 CURVE SMOOTH",
"126 370 LINE",
"44 371 LINE",
"44 226 LINE SMOOTH",
"44 88 OFFCURVE",
"143 -10 OFFCURVE",
"275 -10 CURVE SMOOTH",
"407 -10 OFFCURVE",
"504 88 OFFCURVE",
"504 226 CURVE SMOOTH",
"504 650 LINE",
"422 650 LINE",
"422 228 LINE SMOOTH",
"422 138 OFFCURVE",
"359 72 OFFCURVE",
"275 72 CURVE SMOOTH"
);
}
);
};
layerId = "8007C042-6FBA-4E49-99B8-8B738A4EBE86";
paths = (
{
closed = 1;
nodes = (
"188 72 OFFCURVE",
"126 136 OFFCURVE",
"126 224 CURVE SMOOTH",
"126 370 LINE",
"44 371 LINE",
"44 222 LINE SMOOTH",
"44 86 OFFCURVE",
"140 -12 OFFCURVE",
"274 -12 CURVE SMOOTH",
"406 -12 OFFCURVE",
"504 88 OFFCURVE",
"504 226 CURVE SMOOTH",
"504 650 LINE",
"422 650 LINE",
"422 228 LINE SMOOTH",
"422 138 OFFCURVE",
"360 72 OFFCURVE",
"274 72 CURVE SMOOTH"
);
}
);
width = 560;
},
{
associatedMasterId = "8007C042-6FBA-4E49-99B8-8B738A4EBE86";
background = {
paths = (
{
closed = 1;
nodes = (
"307 434 LINE SMOOTH",
"307 683 OFFCURVE",
"308 684 OFFCURVE",
"363 684 CURVE SMOOTH",
"383 684 LINE SMOOTH",
"391 684 OFFCURVE",
"391 693 OFFCURVE",
"383 693 CURVE SMOOTH",
"353 693 OFFCURVE",
"285 690 OFFCURVE",
"269 690 CURVE SMOOTH",
"256 690 OFFCURVE",
"177 693 OFFCURVE",
"149 693 CURVE SMOOTH",
"141 693 OFFCURVE",
"141 684 OFFCURVE",
"149 684 CURVE SMOOTH",
"175 684 LINE SMOOTH",
"227 684 OFFCURVE",
"229 686 OFFCURVE",
"229 434 CURVE SMOOTH",
"229 259 LINE SMOOTH",
"229 -3 OFFCURVE",
"214 -69 OFFCURVE",
"171 -114 CURVE",
"163 -123 OFFCURVE",
"144 -129 OFFCURVE",
"131 -129 CURVE SMOOTH",
"122 -129 OFFCURVE",
"94 -128 OFFCURVE",
"69 -128 CURVE SMOOTH",
"61 -128 OFFCURVE",
"54 -129 OFFCURVE",
"49 -130 CURVE",
"21 -138 OFFCURVE",
"10 -166 OFFCURVE",
"10 -187 CURVE SMOOTH",
"10 -198 OFFCURVE",
"21 -206 OFFCURVE",
"37 -210 CURVE",
"44 -211 OFFCURVE",
"52 -212 OFFCURVE",
"60 -212 CURVE SMOOTH",
"76 -212 OFFCURVE",
"124 -175 OFFCURVE",
"145 -154 CURVE SMOOTH",
"262 -39 OFFCURVE",
"308 9 OFFCURVE",
"308 213 CURVE SMOOTH",
"308 241 OFFCURVE",
"307 294 OFFCURVE",
"307 319 CURVE SMOOTH"
);
}
);
};
layerId = "6A443743-A138-4538-8272-7069A9657A3F";
name = "Oct 19 17, 16:39";
paths = (
{
closed = 1;
nodes = (
"36 81 OFFCURVE",
"129 -18 OFFCURVE",
"274 -18 CURVE SMOOTH",
"419 -18 OFFCURVE",
"512 87 OFFCURVE",
"512 264 CURVE",
"512 684 LINE",
"430 684 LINE",
"430 268 LINE",
"430 146 OFFCURVE",
"367 74 OFFCURVE",
"274 74 CURVE SMOOTH",
"181 74 OFFCURVE",
"118 139 OFFCURVE",
"118 248 CURVE",
"36 248 LINE"
);
}
);
width = 576;
},
{
associatedMasterId = "8007C042-6FBA-4E49-99B8-8B738A4EBE86";
background = {
paths = (
{
closed = 1;
nodes = (
"307 434 LINE SMOOTH",
"307 683 OFFCURVE",
"308 684 OFFCURVE",
"363 684 CURVE SMOOTH",
"383 684 LINE SMOOTH",
"391 684 OFFCURVE",
"391 693 OFFCURVE",
"383 693 CURVE SMOOTH",
"353 693 OFFCURVE",
"285 690 OFFCURVE",
"269 690 CURVE SMOOTH",
"256 690 OFFCURVE",
"177 693 OFFCURVE",
"149 693 CURVE SMOOTH",
"141 693 OFFCURVE",
"141 684 OFFCURVE",
"149 684 CURVE SMOOTH",
"175 684 LINE SMOOTH",
"227 684 OFFCURVE",
"229 686 OFFCURVE",
"229 434 CURVE SMOOTH",
"229 259 LINE SMOOTH",
"229 -3 OFFCURVE",
"214 -69 OFFCURVE",
"171 -114 CURVE",
"163 -123 OFFCURVE",
"144 -129 OFFCURVE",
"131 -129 CURVE SMOOTH",
"122 -129 OFFCURVE",
"94 -128 OFFCURVE",
"69 -128 CURVE SMOOTH",
"61 -128 OFFCURVE",
"54 -129 OFFCURVE",
"49 -130 CURVE",
"21 -138 OFFCURVE",
"10 -166 OFFCURVE",
"10 -187 CURVE SMOOTH",
"10 -198 OFFCURVE",
"21 -206 OFFCURVE",
"37 -210 CURVE",
"44 -211 OFFCURVE",
"52 -212 OFFCURVE",
"60 -212 CURVE SMOOTH",
"76 -212 OFFCURVE",
"124 -175 OFFCURVE",
"145 -154 CURVE SMOOTH",
"262 -39 OFFCURVE",
"308 9 OFFCURVE",
"308 213 CURVE SMOOTH",
"308 241 OFFCURVE",
"307 294 OFFCURVE",
"307 319 CURVE SMOOTH"
);
}
);
};
layerId = "E96EE89B-244C-46FD-8698-02A361837939";
name = "Oct 19 17, 16:47";
paths = (
{
closed = 1;
nodes = (
"86 82 OFFCURVE",
"53 86 OFFCURVE",
"26 94 CURVE",
"24 6 LINE",
"50 -4 OFFCURVE",
"80 -10 OFFCURVE",
"106 -10 CURVE SMOOTH",
"234 -10 OFFCURVE",
"310 69 OFFCURVE",
"310 202 CURVE SMOOTH",
"310 692 LINE",
"228 692 LINE",
"228 218 LINE SMOOTH",
"228 133 OFFCURVE",
"186 82 OFFCURVE",
"114 82 CURVE SMOOTH"
);
}
);
width = 374;
},
{
associatedMasterId = "8007C042-6FBA-4E49-99B8-8B738A4EBE86";
background = {
paths = (
{
closed = 1;
nodes = (
"536 722 LINE",
"440 722 LINE",
"440 263 LINE SMOOTH",
"440 141 OFFCURVE",
"383 75 OFFCURVE",
"286 75 CURVE SMOOTH",
"195 75 OFFCURVE",
"136 135 OFFCURVE",
"130 250 CURVE",
"39 211 LINE",
"52 76 OFFCURVE",
"150 -13 OFFCURVE",
"286 -13 CURVE SMOOTH",
"438 -13 OFFCURVE",
"536 94 OFFCURVE",
"536 251 CURVE SMOOTH"
);
}
);
};
layerId = "F94355CD-801D-4F78-96A5-1BC39BD5D1E3";
name = "Nov 19 18, 14:38";
paths = (
{
closed = 1;
nodes = (
"190 74 OFFCURVE",
"126 136 OFFCURVE",
"126 222 CURVE SMOOTH",
"126 234 OFFCURVE",
"127 250 OFFCURVE",
"129 262 CURVE",
"155 413 LINE",
"71 417 LINE",
"46 264 LINE",
"45 252 OFFCURVE",
"44 240 OFFCURVE",
"44 224 CURVE SMOOTH",
"44 88 OFFCURVE",
"142 -10 OFFCURVE",
"278 -10 CURVE SMOOTH",
"410 -10 OFFCURVE",
"504 92 OFFCURVE",
"504 230 CURVE",
"504 650 LINE",
"422 650 LINE",
"422 226 LINE",
"422 138 OFFCURVE",
"362 74 OFFCURVE",
"278 74 CURVE SMOOTH"
);
}
);
width = 564;
},
{
associatedMasterId = "8007C042-6FBA-4E49-99B8-8B738A4EBE86";
background = {
paths = (
{
closed = 1;
nodes = (
"536 722 LINE",
"440 722 LINE",
"440 263 LINE SMOOTH",
"440 141 OFFCURVE",
"383 75 OFFCURVE",
"286 75 CURVE SMOOTH",
"195 75 OFFCURVE",
"136 135 OFFCURVE",
"130 250 CURVE",
"39 211 LINE",
"52 76 OFFCURVE",
"150 -13 OFFCURVE",
"286 -13 CURVE SMOOTH",
"438 -13 OFFCURVE",
"536 94 OFFCURVE",
"536 251 CURVE SMOOTH"
);
}
);
};
layerId = "0921D52E-899D-412E-9515-02F94267137A";
name = "Nov 20 18, 13:35";
paths = (
{
closed = 1;
nodes = (
"190 74 OFFCURVE",
"126 136 OFFCURVE",
"126 222 CURVE SMOOTH",
"126 234 OFFCURVE",
"128 250 OFFCURVE",
"130 262 CURVE",
"46 264 LINE",
"45 252 OFFCURVE",
"44 240 OFFCURVE",
"44 224 CURVE SMOOTH",
"44 88 OFFCURVE",
"142 -10 OFFCURVE",
"278 -10 CURVE SMOOTH",
"410 -10 OFFCURVE",
"504 92 OFFCURVE",
"504 230 CURVE",
"504 650 LINE",
"422 650 LINE",
"422 226 LINE",
"422 138 OFFCURVE",
"362 74 OFFCURVE",
"278 74 CURVE SMOOTH"
);
}
);
width = 564;
},
{
background = {
paths = (
{
closed = 1;
nodes = (
"191 72 OFFCURVE",
"126 138 OFFCURVE",
"126 228 CURVE SMOOTH",
"126 370 LINE",
"44 371 LINE",
"44 226 LINE SMOOTH",
"44 88 OFFCURVE",
"143 -10 OFFCURVE",
"275 -10 CURVE SMOOTH",
"407 -10 OFFCURVE",
"504 88 OFFCURVE",
"504 226 CURVE SMOOTH",
"504 650 LINE",
"422 650 LINE",
"422 228 LINE SMOOTH",
"422 138 OFFCURVE",
"359 72 OFFCURVE",
"275 72 CURVE SMOOTH"
);
}
);
};
layerId = "516EF9F5-8A61-4DB8-B238-FB46D711CD4C";
paths = (
{
closed = 1;
nodes = (
"188 72 OFFCURVE",
"126 136 OFFCURVE",
"126 224 CURVE SMOOTH",
"126 370 LINE",
"44 371 LINE",
"44 222 LINE SMOOTH",
"44 86 OFFCURVE",
"140 -12 OFFCURVE",
"274 -12 CURVE SMOOTH",
"406 -12 OFFCURVE",
"504 88 OFFCURVE",
"504 226 CURVE SMOOTH",
"504 650 LINE",
"422 650 LINE",
"422 228 LINE SMOOTH",
"422 138 OFFCURVE",
"360 72 OFFCURVE",
"274 72 CURVE SMOOTH"
);
},
{
closed = 1;
nodes = (
"439 613 OFFCURVE",
"449 623 OFFCURVE",
"463 623 CURVE SMOOTH",
"477 623 OFFCURVE",
"487 613 OFFCURVE",
"487 599 CURVE SMOOTH",
"487 497 LINE SMOOTH",
"487 483 OFFCURVE",
"477 473 OFFCURVE",
"463 473 CURVE SMOOTH",
"449 473 OFFCURVE",
"439 483 OFFCURVE",
"439 497 CURVE SMOOTH",
"439 599 LINE SMOOTH"
);
},
{
closed = 1;
nodes = (
"312 55 OFFCURVE",
"324 47 OFFCURVE",
"324 33 CURVE SMOOTH",
"324 21 OFFCURVE",
"316 13 OFFCURVE",
"302 10 CURVE SMOOTH",
"286 7 OFFCURVE",
"262 7 OFFCURVE",
"246 10 CURVE SMOOTH",
"232 13 OFFCURVE",
"224 21 OFFCURVE",
"224 33 CURVE SMOOTH",
"224 47 OFFCURVE",
"236 55 OFFCURVE",
"250 53 CURVE SMOOTH",
"264 51 OFFCURVE",
"284 51 OFFCURVE",
"298 53 CURVE SMOOTH"
);
},
{
closed = 1;
nodes = (
"102 114 OFFCURVE",
"112 124 OFFCURVE",
"126 124 CURVE SMOOTH",
"140 124 OFFCURVE",
"150 114 OFFCURVE",
"150 100 CURVE SMOOTH",
"150 86 OFFCURVE",
"140 76 OFFCURVE",
"126 76 CURVE SMOOTH",
"112 76 OFFCURVE",
"102 86 OFFCURVE",
"102 100 CURVE SMOOTH"
);
},
{
closed = 1;
nodes = (
"398 114 OFFCURVE",
"408 124 OFFCURVE",
"422 124 CURVE SMOOTH",
"436 124 OFFCURVE",
"446 114 OFFCURVE",
"446 100 CURVE SMOOTH",
"446 86 OFFCURVE",
"436 76 OFFCURVE",
"422 76 CURVE SMOOTH",
"408 76 OFFCURVE",
"398 86 OFFCURVE",
"398 100 CURVE SMOOTH"
);
},
{
closed = 1;
nodes = (
"61 320 OFFCURVE",
"71 330 OFFCURVE",
"85 330 CURVE SMOOTH",
"99 330 OFFCURVE",
"109 320 OFFCURVE",
"109 306 CURVE SMOOTH",
"109 258 LINE SMOOTH",
"109 244 OFFCURVE",
"99 234 OFFCURVE",
"85 234 CURVE SMOOTH",
"71 234 OFFCURVE",
"61 244 OFFCURVE",
"61 258 CURVE SMOOTH",
"61 306 LINE SMOOTH"
);
},
{
closed = 1;
nodes = (
"439 272 OFFCURVE",
"449 282 OFFCURVE",
"463 282 CURVE SMOOTH",
"477 282 OFFCURVE",
"487 272 OFFCURVE",
"487 258 CURVE SMOOTH",
"487 244 OFFCURVE",
"477 234 OFFCURVE",
"463 234 CURVE SMOOTH",
"449 234 OFFCURVE",
"439 244 OFFCURVE",
"439 258 CURVE SMOOTH"
);
}
);
width = 560;
}
);
rightMetricsKey = U;
unicode = 004A;
},
{
glyphname = K;
lastChange = "2019-11-02 15:47:34 +0000";
layers = (
{
background = {
hints = (
{
horizontal = 1;
place = "{0, 21}";
target = up;
type = BottomGhost;
},
{
horizontal = 1;
place = "{722, -20}";
target = down;
type = TopGhost;
},
{
place = "{77, 96}";
type = Stem;
}
);
paths = (
{
closed = 1;
nodes = (
"68 0 LINE",
"150 0 LINE",
"150 650 LINE",
"68 650 LINE"
);
},
{
closed = 1;
nodes = (
"150 166 LINE",
"572 650 LINE",
"464 650 LINE",
"150 290 LINE"
);
},
{
closed = 1;
nodes = (
"496 0 LINE",
"600 0 LINE",
"328 384 LINE",
"268 316 LINE"
);
}
);
};
layerId = "8007C042-6FBA-4E49-99B8-8B738A4EBE86";
paths = (
{
closed = 1;
nodes = (
"68 0 LINE",
"150 0 LINE",
"150 650 LINE",
"68 650 LINE"
);
},
{
closed = 1;
nodes = (
"150 166 LINE",
"572 650 LINE",
"464 650 LINE",
"150 290 LINE"
);
},
{
closed = 1;
nodes = (
"496 0 LINE",
"600 0 LINE",
"328 384 LINE",
"268 316 LINE"
);
}
);
width = 608;
},
{
background = {
paths = (
{
closed = 1;
nodes = (
"68 0 LINE",
"150 0 LINE",
"150 650 LINE",
"68 650 LINE"
);
},
{
closed = 1;
nodes = (
"150 166 LINE",
"572 650 LINE",
"464 650 LINE",
"150 290 LINE"
);
},
{
closed = 1;
nodes = (
"496 0 LINE",
"600 0 LINE",
"328 384 LINE",
"268 316 LINE"
);
}
);
};
layerId = "516EF9F5-8A61-4DB8-B238-FB46D711CD4C";
paths = (
{
closed = 1;
nodes = (
"150 0 LINE",
"150 166 LINE",
"255 286 LINE SMOOTH",
"258 290 OFFCURVE",
"258 297 OFFCURVE",
"255 301 CURVE SMOOTH",
"252 305 OFFCURVE",
"250 310 OFFCURVE",
"250 316 CURVE SMOOTH",
"250 330 OFFCURVE",
"260 340 OFFCURVE",
"274 340 CURVE SMOOTH",
"288 340 OFFCURVE",
"298 330 OFFCURVE",
"298 316 CURVE SMOOTH",
"298 309 OFFCURVE",
"297 306 OFFCURVE",
"292 300 CURVE SMOOTH",
"287 294 OFFCURVE",
"288 288 OFFCURVE",
"292 283 CURVE SMOOTH",
"496 0 LINE",
"600 0 LINE",
"349 356 LINE SMOOTH",
"346 360 OFFCURVE",
"340 359 OFFCURVE",
"337 356 CURVE SMOOTH",
"333 353 OFFCURVE",
"329 352 OFFCURVE",
"324 352 CURVE SMOOTH",
"310 352 OFFCURVE",
"301 362 OFFCURVE",
"301 376 CURVE SMOOTH",
"301 390 OFFCURVE",
"311 400 OFFCURVE",
"325 400 CURVE SMOOTH",
"330 400 OFFCURVE",
"334 399 OFFCURVE",
"339 395 CURVE SMOOTH",
"343 392 OFFCURVE",
"347 392 OFFCURVE",
"351 396 CURVE SMOOTH",
"572 650 LINE",
"464 650 LINE",
"170 313 LINE SMOOTH",
"166 308 OFFCURVE",
"166 302.904 OFFCURVE",
"166 297 CURVE SMOOTH",
"166 284 LINE SMOOTH",
"166 270 OFFCURVE",
"156 260 OFFCURVE",
"142 260 CURVE SMOOTH",
"128 260 OFFCURVE",
"118 270 OFFCURVE",
"118 284 CURVE SMOOTH",
"118 298 OFFCURVE",
"128 308 OFFCURVE",
"142 308 CURVE SMOOTH",
"147 308 OFFCURVE",
"150 311 OFFCURVE",
"150 316 CURVE SMOOTH",
"150 650 LINE",
"68 650 LINE",
"68 0 LINE"
);
},
{
closed = 1;
nodes = (
"85 613 OFFCURVE",
"95 623 OFFCURVE",
"109 623 CURVE SMOOTH",
"123 623 OFFCURVE",
"133 613 OFFCURVE",
"133 599 CURVE SMOOTH",
"133 497 LINE SMOOTH",
"133 483 OFFCURVE",
"123 473 OFFCURVE",
"109 473 CURVE SMOOTH",
"95 473 OFFCURVE",
"85 483 OFFCURVE",
"85 497 CURVE SMOOTH",
"85 599 LINE SMOOTH"
);
},
{
closed = 1;
nodes = (
"85 113 OFFCURVE",
"95 123 OFFCURVE",
"109 123 CURVE SMOOTH",
"123 123 OFFCURVE",
"133 113 OFFCURVE",
"133 99 CURVE SMOOTH",
"133 51 LINE SMOOTH",
"133 37 OFFCURVE",
"123 27 OFFCURVE",
"109 27 CURVE SMOOTH",
"95 27 OFFCURVE",
"85 37 OFFCURVE",
"85 51 CURVE SMOOTH",
"85 99 LINE SMOOTH"
);
},
{
closed = 1;
nodes = (
"498 585 OFFCURVE",
"488 575 OFFCURVE",
"474 575 CURVE SMOOTH",
"460 575 OFFCURVE",
"450 585 OFFCURVE",
"450 599 CURVE SMOOTH",
"450 613 OFFCURVE",
"460 623 OFFCURVE",
"474 623 CURVE SMOOTH",
"488 623 OFFCURVE",
"498 613 OFFCURVE",
"498 599 CURVE SMOOTH"
);
},
{
closed = 1;
nodes = (
"425 132 OFFCURVE",
"428 145 OFFCURVE",
"440 154 CURVE SMOOTH",
"450 162 OFFCURVE",
"465 160 OFFCURVE",
"473 148 CURVE SMOOTH",
"532 65 LINE SMOOTH",
"540 54 OFFCURVE",
"538 40 OFFCURVE",
"527 32 CURVE SMOOTH",
"516 24 OFFCURVE",
"502 26 OFFCURVE",
"494 37 CURVE SMOOTH",
"434 120 LINE SMOOTH"
);
}
);
width = 608;
},
{
associatedMasterId = "516EF9F5-8A61-4DB8-B238-FB46D711CD4C";
background = {
paths = (
{
closed = 1;
nodes = (
"68 0 LINE",
"150 0 LINE",
"150 650 LINE",
"68 650 LINE"
);
},
{
closed = 1;
nodes = (
"150 166 LINE",
"572 650 LINE",
"464 650 LINE",
"150 290 LINE"
);
},
{
closed = 1;
nodes = (
"496 0 LINE",
"600 0 LINE",
"328 384 LINE",
"268 316 LINE"
);
}
);
};
layerId = "39E8CAA0-3F73-4892-A400-AF24EFDA58A0";
name = "Oct 31 19, 18:07";
paths = (
{
closed = 1;
nodes = (
"150 0 LINE",
"150 166 LINE",
"255 286 LINE SMOOTH",
"258 290 OFFCURVE",
"258 297 OFFCURVE",
"255 301 CURVE SMOOTH",
"252 305 OFFCURVE",
"250 310 OFFCURVE",
"250 316 CURVE SMOOTH",
"250 330 OFFCURVE",
"260 340 OFFCURVE",
"274 340 CURVE SMOOTH",
"288 340 OFFCURVE",
"298 330 OFFCURVE",
"298 316 CURVE SMOOTH",
"298 309 OFFCURVE",
"297 306 OFFCURVE",
"292 300 CURVE SMOOTH",
"287 294 OFFCURVE",
"288 288 OFFCURVE",
"292 283 CURVE SMOOTH",
"496 0 LINE",
"600 0 LINE",
"349 356 LINE SMOOTH",
"346 360 OFFCURVE",
"340 359 OFFCURVE",
"337 356 CURVE SMOOTH",
"333 353 OFFCURVE",
"329 352 OFFCURVE",
"324 352 CURVE SMOOTH",
"310 352 OFFCURVE",
"301 362 OFFCURVE",
"301 376 CURVE SMOOTH",
"301 390 OFFCURVE",
"311 400 OFFCURVE",
"325 400 CURVE SMOOTH",
"330 400 OFFCURVE",
"334 399 OFFCURVE",
"339 395 CURVE SMOOTH",
"343 392 OFFCURVE",
"347 392 OFFCURVE",
"351 396 CURVE SMOOTH",
"572 650 LINE",
"464 650 LINE",
"170 313 LINE SMOOTH",
"166 308 OFFCURVE",
"166 302.904 OFFCURVE",
"166 297 CURVE SMOOTH",
"166 284 LINE SMOOTH",
"166 270 OFFCURVE",
"156 260 OFFCURVE",
"142 260 CURVE SMOOTH",
"128 260 OFFCURVE",
"118 270 OFFCURVE",
"118 284 CURVE SMOOTH",
"118 298 OFFCURVE",
"128 308 OFFCURVE",
"142 308 CURVE SMOOTH",
"147 308 OFFCURVE",
"150 311 OFFCURVE",
"150 316 CURVE SMOOTH",
"150 650 LINE",
"68 650 LINE",
"68 0 LINE"
);
},
{
closed = 1;
nodes = (
"85 613 OFFCURVE",
"95 623 OFFCURVE",
"109 623 CURVE SMOOTH",
"123 623 OFFCURVE",
"133 613 OFFCURVE",
"133 599 CURVE SMOOTH",
"133 497 LINE SMOOTH",
"133 483 OFFCURVE",
"123 473 OFFCURVE",
"109 473 CURVE SMOOTH",
"95 473 OFFCURVE",
"85 483 OFFCURVE",
"85 497 CURVE SMOOTH",
"85 599 LINE SMOOTH"
);
},
{
closed = 1;
nodes = (
"85 113 OFFCURVE",
"95 123 OFFCURVE",
"109 123 CURVE SMOOTH",
"123 123 OFFCURVE",
"133 113 OFFCURVE",
"133 99 CURVE SMOOTH",
"133 51 LINE SMOOTH",
"133 37 OFFCURVE",
"123 27 OFFCURVE",
"109 27 CURVE SMOOTH",
"95 27 OFFCURVE",
"85 37 OFFCURVE",
"85 51 CURVE SMOOTH",
"85 99 LINE SMOOTH"
);
},
{
closed = 1;
nodes = (
"537 37 OFFCURVE",
"527 27 OFFCURVE",
"513 27 CURVE SMOOTH",
"499 27 OFFCURVE",
"489 37 OFFCURVE",
"489 51 CURVE SMOOTH",
"489 65 OFFCURVE",
"499 75 OFFCURVE",
"513 75 CURVE SMOOTH",
"527 75 OFFCURVE",
"537 65 OFFCURVE",
"537 51 CURVE SMOOTH"
);
},
{
closed = 1;
nodes = (
"498 585 OFFCURVE",
"488 575 OFFCURVE",
"474 575 CURVE SMOOTH",
"460 575 OFFCURVE",
"450 585 OFFCURVE",
"450 599 CURVE SMOOTH",
"450 613 OFFCURVE",
"460 623 OFFCURVE",
"474 623 CURVE SMOOTH",
"488 623 OFFCURVE",
"498 613 OFFCURVE",
"498 599 CURVE SMOOTH"
);
},
{
closed = 1;
nodes = (
"392 238 OFFCURVE",
"382 228 OFFCURVE",
"368 228 CURVE SMOOTH",
"354 228 OFFCURVE",
"344 238 OFFCURVE",
"344 252 CURVE SMOOTH",
"344 266 OFFCURVE",
"354 276 OFFCURVE",
"368 276 CURVE SMOOTH",
"382 276 OFFCURVE",
"392 266 OFFCURVE",
"392 252 CURVE SMOOTH"
);
}
);
width = 608;
}
);
leftMetricsKey = l;
unicode = 004B;
},
{
glyphname = L;
lastChange = "2019-11-21 14:34:41 +0000";
layers = (
{
background = {
hints = (
{
horizontal = 1;
place = "{0, 86}";
type = Stem;
},
{
horizontal = 1;
place = "{722, -20}";
target = down;
type = TopGhost;
},
{
place = "{77, 96}";
type = Stem;
}
);
paths = (
{
closed = 1;
nodes = (
"68 0 LINE",
"150 0 LINE",
"150 650 LINE",
"68 650 LINE"
);
},
{
closed = 1;
nodes = (
"150 82 LINE",
"150 0 LINE",
"502 0 LINE",
"502 82 LINE"
);
}
);
};
layerId = "8007C042-6FBA-4E49-99B8-8B738A4EBE86";
paths = (
{
closed = 1;
nodes = (
"68 0 LINE",
"150 0 LINE",
"150 650 LINE",
"68 650 LINE"
);
},
{
closed = 1;
nodes = (
"150 82 LINE",
"150 0 LINE",
"502 0 LINE",
"502 82 LINE"
);
}
);
width = 506;
},
{
background = {
paths = (
{
closed = 1;
nodes = (
"68 0 LINE",
"150 0 LINE",
"150 650 LINE",
"68 650 LINE"
);
},
{
closed = 1;
nodes = (
"150 82 LINE",
"150 0 LINE",
"502 0 LINE",
"502 82 LINE"
);
}
);
};
layerId = "516EF9F5-8A61-4DB8-B238-FB46D711CD4C";
paths = (
{
closed = 1;
nodes = (
"502 0 LINE",
"502 82 LINE",
"174 82 LINE SMOOTH",
"169 82 OFFCURVE",
"166 79 OFFCURVE",
"166 74 CURVE SMOOTH",
"166 61 OFFCURVE",
"155 50 OFFCURVE",
"142 50 CURVE SMOOTH",
"129 50 OFFCURVE",
"118 61 OFFCURVE",
"118 74 CURVE SMOOTH",
"118 87 OFFCURVE",
"129 98 OFFCURVE",
"142 98 CURVE SMOOTH",
"147 98 OFFCURVE",
"150 101 OFFCURVE",
"150 106 CURVE SMOOTH",
"150 650 LINE",
"68 650 LINE",
"68 0 LINE"
);
},
{
closed = 1;
nodes = (
"85 613 OFFCURVE",
"95 623 OFFCURVE",
"109 623 CURVE SMOOTH",
"123 623 OFFCURVE",
"133 613 OFFCURVE",
"133 599 CURVE SMOOTH",
"133 497 LINE SMOOTH",
"133 483 OFFCURVE",
"123 473 OFFCURVE",
"109 473 CURVE SMOOTH",
"95 473 OFFCURVE",
"85 483 OFFCURVE",
"85 497 CURVE SMOOTH",
"85 599 LINE SMOOTH"
);
},
{
closed = 1;
nodes = (
"475 28 OFFCURVE",
"465 18 OFFCURVE",
"451 18 CURVE SMOOTH",
"437 18 OFFCURVE",
"427 28 OFFCURVE",
"427 42 CURVE SMOOTH",
"427 56 OFFCURVE",
"437 66 OFFCURVE",
"451 66 CURVE SMOOTH",
"465 66 OFFCURVE",
"475 56 OFFCURVE",
"475 42 CURVE SMOOTH"
);
},
{
closed = 1;
nodes = (
"346 66 OFFCURVE",
"356 56 OFFCURVE",
"356 42 CURVE SMOOTH",
"356 28 OFFCURVE",
"346 18 OFFCURVE",
"332 18 CURVE SMOOTH",
"284 18 LINE SMOOTH",
"270 18 OFFCURVE",
"260 28 OFFCURVE",
"260 42 CURVE SMOOTH",
"260 56 OFFCURVE",
"270 66 OFFCURVE",
"284 66 CURVE SMOOTH",
"332 66 LINE SMOOTH"
);
},
{
closed = 1;
nodes = (
"85 314 OFFCURVE",
"95 324 OFFCURVE",
"109 324 CURVE SMOOTH",
"123 324 OFFCURVE",
"133 314 OFFCURVE",
"133 300 CURVE SMOOTH",
"133 252 LINE SMOOTH",
"133 238 OFFCURVE",
"123 228 OFFCURVE",
"109 228 CURVE SMOOTH",
"95 228 OFFCURVE",
"85 238 OFFCURVE",
"85 252 CURVE SMOOTH",
"85 300 LINE SMOOTH"
);
}
);
width = 506;
}
);
leftMetricsKey = l;
unicode = 004C;
},
{
glyphname = M;
lastChange = "2019-11-03 16:52:03 +0000";
layers = (
{
background = {
hints = (
{
horizontal = 1;
place = "{0, 21}";
target = up;
type = BottomGhost;
},
{
horizontal = 1;
place = "{607, 115}";
type = Stem;
},
{
place = "{77, 95}";
type = Stem;
},
{
place = "{711, 96}";
type = Stem;
},
{
horizontal = 1;
place = "{0, 120}";
type = Stem;
}
);
paths = (
{
closed = 1;
nodes = (
"150 0 LINE",
"150 520 LINE",
"362 2 LINE",
"440 2 LINE",
"642 520 LINE",
"642 0 LINE",
"724 0 LINE",
"724 650 LINE",
"604 650 LINE",
"402 116 LINE",
"192 650 LINE",
"68 650 LINE",
"68 0 LINE"
);
}
);
};
layerId = "8007C042-6FBA-4E49-99B8-8B738A4EBE86";
paths = (
{
closed = 1;
nodes = (
"150 0 LINE",
"150 520 LINE",
"362 2 LINE",
"440 2 LINE",
"642 520 LINE",
"642 0 LINE",
"724 0 LINE",
"724 650 LINE",
"604 650 LINE",
"402 116 LINE",
"192 650 LINE",
"68 650 LINE",
"68 0 LINE"
);
}
);
width = 792;
},
{
background = {
paths = (
{
closed = 1;
nodes = (
"150 0 LINE",
"150 520 LINE",
"362 2 LINE",
"440 2 LINE",
"642 520 LINE",
"642 0 LINE",
"724 0 LINE",
"724 650 LINE",
"604 650 LINE",
"402 116 LINE",
"192 650 LINE",
"68 650 LINE",
"68 0 LINE"
);
}
);
};
layerId = "516EF9F5-8A61-4DB8-B238-FB46D711CD4C";
paths = (
{
closed = 1;
nodes = (
"150 499 OFFCURVE",
"147 502 OFFCURVE",
"142 502 CURVE SMOOTH",
"128 502 OFFCURVE",
"118 512 OFFCURVE",
"118 526 CURVE SMOOTH",
"118 540 OFFCURVE",
"128 550 OFFCURVE",
"142 550 CURVE SMOOTH",
"156 550 OFFCURVE",
"166 540 OFFCURVE",
"166 526 CURVE SMOOTH",
"166 506 LINE SMOOTH",
"166 488 OFFCURVE",
"171 468 OFFCURVE",
"177 453 CURVE SMOOTH",
"362 2 LINE",
"440 2 LINE",
"616 453 LINE SMOOTH",
"622 468 OFFCURVE",
"626 488 OFFCURVE",
"626 506 CURVE SMOOTH",
"626 526 LINE SMOOTH",
"626 540 OFFCURVE",
"636 550 OFFCURVE",
"650 550 CURVE SMOOTH",
"664 550 OFFCURVE",
"674 540 OFFCURVE",
"674 526 CURVE SMOOTH",
"674 512 OFFCURVE",
"664 502 OFFCURVE",
"650 502 CURVE SMOOTH",
"645 502 OFFCURVE",
"642 499 OFFCURVE",
"642 494 CURVE SMOOTH",
"642 0 LINE",
"724 0 LINE",
"724 650 LINE",
"604 650 LINE",
"422 170 LINE SMOOTH",
"416 154 OFFCURVE",
"416 139 OFFCURVE",
"423 124 CURVE SMOOTH",
"425 120 OFFCURVE",
"426 116 OFFCURVE",
"426 112 CURVE SMOOTH",
"426 99 OFFCURVE",
"415 88 OFFCURVE",
"402 88 CURVE SMOOTH",
"389 88 OFFCURVE",
"378 99 OFFCURVE",
"378 112 CURVE SMOOTH",
"378 116 OFFCURVE",
"379 120 OFFCURVE",
"381 124 CURVE SMOOTH",
"388 139 OFFCURVE",
"387 154 OFFCURVE",
"381 170 CURVE SMOOTH",
"192 650 LINE",
"68 650 LINE",
"68 0 LINE",
"150 0 LINE",
"150 494 LINE SMOOTH"
);
},
{
closed = 1;
nodes = (
"85 368 OFFCURVE",
"95 378 OFFCURVE",
"109 378 CURVE SMOOTH",
"123 378 OFFCURVE",
"133 368 OFFCURVE",
"133 354 CURVE SMOOTH",
"133 252 LINE SMOOTH",
"133 238 OFFCURVE",
"123 228 OFFCURVE",
"109 228 CURVE SMOOTH",
"95 228 OFFCURVE",
"85 238 OFFCURVE",
"85 252 CURVE SMOOTH",
"85 354 LINE SMOOTH"
);
},
{
closed = 1;
nodes = (
"85 113 OFFCURVE",
"95 123 OFFCURVE",
"109 123 CURVE SMOOTH",
"123 123 OFFCURVE",
"133 113 OFFCURVE",
"133 99 CURVE SMOOTH",
"133 51 LINE SMOOTH",
"133 37 OFFCURVE",
"123 27 OFFCURVE",
"109 27 CURVE SMOOTH",
"95 27 OFFCURVE",
"85 37 OFFCURVE",
"85 51 CURVE SMOOTH",
"85 99 LINE SMOOTH"
);
},
{
closed = 1;
nodes = (
"229 383 OFFCURVE",
"218 394 OFFCURVE",
"218 407 CURVE SMOOTH",
"218 420 OFFCURVE",
"229 431 OFFCURVE",
"242 431 CURVE SMOOTH",
"255 431 OFFCURVE",
"266 420 OFFCURVE",
"266 407 CURVE SMOOTH",
"266 394 OFFCURVE",
"255 383 OFFCURVE",
"242 383 CURVE SMOOTH"
);
},
{
closed = 1;
nodes = (
"542 383 OFFCURVE",
"531 394 OFFCURVE",
"531 407 CURVE SMOOTH",
"531 420 OFFCURVE",
"542 431 OFFCURVE",
"555 431 CURVE SMOOTH",
"568 431 OFFCURVE",
"579 420 OFFCURVE",
"579 407 CURVE SMOOTH",
"579 394 OFFCURVE",
"568 383 OFFCURVE",
"555 383 CURVE SMOOTH"
);
},
{
closed = 1;
nodes = (
"277 255 OFFCURVE",
"282 268 OFFCURVE",
"295 274 CURVE SMOOTH",
"308 280 OFFCURVE",
"321 273 OFFCURVE",
"326 260 CURVE SMOOTH",
"344 216 LINE SMOOTH",
"349 203 OFFCURVE",
"344 190 OFFCURVE",
"331 184 CURVE SMOOTH",
"318 178 OFFCURVE",
"305 185 OFFCURVE",
"300 198 CURVE SMOOTH",
"282 242 LINE SMOOTH"
);
},
{
closed = 1;
nodes = (
"478 273 OFFCURVE",
"491 279 OFFCURVE",
"504 274 CURVE SMOOTH",
"517 269 OFFCURVE",
"522 255 OFFCURVE",
"517 242 CURVE SMOOTH",
"499 198 LINE SMOOTH",
"494 185 OFFCURVE",
"481 179 OFFCURVE",
"468 184 CURVE SMOOTH",
"455 189 OFFCURVE",
"450 203 OFFCURVE",
"455 216 CURVE SMOOTH",
"473 260 LINE SMOOTH"
);
},
{
closed = 1;
nodes = (
"659 368 OFFCURVE",
"669 378 OFFCURVE",
"683 378 CURVE SMOOTH",
"697 378 OFFCURVE",
"707 368 OFFCURVE",
"707 354 CURVE SMOOTH",
"707 252 LINE SMOOTH",
"707 238 OFFCURVE",
"697 228 OFFCURVE",
"683 228 CURVE SMOOTH",
"669 228 OFFCURVE",
"659 238 OFFCURVE",
"659 252 CURVE SMOOTH",
"659 354 LINE SMOOTH"
);
},
{
closed = 1;
nodes = (
"659 113 OFFCURVE",
"669 123 OFFCURVE",
"683 123 CURVE SMOOTH",
"697 123 OFFCURVE",
"707 113 OFFCURVE",
"707 99 CURVE SMOOTH",
"707 51 LINE SMOOTH",
"707 37 OFFCURVE",
"697 27 OFFCURVE",
"683 27 CURVE SMOOTH",
"669 27 OFFCURVE",
"659 37 OFFCURVE",
"659 51 CURVE SMOOTH",
"659 99 LINE SMOOTH"
);
}
);
width = 792;
},
{
associatedMasterId = "516EF9F5-8A61-4DB8-B238-FB46D711CD4C";
background = {
paths = (
{
closed = 1;
nodes = (
"150 0 LINE",
"150 520 LINE",
"362 2 LINE",
"440 2 LINE",
"642 520 LINE",
"642 0 LINE",
"724 0 LINE",
"724 650 LINE",
"604 650 LINE",
"402 116 LINE",
"192 650 LINE",
"68 650 LINE",
"68 0 LINE"
);
}
);
};
layerId = "50F4FBBE-9B55-4F12-8722-1DBCB51B9C9E";
name = "Oct 31 19, 18:13";
paths = (
{
closed = 1;
nodes = (
"150 0 LINE",
"150 470 LINE SMOOTH",
"150 475 OFFCURVE",
"147 478 OFFCURVE",
"142 478 CURVE SMOOTH",
"128 478 OFFCURVE",
"118 488 OFFCURVE",
"118 502 CURVE SMOOTH",
"118 516 OFFCURVE",
"128 526 OFFCURVE",
"142 526 CURVE SMOOTH",
"156 526 OFFCURVE",
"166 516 OFFCURVE",
"166 502 CURVE SMOOTH",
"166 489 LINE SMOOTH",
"166 483 OFFCURVE",
"167 479 OFFCURVE",
"169 473 CURVE SMOOTH",
"362 2 LINE",
"440 2 LINE",
"624 473 LINE SMOOTH",
"626 479 OFFCURVE",
"626 483 OFFCURVE",
"626 489 CURVE SMOOTH",
"626 502 LINE SMOOTH",
"626 516 OFFCURVE",
"636 526 OFFCURVE",
"650 526 CURVE SMOOTH",
"664 526 OFFCURVE",
"674 516 OFFCURVE",
"674 502 CURVE SMOOTH",
"674 488 OFFCURVE",
"664 478 OFFCURVE",
"650 478 CURVE SMOOTH",
"645 478 OFFCURVE",
"642 475 OFFCURVE",
"642 470 CURVE SMOOTH",
"642 0 LINE",
"724 0 LINE",
"724 650 LINE",
"604 650 LINE",
"422 170 LINE SMOOTH",
"418 160 OFFCURVE",
"419 155 OFFCURVE",
"423 148 CURVE SMOOTH",
"425 145 OFFCURVE",
"426 140 OFFCURVE",
"426 136 CURVE SMOOTH",
"426 123 OFFCURVE",
"415 112 OFFCURVE",
"402 112 CURVE SMOOTH",
"389 112 OFFCURVE",
"378 123 OFFCURVE",
"378 136 CURVE SMOOTH",
"378 140 OFFCURVE",
"379 144 OFFCURVE",
"381 148 CURVE SMOOTH",
"385 155 OFFCURVE",
"385 160 OFFCURVE",
"381 170 CURVE SMOOTH",
"192 650 LINE",
"68 650 LINE",
"68 0 LINE"
);
},
{
closed = 1;
nodes = (
"85 368 OFFCURVE",
"95 378 OFFCURVE",
"109 378 CURVE SMOOTH",
"123 378 OFFCURVE",
"133 368 OFFCURVE",
"133 354 CURVE SMOOTH",
"133 252 LINE SMOOTH",
"133 238 OFFCURVE",
"123 228 OFFCURVE",
"109 228 CURVE SMOOTH",
"95 228 OFFCURVE",
"85 238 OFFCURVE",
"85 252 CURVE SMOOTH",
"85 354 LINE SMOOTH"
);
},
{
closed = 1;
nodes = (
"85 113 OFFCURVE",
"95 123 OFFCURVE",
"109 123 CURVE SMOOTH",
"123 123 OFFCURVE",
"133 113 OFFCURVE",
"133 99 CURVE SMOOTH",
"133 51 LINE SMOOTH",
"133 37 OFFCURVE",
"123 27 OFFCURVE",
"109 27 CURVE SMOOTH",
"95 27 OFFCURVE",
"85 37 OFFCURVE",
"85 51 CURVE SMOOTH",
"85 99 LINE SMOOTH"
);
},
{
closed = 1;
nodes = (
"659 368 OFFCURVE",
"669 378 OFFCURVE",
"683 378 CURVE SMOOTH",
"697 378 OFFCURVE",
"707 368 OFFCURVE",
"707 354 CURVE SMOOTH",
"707 306 LINE SMOOTH",
"707 292 OFFCURVE",
"697 282 OFFCURVE",
"683 282 CURVE SMOOTH",
"669 282 OFFCURVE",
"659 292 OFFCURVE",
"659 306 CURVE SMOOTH",
"659 354 LINE SMOOTH"
);
},
{
closed = 1;
nodes = (
"659 167 OFFCURVE",
"669 177 OFFCURVE",
"683 177 CURVE SMOOTH",
"697 177 OFFCURVE",
"707 167 OFFCURVE",
"707 153 CURVE SMOOTH",
"707 51 LINE SMOOTH",
"707 37 OFFCURVE",
"697 27 OFFCURVE",
"683 27 CURVE SMOOTH",
"669 27 OFFCURVE",
"659 37 OFFCURVE",
"659 51 CURVE SMOOTH",
"659 153 LINE SMOOTH"
);
},
{
closed = 1;
nodes = (
"229 383 OFFCURVE",
"218 394 OFFCURVE",
"218 407 CURVE SMOOTH",
"218 420 OFFCURVE",
"229 431 OFFCURVE",
"242 431 CURVE SMOOTH",
"255 431 OFFCURVE",
"266 420 OFFCURVE",
"266 407 CURVE SMOOTH",
"266 394 OFFCURVE",
"255 383 OFFCURVE",
"242 383 CURVE SMOOTH"
);
},
{
closed = 1;
nodes = (
"291 228 OFFCURVE",
"280 239 OFFCURVE",
"280 252 CURVE SMOOTH",
"280 265 OFFCURVE",
"291 276 OFFCURVE",
"304 276 CURVE SMOOTH",
"317 276 OFFCURVE",
"328 265 OFFCURVE",
"328 252 CURVE SMOOTH",
"328 239 OFFCURVE",
"317 228 OFFCURVE",
"304 228 CURVE SMOOTH"
);
},
{
closed = 1;
nodes = (
"542 383 OFFCURVE",
"531 394 OFFCURVE",
"531 407 CURVE SMOOTH",
"531 420 OFFCURVE",
"542 431 OFFCURVE",
"555 431 CURVE SMOOTH",
"568 431 OFFCURVE",
"579 420 OFFCURVE",
"579 407 CURVE SMOOTH",
"579 394 OFFCURVE",
"568 383 OFFCURVE",
"555 383 CURVE SMOOTH"
);
},
{
closed = 1;
nodes = (
"482 228 OFFCURVE",
"471 239 OFFCURVE",
"471 252 CURVE SMOOTH",
"471 265 OFFCURVE",
"482 276 OFFCURVE",
"495 276 CURVE SMOOTH",
"508 276 OFFCURVE",
"519 265 OFFCURVE",
"519 252 CURVE SMOOTH",
"519 239 OFFCURVE",
"508 228 OFFCURVE",
"495 228 CURVE SMOOTH"
);
}
);
width = 792;
}
);
leftMetricsKey = l;
rightMetricsKey = l;
unicode = 004D;
},
{
glyphname = N;
lastChange = "2019-11-03 18:09:53 +0000";
layers = (
{
background = {
hints = (
{
horizontal = 1;
place = "{0, 21}";
target = up;
type = BottomGhost;
},
{
horizontal = 1;
place = "{722, -20}";
target = down;
type = TopGhost;
},
{
place = "{77, 96}";
type = Stem;
},
{
place = "{584, 96}";
type = Stem;
},
{
horizontal = 1;
place = "{595, 127}";
type = Stem;
},
{
horizontal = 1;
place = "{0, 151}";
type = Stem;
}
);
paths = (
{
closed = 1;
nodes = (
"150 0 LINE",
"150 526 LINE",
"520 0 LINE",
"612 0 LINE",
"612 650 LINE",
"530 650 LINE",
"530 132 LINE",
"172 650 LINE",
"68 650 LINE",
"68 0 LINE"
);
}
);
};
layerId = "8007C042-6FBA-4E49-99B8-8B738A4EBE86";
paths = (
{
closed = 1;
nodes = (
"150 0 LINE",
"150 526 LINE",
"520 0 LINE",
"612 0 LINE",
"612 650 LINE",
"530 650 LINE",
"530 132 LINE",
"172 650 LINE",
"68 650 LINE",
"68 0 LINE"
);
}
);
width = 680;
},
{
background = {
paths = (
{
closed = 1;
nodes = (
"150 0 LINE",
"150 526 LINE",
"520 0 LINE",
"612 0 LINE",
"612 650 LINE",
"530 650 LINE",
"530 132 LINE",
"172 650 LINE",
"68 650 LINE",
"68 0 LINE"
);
}
);
};
layerId = "516EF9F5-8A61-4DB8-B238-FB46D711CD4C";
paths = (
{
closed = 1;
nodes = (
"150 0 LINE",
"150 494 LINE SMOOTH",
"150 499 OFFCURVE",
"147 502 OFFCURVE",
"142 502 CURVE SMOOTH",
"128 502 OFFCURVE",
"118 512 OFFCURVE",
"118 526 CURVE SMOOTH",
"118 540 OFFCURVE",
"128 550 OFFCURVE",
"142 550 CURVE SMOOTH",
"156 550 OFFCURVE",
"166 540 OFFCURVE",
"166 526 CURVE SMOOTH",
"166 513 LINE SMOOTH",
"166 507 OFFCURVE",
"166 503 OFFCURVE",
"170 497 CURVE SMOOTH",
"520 0 LINE",
"612 0 LINE",
"612 650 LINE",
"530 650 LINE",
"530 164 LINE SMOOTH",
"530 159 OFFCURVE",
"533 156 OFFCURVE",
"538 156 CURVE SMOOTH",
"552 156 OFFCURVE",
"562 146 OFFCURVE",
"562 132 CURVE SMOOTH",
"562 118 OFFCURVE",
"552 108 OFFCURVE",
"538 108 CURVE SMOOTH",
"524 108 OFFCURVE",
"514 118 OFFCURVE",
"514 132 CURVE SMOOTH",
"514 145 LINE SMOOTH",
"514 151 OFFCURVE",
"514 155 OFFCURVE",
"510 161 CURVE SMOOTH",
"172 650 LINE",
"68 650 LINE",
"68 0 LINE"
);
},
{
closed = 1;
nodes = (
"274 383 OFFCURVE",
"263 394 OFFCURVE",
"263 407 CURVE SMOOTH",
"263 420 OFFCURVE",
"274 431 OFFCURVE",
"287 431 CURVE SMOOTH",
"300 431 OFFCURVE",
"311 420 OFFCURVE",
"311 407 CURVE SMOOTH",
"311 394 OFFCURVE",
"300 383 OFFCURVE",
"287 383 CURVE SMOOTH"
);
},
{
closed = 1;
nodes = (
"85 368 OFFCURVE",
"95 378 OFFCURVE",
"109 378 CURVE SMOOTH",
"123 378 OFFCURVE",
"133 368 OFFCURVE",
"133 354 CURVE SMOOTH",
"133 252 LINE SMOOTH",
"133 238 OFFCURVE",
"123 228 OFFCURVE",
"109 228 CURVE SMOOTH",
"95 228 OFFCURVE",
"85 238 OFFCURVE",
"85 252 CURVE SMOOTH",
"85 354 LINE SMOOTH"
);
},
{
closed = 1;
nodes = (
"85 113 OFFCURVE",
"95 123 OFFCURVE",
"109 123 CURVE SMOOTH",
"123 123 OFFCURVE",
"133 113 OFFCURVE",
"133 99 CURVE SMOOTH",
"133 51 LINE SMOOTH",
"133 37 OFFCURVE",
"123 27 OFFCURVE",
"109 27 CURVE SMOOTH",
"95 27 OFFCURVE",
"85 37 OFFCURVE",
"85 51 CURVE SMOOTH",
"85 99 LINE SMOOTH"
);
},
{
closed = 1;
nodes = (
"547 613 OFFCURVE",
"557 623 OFFCURVE",
"571 623 CURVE SMOOTH",
"585 623 OFFCURVE",
"595 613 OFFCURVE",
"595 599 CURVE SMOOTH",
"595 551 LINE SMOOTH",
"595 537 OFFCURVE",
"585 527 OFFCURVE",
"571 527 CURVE SMOOTH",
"557 527 OFFCURVE",
"547 537 OFFCURVE",
"547 551 CURVE SMOOTH",
"547 599 LINE SMOOTH"
);
},
{
closed = 1;
nodes = (
"547 422 OFFCURVE",
"557 432 OFFCURVE",
"571 432 CURVE SMOOTH",
"585 432 OFFCURVE",
"595 422 OFFCURVE",
"595 408 CURVE SMOOTH",
"595 306 LINE SMOOTH",
"595 292 OFFCURVE",
"585 282 OFFCURVE",
"571 282 CURVE SMOOTH",
"557 282 OFFCURVE",
"547 292 OFFCURVE",
"547 306 CURVE SMOOTH",
"547 408 LINE SMOOTH"
);
},
{
closed = 1;
nodes = (
"371 250 OFFCURVE",
"372 264 OFFCURVE",
"384 272 CURVE SMOOTH",
"396 280 OFFCURVE",
"409 277 OFFCURVE",
"417 265 CURVE SMOOTH",
"444 225 LINE SMOOTH",
"452 214 OFFCURVE",
"449 200 OFFCURVE",
"438 192 CURVE SMOOTH",
"426 184 OFFCURVE",
"412 187 OFFCURVE",
"404 199 CURVE SMOOTH",
"378 239 LINE SMOOTH"
);
}
);
width = 680;
}
);
leftMetricsKey = l;
rightMetricsKey = l;
unicode = 004E;
},
{
glyphname = O;
lastChange = "2019-11-01 10:53:37 +0000";
layers = (
{
background = {
hints = (
{
horizontal = 1;
place = "{-13, 88}";
type = Stem;
},
{
horizontal = 1;
place = "{653, 88}";
type = Stem;
},
{
place = "{47, 100}";
type = Stem;
},
{
place = "{663, 99}";
type = Stem;
}
);
paths = (
{
closed = 1;
nodes = (
"561 -12 OFFCURVE",
"698 129 OFFCURVE",
"698 325 CURVE SMOOTH",
"698 522 OFFCURVE",
"561 662 OFFCURVE",
"373 662 CURVE SMOOTH",
"185 662 OFFCURVE",
"48 521 OFFCURVE",
"48 325 CURVE SMOOTH",
"48 129 OFFCURVE",
"185 -12 OFFCURVE",
"373 -12 CURVE SMOOTH"
);
},
{
closed = 1;
nodes = (
"237 72 OFFCURVE",
"136 179 OFFCURVE",
"136 325 CURVE SMOOTH",
"136 473 OFFCURVE",
"237 580 OFFCURVE",
"373 580 CURVE SMOOTH",
"509 580 OFFCURVE",
"610 473 OFFCURVE",
"610 325 CURVE SMOOTH",
"610 179 OFFCURVE",
"509 72 OFFCURVE",
"373 72 CURVE SMOOTH"
);
}
);
};
layerId = "8007C042-6FBA-4E49-99B8-8B738A4EBE86";
paths = (
{
closed = 1;
nodes = (
"561 -12 OFFCURVE",
"698 129 OFFCURVE",
"698 325 CURVE SMOOTH",
"698 522 OFFCURVE",
"561 662 OFFCURVE",
"373 662 CURVE SMOOTH",
"185 662 OFFCURVE",
"48 521 OFFCURVE",
"48 325 CURVE SMOOTH",
"48 129 OFFCURVE",
"185 -12 OFFCURVE",
"373 -12 CURVE SMOOTH"
);
},
{
closed = 1;
nodes = (
"237 72 OFFCURVE",
"136 179 OFFCURVE",
"136 325 CURVE SMOOTH",
"136 473 OFFCURVE",
"237 580 OFFCURVE",
"373 580 CURVE SMOOTH",
"509 580 OFFCURVE",
"610 473 OFFCURVE",
"610 325 CURVE SMOOTH",
"610 179 OFFCURVE",
"509 72 OFFCURVE",
"373 72 CURVE SMOOTH"
);
}
);
width = 746;
},
{
associatedMasterId = "8007C042-6FBA-4E49-99B8-8B738A4EBE86";
background = {
paths = (
{
closed = 1;
nodes = (
"117 551 OFFCURVE",
"222 693 OFFCURVE",
"386 693 CURVE SMOOTH",
"549 693 OFFCURVE",
"645 551 OFFCURVE",
"645 346 CURVE SMOOTH",
"645 141 OFFCURVE",
"536 0 OFFCURVE",
"372 0 CURVE SMOOTH",
"209 0 OFFCURVE",
"117 141 OFFCURVE",
"117 346 CURVE SMOOTH"
);
},
{
closed = 1;
nodes = (
"27 142 OFFCURVE",
"188 -10 OFFCURVE",
"376 -10 CURVE SMOOTH",
"564 -10 OFFCURVE",
"734 142 OFFCURVE",
"734 346 CURVE SMOOTH",
"734 551 OFFCURVE",
"570 703 OFFCURVE",
"382 703 CURVE SMOOTH",
"194 703 OFFCURVE",
"27 555 OFFCURVE",
"27 346 CURVE SMOOTH"
);
}
);
};
layerId = "8A94DEEB-6D15-4327-81AA-AA1EEC67EE81";
name = "Oct 18 17, 12:45";
paths = (
{
closed = 1;
nodes = (
"576 -10 OFFCURVE",
"722 143 OFFCURVE",
"722 346 CURVE SMOOTH",
"722 549 OFFCURVE",
"576 702 OFFCURVE",
"381 702 CURVE SMOOTH",
"186 702 OFFCURVE",
"40 549 OFFCURVE",
"40 346 CURVE SMOOTH",
"40 143 OFFCURVE",
"186 -10 OFFCURVE",
"381 -10 CURVE SMOOTH"
);
},
{
closed = 1;
nodes = (
"235 80 OFFCURVE",
"126 194 OFFCURVE",
"126 346 CURVE SMOOTH",
"126 500 OFFCURVE",
"235 616 OFFCURVE",
"381 616 CURVE SMOOTH",
"527 616 OFFCURVE",
"636 500 OFFCURVE",
"636 346 CURVE SMOOTH",
"636 194 OFFCURVE",
"527 80 OFFCURVE",
"381 80 CURVE SMOOTH"
);
},
{
closed = 1;
nodes = (
"576 -10 OFFCURVE",
"722 143 OFFCURVE",
"722 346 CURVE SMOOTH",
"722 549 OFFCURVE",
"576 702 OFFCURVE",
"381 702 CURVE SMOOTH",
"186 702 OFFCURVE",
"40 549 OFFCURVE",
"40 346 CURVE SMOOTH",
"40 143 OFFCURVE",
"186 -10 OFFCURVE",
"381 -10 CURVE SMOOTH"
);
},
{
closed = 1;
nodes = (
"235 80 OFFCURVE",
"126 194 OFFCURVE",
"126 346 CURVE SMOOTH",
"126 500 OFFCURVE",
"235 616 OFFCURVE",
"381 616 CURVE SMOOTH",
"527 616 OFFCURVE",
"636 500 OFFCURVE",
"636 346 CURVE SMOOTH",
"636 194 OFFCURVE",
"527 80 OFFCURVE",
"381 80 CURVE SMOOTH"
);
}
);
width = 762;
},
{
associatedMasterId = "8007C042-6FBA-4E49-99B8-8B738A4EBE86";
background = {
paths = (
{
closed = 1;
nodes = (
"129 551 OFFCURVE",
"234 693 OFFCURVE",
"398 693 CURVE SMOOTH",
"561 693 OFFCURVE",
"657 551 OFFCURVE",
"657 346 CURVE SMOOTH",
"657 141 OFFCURVE",
"548 0 OFFCURVE",
"384 0 CURVE SMOOTH",
"221 0 OFFCURVE",
"129 141 OFFCURVE",
"129 346 CURVE SMOOTH"
);
},
{
closed = 1;
nodes = (
"39 142 OFFCURVE",
"200 -10 OFFCURVE",
"388 -10 CURVE SMOOTH",
"576 -10 OFFCURVE",
"746 142 OFFCURVE",
"746 346 CURVE SMOOTH",
"746 551 OFFCURVE",
"582 703 OFFCURVE",
"394 703 CURVE SMOOTH",
"206 703 OFFCURVE",
"39 555 OFFCURVE",
"39 346 CURVE SMOOTH"
);
}
);
};
layerId = "83CA2717-A160-4828-86A0-9366DF98647D";
name = "Oct 25 17, 19:30";
paths = (
{
closed = 1;
nodes = (
"610 -10 OFFCURVE",
"738 122 OFFCURVE",
"738 346 CURVE SMOOTH",
"738 570 OFFCURVE",
"610 702 OFFCURVE",
"393 702 CURVE SMOOTH",
"176 702 OFFCURVE",
"48 570 OFFCURVE",
"48 346 CURVE SMOOTH",
"48 122 OFFCURVE",
"176 -10 OFFCURVE",
"393 -10 CURVE SMOOTH"
);
},
{
closed = 1;
nodes = (
"228 76 OFFCURVE",
"130 176 OFFCURVE",
"130 346 CURVE SMOOTH",
"130 517 OFFCURVE",
"228 618 OFFCURVE",
"393 618 CURVE SMOOTH",
"558 618 OFFCURVE",
"656 517 OFFCURVE",
"656 346 CURVE SMOOTH",
"656 176 OFFCURVE",
"558 76 OFFCURVE",
"393 76 CURVE SMOOTH"
);
},
{
closed = 1;
nodes = (
"610 -10 OFFCURVE",
"738 122 OFFCURVE",
"738 346 CURVE SMOOTH",
"738 570 OFFCURVE",
"610 702 OFFCURVE",
"393 702 CURVE SMOOTH",
"176 702 OFFCURVE",
"48 570 OFFCURVE",
"48 346 CURVE SMOOTH",
"48 122 OFFCURVE",
"176 -10 OFFCURVE",
"393 -10 CURVE SMOOTH"
);
},
{
closed = 1;
nodes = (
"228 76 OFFCURVE",
"130 176 OFFCURVE",
"130 346 CURVE SMOOTH",
"130 517 OFFCURVE",
"228 618 OFFCURVE",
"393 618 CURVE SMOOTH",
"558 618 OFFCURVE",
"656 517 OFFCURVE",
"656 346 CURVE SMOOTH",
"656 176 OFFCURVE",
"558 76 OFFCURVE",
"393 76 CURVE SMOOTH"
);
}
);
width = 786;
},
{
background = {
paths = (
{
closed = 1;
nodes = (
"561 -12 OFFCURVE",
"698 129 OFFCURVE",
"698 325 CURVE SMOOTH",
"698 522 OFFCURVE",
"561 662 OFFCURVE",
"373 662 CURVE SMOOTH",
"185 662 OFFCURVE",
"48 521 OFFCURVE",
"48 325 CURVE SMOOTH",
"48 129 OFFCURVE",
"185 -12 OFFCURVE",
"373 -12 CURVE SMOOTH"
);
},
{
closed = 1;
nodes = (
"237 72 OFFCURVE",
"136 179 OFFCURVE",
"136 325 CURVE SMOOTH",
"136 473 OFFCURVE",
"237 580 OFFCURVE",
"373 580 CURVE SMOOTH",
"509 580 OFFCURVE",
"610 473 OFFCURVE",
"610 325 CURVE SMOOTH",
"610 179 OFFCURVE",
"509 72 OFFCURVE",
"373 72 CURVE SMOOTH"
);
}
);
};
layerId = "516EF9F5-8A61-4DB8-B238-FB46D711CD4C";
paths = (
{
closed = 1;
nodes = (
"561 -12 OFFCURVE",
"698 129 OFFCURVE",
"698 325 CURVE SMOOTH",
"698 522 OFFCURVE",
"561 662 OFFCURVE",
"373 662 CURVE SMOOTH",
"185 662 OFFCURVE",
"48 521 OFFCURVE",
"48 325 CURVE SMOOTH",
"48 129 OFFCURVE",
"185 -12 OFFCURVE",
"373 -12 CURVE SMOOTH"
);
},
{
closed = 1;
nodes = (
"237 72 OFFCURVE",
"136 179 OFFCURVE",
"136 325 CURVE SMOOTH",
"136 473 OFFCURVE",
"237 580 OFFCURVE",
"373 580 CURVE SMOOTH",
"509 580 OFFCURVE",
"610 473 OFFCURVE",
"610 325 CURVE SMOOTH",
"610 179 OFFCURVE",
"509 72 OFFCURVE",
"373 72 CURVE SMOOTH"
);
},
{
closed = 1;
nodes = (
"562 510 OFFCURVE",
"551 521 OFFCURVE",
"551 534 CURVE SMOOTH",
"551 547 OFFCURVE",
"562 558 OFFCURVE",
"575 558 CURVE SMOOTH",
"588 558 OFFCURVE",
"599 547 OFFCURVE",
"599 534 CURVE SMOOTH",
"599 521 OFFCURVE",
"588 510 OFFCURVE",
"575 510 CURVE SMOOTH"
);
},
{
closed = 1;
nodes = (
"158 510 OFFCURVE",
"147 521 OFFCURVE",
"147 534 CURVE SMOOTH",
"147 547 OFFCURVE",
"158 558 OFFCURVE",
"171 558 CURVE SMOOTH",
"184 558 OFFCURVE",
"195 547 OFFCURVE",
"195 534 CURVE SMOOTH",
"195 521 OFFCURVE",
"184 510 OFFCURVE",
"171 510 CURVE SMOOTH"
);
},
{
closed = 1;
nodes = (
"411 55 OFFCURVE",
"423 47 OFFCURVE",
"423 33 CURVE SMOOTH",
"423 21 OFFCURVE",
"415 13 OFFCURVE",
"401 10 CURVE SMOOTH",
"385 7 OFFCURVE",
"361 7 OFFCURVE",
"345 10 CURVE SMOOTH",
"331 13 OFFCURVE",
"323 21 OFFCURVE",
"323 33 CURVE SMOOTH",
"323 47 OFFCURVE",
"335 55 OFFCURVE",
"349 53 CURVE SMOOTH",
"363 51 OFFCURVE",
"383 51 OFFCURVE",
"397 53 CURVE SMOOTH"
);
},
{
closed = 1;
nodes = (
"383 599 OFFCURVE",
"363 599 OFFCURVE",
"349 597 CURVE SMOOTH",
"335 595 OFFCURVE",
"323 603 OFFCURVE",
"323 617 CURVE SMOOTH",
"323 629 OFFCURVE",
"331 637 OFFCURVE",
"345 640 CURVE SMOOTH",
"361 643 OFFCURVE",
"385 643 OFFCURVE",
"401 640 CURVE SMOOTH",
"415 637 OFFCURVE",
"423 629 OFFCURVE",
"423 617 CURVE SMOOTH",
"423 603 OFFCURVE",
"411 595 OFFCURVE",
"397 597 CURVE SMOOTH"
);
},
{
closed = 1;
nodes = (
"118 287 OFFCURVE",
"110 275 OFFCURVE",
"96 275 CURVE SMOOTH",
"84 275 OFFCURVE",
"76 283 OFFCURVE",
"73 297 CURVE SMOOTH",
"70 313 OFFCURVE",
"70 337 OFFCURVE",
"73 353 CURVE SMOOTH",
"76 367 OFFCURVE",
"84 375 OFFCURVE",
"96 375 CURVE SMOOTH",
"110 375 OFFCURVE",
"118 363 OFFCURVE",
"116 349 CURVE SMOOTH",
"114 335 OFFCURVE",
"114 315 OFFCURVE",
"116 301 CURVE SMOOTH"
);
},
{
closed = 1;
nodes = (
"632 315 OFFCURVE",
"632 335 OFFCURVE",
"630 349 CURVE SMOOTH",
"628 363 OFFCURVE",
"636 375 OFFCURVE",
"650 375 CURVE SMOOTH",
"662 375 OFFCURVE",
"670 367 OFFCURVE",
"673 353 CURVE SMOOTH",
"676 337 OFFCURVE",
"676 313 OFFCURVE",
"673 297 CURVE SMOOTH",
"670 283 OFFCURVE",
"662 275 OFFCURVE",
"650 275 CURVE SMOOTH",
"636 275 OFFCURVE",
"628 287 OFFCURVE",
"630 301 CURVE SMOOTH"
);
},
{
closed = 1;
nodes = (
"588 138 OFFCURVE",
"599 127 OFFCURVE",
"599 114 CURVE SMOOTH",
"599 101 OFFCURVE",
"588 90 OFFCURVE",
"575 90 CURVE SMOOTH",
"562 90 OFFCURVE",
"551 101 OFFCURVE",
"551 114 CURVE SMOOTH",
"551 127 OFFCURVE",
"562 138 OFFCURVE",
"575 138 CURVE SMOOTH"
);
},
{
closed = 1;
nodes = (
"184 138 OFFCURVE",
"195 127 OFFCURVE",
"195 114 CURVE SMOOTH",
"195 101 OFFCURVE",
"184 90 OFFCURVE",
"171 90 CURVE SMOOTH",
"158 90 OFFCURVE",
"147 101 OFFCURVE",
"147 114 CURVE SMOOTH",
"147 127 OFFCURVE",
"158 138 OFFCURVE",
"171 138 CURVE SMOOTH"
);
}
);
width = 746;
},
{
associatedMasterId = "516EF9F5-8A61-4DB8-B238-FB46D711CD4C";
background = {
paths = (
{
closed = 1;
nodes = (
"117 551 OFFCURVE",
"222 693 OFFCURVE",
"386 693 CURVE SMOOTH",
"549 693 OFFCURVE",
"645 551 OFFCURVE",
"645 346 CURVE SMOOTH",
"645 141 OFFCURVE",
"536 0 OFFCURVE",
"372 0 CURVE SMOOTH",
"209 0 OFFCURVE",
"117 141 OFFCURVE",
"117 346 CURVE SMOOTH"
);
},
{
closed = 1;
nodes = (
"27 142 OFFCURVE",
"188 -10 OFFCURVE",
"376 -10 CURVE SMOOTH",
"564 -10 OFFCURVE",
"734 142 OFFCURVE",
"734 346 CURVE SMOOTH",
"734 551 OFFCURVE",
"570 703 OFFCURVE",
"382 703 CURVE SMOOTH",
"194 703 OFFCURVE",
"27 555 OFFCURVE",
"27 346 CURVE SMOOTH"
);
}
);
};
layerId = "3850E66C-84AD-470D-BEB8-1FC390F55C5C";
name = "Oct 18 17, 12:45";
paths = (
{
closed = 1;
nodes = (
"576 -10 OFFCURVE",
"722 143 OFFCURVE",
"722 346 CURVE SMOOTH",
"722 549 OFFCURVE",
"576 702 OFFCURVE",
"381 702 CURVE SMOOTH",
"186 702 OFFCURVE",
"40 549 OFFCURVE",
"40 346 CURVE SMOOTH",
"40 143 OFFCURVE",
"186 -10 OFFCURVE",
"381 -10 CURVE SMOOTH"
);
},
{
closed = 1;
nodes = (
"235 80 OFFCURVE",
"126 194 OFFCURVE",
"126 346 CURVE SMOOTH",
"126 500 OFFCURVE",
"235 616 OFFCURVE",
"381 616 CURVE SMOOTH",
"527 616 OFFCURVE",
"636 500 OFFCURVE",
"636 346 CURVE SMOOTH",
"636 194 OFFCURVE",
"527 80 OFFCURVE",
"381 80 CURVE SMOOTH"
);
},
{
closed = 1;
nodes = (
"576 -10 OFFCURVE",
"722 143 OFFCURVE",
"722 346 CURVE SMOOTH",
"722 549 OFFCURVE",
"576 702 OFFCURVE",
"381 702 CURVE SMOOTH",
"186 702 OFFCURVE",
"40 549 OFFCURVE",
"40 346 CURVE SMOOTH",
"40 143 OFFCURVE",
"186 -10 OFFCURVE",
"381 -10 CURVE SMOOTH"
);
},
{
closed = 1;
nodes = (
"235 80 OFFCURVE",
"126 194 OFFCURVE",
"126 346 CURVE SMOOTH",
"126 500 OFFCURVE",
"235 616 OFFCURVE",
"381 616 CURVE SMOOTH",
"527 616 OFFCURVE",
"636 500 OFFCURVE",
"636 346 CURVE SMOOTH",
"636 194 OFFCURVE",
"527 80 OFFCURVE",
"381 80 CURVE SMOOTH"
);
}
);
width = 762;
},
{
associatedMasterId = "516EF9F5-8A61-4DB8-B238-FB46D711CD4C";
background = {
paths = (
{
closed = 1;
nodes = (
"129 551 OFFCURVE",
"234 693 OFFCURVE",
"398 693 CURVE SMOOTH",
"561 693 OFFCURVE",
"657 551 OFFCURVE",
"657 346 CURVE SMOOTH",
"657 141 OFFCURVE",
"548 0 OFFCURVE",
"384 0 CURVE SMOOTH",
"221 0 OFFCURVE",
"129 141 OFFCURVE",
"129 346 CURVE SMOOTH"
);
},
{
closed = 1;
nodes = (
"39 142 OFFCURVE",
"200 -10 OFFCURVE",
"388 -10 CURVE SMOOTH",
"576 -10 OFFCURVE",
"746 142 OFFCURVE",
"746 346 CURVE SMOOTH",
"746 551 OFFCURVE",
"582 703 OFFCURVE",
"394 703 CURVE SMOOTH",
"206 703 OFFCURVE",
"39 555 OFFCURVE",
"39 346 CURVE SMOOTH"
);
}
);
};
layerId = "7CC0F0E1-F85F-46A1-A57D-9C4D5AB5E7E5";
name = "Oct 25 17, 19:30";
paths = (
{
closed = 1;
nodes = (
"610 -10 OFFCURVE",
"738 122 OFFCURVE",
"738 346 CURVE SMOOTH",
"738 570 OFFCURVE",
"610 702 OFFCURVE",
"393 702 CURVE SMOOTH",
"176 702 OFFCURVE",
"48 570 OFFCURVE",
"48 346 CURVE SMOOTH",
"48 122 OFFCURVE",
"176 -10 OFFCURVE",
"393 -10 CURVE SMOOTH"
);
},
{
closed = 1;
nodes = (
"228 76 OFFCURVE",
"130 176 OFFCURVE",
"130 346 CURVE SMOOTH",
"130 517 OFFCURVE",
"228 618 OFFCURVE",
"393 618 CURVE SMOOTH",
"558 618 OFFCURVE",
"656 517 OFFCURVE",
"656 346 CURVE SMOOTH",
"656 176 OFFCURVE",
"558 76 OFFCURVE",
"393 76 CURVE SMOOTH"
);
},
{
closed = 1;
nodes = (
"610 -10 OFFCURVE",
"738 122 OFFCURVE",
"738 346 CURVE SMOOTH",
"738 570 OFFCURVE",
"610 702 OFFCURVE",
"393 702 CURVE SMOOTH",
"176 702 OFFCURVE",
"48 570 OFFCURVE",
"48 346 CURVE SMOOTH",
"48 122 OFFCURVE",
"176 -10 OFFCURVE",
"393 -10 CURVE SMOOTH"
);
},
{
closed = 1;
nodes = (
"228 76 OFFCURVE",
"130 176 OFFCURVE",
"130 346 CURVE SMOOTH",
"130 517 OFFCURVE",
"228 618 OFFCURVE",
"393 618 CURVE SMOOTH",
"558 618 OFFCURVE",
"656 517 OFFCURVE",
"656 346 CURVE SMOOTH",
"656 176 OFFCURVE",
"558 76 OFFCURVE",
"393 76 CURVE SMOOTH"
);
}
);
width = 786;
}
);
leftKerningGroup = O;
rightKerningGroup = O;
unicode = 004F;
},
{
glyphname = P;
lastChange = "2019-10-27 10:01:36 +0000";
layers = (
{
background = {
hints = (
{
horizontal = 1;
place = "{0, 21}";
target = up;
type = BottomGhost;
},
{
horizontal = 1;
place = "{278, 86}";
type = Stem;
},
{
horizontal = 1;
place = "{636, 86}";
type = Stem;
},
{
place = "{77, 96}";
type = Stem;
},
{
place = "{524, 97}";
type = Stem;
}
);
paths = (
{
closed = 1;
nodes = (
"150 650 LINE",
"150 0 LINE",
"68 0 LINE",
"68 650 LINE"
);
},
{
closed = 1;
nodes = (
"150 322 LINE",
"330 322 LINE SMOOTH",
"404 322 OFFCURVE",
"458 374 OFFCURVE",
"458 446 CURVE SMOOTH",
"458 518 OFFCURVE",
"406 570 OFFCURVE",
"334 570 CURVE SMOOTH",
"150 570 LINE",
"150 650 LINE",
"330 650 LINE SMOOTH",
"454 650 OFFCURVE",
"542 566 OFFCURVE",
"542 448 CURVE SMOOTH",
"542 328 OFFCURVE",
"453 243 OFFCURVE",
"327 243 CURVE SMOOTH",
"150 243 LINE"
);
}
);
};
layerId = "8007C042-6FBA-4E49-99B8-8B738A4EBE86";
paths = (
{
closed = 1;
nodes = (
"150 650 LINE",
"150 0 LINE",
"68 0 LINE",
"68 650 LINE"
);
},
{
closed = 1;
nodes = (
"150 322 LINE",
"330 322 LINE SMOOTH",
"404 322 OFFCURVE",
"458 374 OFFCURVE",
"458 446 CURVE SMOOTH",
"458 518 OFFCURVE",
"406 570 OFFCURVE",
"334 570 CURVE SMOOTH",
"150 570 LINE",
"150 650 LINE",
"330 650 LINE SMOOTH",
"454 650 OFFCURVE",
"542 566 OFFCURVE",
"542 448 CURVE SMOOTH",
"542 328 OFFCURVE",
"453 243 OFFCURVE",
"327 243 CURVE SMOOTH",
"150 243 LINE"
);
}
);
width = 562;
},
{
background = {
paths = (
{
closed = 1;
nodes = (
"150 650 LINE",
"150 0 LINE",
"68 0 LINE",
"68 650 LINE"
);
},
{
closed = 1;
nodes = (
"150 322 LINE",
"330 322 LINE SMOOTH",
"404 322 OFFCURVE",
"458 374 OFFCURVE",
"458 446 CURVE SMOOTH",
"458 518 OFFCURVE",
"406 570 OFFCURVE",
"334 570 CURVE SMOOTH",
"150 570 LINE",
"150 650 LINE",
"330 650 LINE SMOOTH",
"454 650 OFFCURVE",
"542 566 OFFCURVE",
"542 448 CURVE SMOOTH",
"542 328 OFFCURVE",
"453 243 OFFCURVE",
"327 243 CURVE SMOOTH",
"150 243 LINE"
);
}
);
};
layerId = "516EF9F5-8A61-4DB8-B238-FB46D711CD4C";
paths = (
{
closed = 1;
nodes = (
"150 0 LINE",
"150 219 LINE SMOOTH",
"150 224 OFFCURVE",
"147 227 OFFCURVE",
"142 227 CURVE SMOOTH",
"129 227 OFFCURVE",
"118 238 OFFCURVE",
"118 251 CURVE SMOOTH",
"118 264 OFFCURVE",
"129 275 OFFCURVE",
"142 275 CURVE SMOOTH",
"155 275 OFFCURVE",
"166 264 OFFCURVE",
"166 251 CURVE SMOOTH",
"166 246 OFFCURVE",
"169 243 OFFCURVE",
"174 243 CURVE SMOOTH",
"327 243 LINE SMOOTH",
"453 243 OFFCURVE",
"542 328 OFFCURVE",
"542 448 CURVE SMOOTH",
"542 566 OFFCURVE",
"454 650 OFFCURVE",
"330 650 CURVE SMOOTH",
"68 650 LINE",
"68 0 LINE"
);
},
{
closed = 1;
nodes = (
"118 327 OFFCURVE",
"129 338 OFFCURVE",
"142 338 CURVE SMOOTH",
"147 338 OFFCURVE",
"150 341 OFFCURVE",
"150 346 CURVE SMOOTH",
"150 546 LINE SMOOTH",
"150 551 OFFCURVE",
"147 554 OFFCURVE",
"142 554 CURVE SMOOTH",
"129 554 OFFCURVE",
"118 565 OFFCURVE",
"118 578 CURVE SMOOTH",
"118 591 OFFCURVE",
"129 602 OFFCURVE",
"142 602 CURVE SMOOTH",
"155 602 OFFCURVE",
"166 591 OFFCURVE",
"166 578 CURVE SMOOTH",
"166 573 OFFCURVE",
"169 570 OFFCURVE",
"174 570 CURVE SMOOTH",
"334 570 LINE SMOOTH",
"406 570 OFFCURVE",
"458 518 OFFCURVE",
"458 446 CURVE SMOOTH",
"458 374 OFFCURVE",
"404 322 OFFCURVE",
"330 322 CURVE SMOOTH",
"174 322 LINE SMOOTH",
"169 322 OFFCURVE",
"166 319 OFFCURVE",
"166 314 CURVE SMOOTH",
"166 301 OFFCURVE",
"155 290 OFFCURVE",
"142 290 CURVE SMOOTH",
"129 290 OFFCURVE",
"118 301 OFFCURVE",
"118 314 CURVE SMOOTH"
);
},
{
closed = 1;
nodes = (
"85 113 OFFCURVE",
"95 123 OFFCURVE",
"109 123 CURVE SMOOTH",
"123 123 OFFCURVE",
"133 113 OFFCURVE",
"133 99 CURVE SMOOTH",
"133 51 LINE SMOOTH",
"133 37 OFFCURVE",
"123 27 OFFCURVE",
"109 27 CURVE SMOOTH",
"95 27 OFFCURVE",
"85 37 OFFCURVE",
"85 51 CURVE SMOOTH",
"85 99 LINE SMOOTH"
);
},
{
closed = 1;
nodes = (
"348 634 OFFCURVE",
"358 624 OFFCURVE",
"358 610 CURVE SMOOTH",
"358 596 OFFCURVE",
"348 586 OFFCURVE",
"334 586 CURVE SMOOTH",
"286 586 LINE SMOOTH",
"272 586 OFFCURVE",
"262 596 OFFCURVE",
"262 610 CURVE SMOOTH",
"262 624 OFFCURVE",
"272 634 OFFCURVE",
"286 634 CURVE SMOOTH",
"334 634 LINE SMOOTH"
);
},
{
closed = 1;
nodes = (
"487 424 OFFCURVE",
"476 435 OFFCURVE",
"476 448 CURVE SMOOTH",
"476 461 OFFCURVE",
"487 472 OFFCURVE",
"500 472 CURVE SMOOTH",
"513 472 OFFCURVE",
"524 461 OFFCURVE",
"524 448 CURVE SMOOTH",
"524 435 OFFCURVE",
"513 424 OFFCURVE",
"500 424 CURVE SMOOTH"
);
},
{
closed = 1;
nodes = (
"344 307 OFFCURVE",
"354 297 OFFCURVE",
"354 283 CURVE SMOOTH",
"354 269 OFFCURVE",
"344 259 OFFCURVE",
"330 259 CURVE SMOOTH",
"316 259 OFFCURVE",
"306 269 OFFCURVE",
"306 283 CURVE SMOOTH",
"306 297 OFFCURVE",
"316 307 OFFCURVE",
"330 307 CURVE SMOOTH"
);
}
);
width = 562;
}
);
leftMetricsKey = l;
unicode = 0050;
},
{
glyphname = Q;
lastChange = "2019-11-01 10:53:58 +0000";
layers = (
{
background = {
hints = (
{
horizontal = 1;
place = "{0, 78}";
type = Stem;
},
{
horizontal = 1;
place = "{653, 88}";
type = Stem;
},
{
place = "{47, 100}";
type = Stem;
},
{
place = "{667, 99}";
type = Stem;
},
{
horizontal = 1;
place = "{0, 87}";
type = Stem;
}
);
paths = (
{
closed = 1;
nodes = (
"48 129 OFFCURVE",
"185 -12 OFFCURVE",
"373 -12 CURVE SMOOTH",
"437 -12 OFFCURVE",
"492 4 OFFCURVE",
"540 36 CURVE",
"603 -50 LINE",
"665 2 LINE",
"601 84 LINE",
"657 140 OFFCURVE",
"698 229 OFFCURVE",
"698 325 CURVE SMOOTH",
"698 521 OFFCURVE",
"561 662 OFFCURVE",
"373 662 CURVE SMOOTH",
"185 662 OFFCURVE",
"48 521 OFFCURVE",
"48 325 CURVE SMOOTH"
);
},
{
closed = 1;
nodes = (
"136 473 OFFCURVE",
"237 580 OFFCURVE",
"373 580 CURVE SMOOTH",
"509 580 OFFCURVE",
"610 473 OFFCURVE",
"610 325 CURVE SMOOTH",
"610 257 OFFCURVE",
"589 197 OFFCURVE",
"553 153 CURVE",
"394 368 LINE",
"330 316 LINE",
"494 101 LINE",
"462 81 OFFCURVE",
"417 72 OFFCURVE",
"373 72 CURVE SMOOTH",
"237 72 OFFCURVE",
"136 179 OFFCURVE",
"136 325 CURVE SMOOTH"
);
}
);
};
layerId = "8007C042-6FBA-4E49-99B8-8B738A4EBE86";
paths = (
{
closed = 1;
nodes = (
"48 129 OFFCURVE",
"185 -12 OFFCURVE",
"373 -12 CURVE SMOOTH",
"437 -12 OFFCURVE",
"492 4 OFFCURVE",
"540 36 CURVE",
"603 -50 LINE",
"665 2 LINE",
"601 84 LINE",
"657 140 OFFCURVE",
"698 229 OFFCURVE",
"698 325 CURVE SMOOTH",
"698 521 OFFCURVE",
"561 662 OFFCURVE",
"373 662 CURVE SMOOTH",
"185 662 OFFCURVE",
"48 521 OFFCURVE",
"48 325 CURVE SMOOTH"
);
},
{
closed = 1;
nodes = (
"136 473 OFFCURVE",
"237 580 OFFCURVE",
"373 580 CURVE SMOOTH",
"509 580 OFFCURVE",
"610 473 OFFCURVE",
"610 325 CURVE SMOOTH",
"610 257 OFFCURVE",
"589 197 OFFCURVE",
"553 153 CURVE",
"394 368 LINE",
"330 316 LINE",
"494 101 LINE",
"462 81 OFFCURVE",
"417 72 OFFCURVE",
"373 72 CURVE SMOOTH",
"237 72 OFFCURVE",
"136 179 OFFCURVE",
"136 325 CURVE SMOOTH"
);
}
);
width = 750;
},
{
associatedMasterId = "8007C042-6FBA-4E49-99B8-8B738A4EBE86";
background = {
paths = (
{
closed = 1;
nodes = (
"147 554 OFFCURVE",
"252 693 OFFCURVE",
"415 693 CURVE SMOOTH",
"578 693 OFFCURVE",
"674 554 OFFCURVE",
"674 351 CURVE SMOOTH",
"674 148 OFFCURVE",
"565 8 OFFCURVE",
"402 8 CURVE SMOOTH",
"239 8 OFFCURVE",
"147 148 OFFCURVE",
"147 351 CURVE SMOOTH"
);
},
{
closed = 1;
nodes = (
"57 164 OFFCURVE",
"193 24 OFFCURVE",
"362 3 CURVE",
"362 -137 OFFCURVE",
"400 -195 OFFCURVE",
"487 -195 CURVE SMOOTH",
"553 -195 OFFCURVE",
"605 -146 OFFCURVE",
"637 -92 CURVE SMOOTH",
"642 -83 OFFCURVE",
"629 -78 OFFCURVE",
"625 -86 CURVE SMOOTH",
"602 -133 OFFCURVE",
"575 -167 OFFCURVE",
"543 -167 CURVE SMOOTH",
"460 -167 OFFCURVE",
"446 -103 OFFCURVE",
"446 2 CURVE",
"617 21 OFFCURVE",
"763 163 OFFCURVE",
"763 351 CURVE SMOOTH",
"763 554 OFFCURVE",
"599 703 OFFCURVE",
"411 703 CURVE SMOOTH",
"224 703 OFFCURVE",
"57 557 OFFCURVE",
"57 351 CURVE SMOOTH"
);
}
);
};
layerId = "538CE86E-67EF-410F-9634-139CBEC4CD9F";
name = "Oct 18 17, 00:38";
paths = (
{
closed = 1;
nodes = (
"228 80 OFFCURVE",
"136 179 OFFCURVE",
"136 346 CURVE SMOOTH",
"136 514 OFFCURVE",
"228 614 OFFCURVE",
"385 614 CURVE SMOOTH",
"542 614 OFFCURVE",
"634 514 OFFCURVE",
"634 346 CURVE SMOOTH",
"634 179 OFFCURVE",
"542 80 OFFCURVE",
"385 80 CURVE SMOOTH"
);
},
{
closed = 1;
nodes = (
"48 122 OFFCURVE",
"173 -10 OFFCURVE",
"385 -10 CURVE SMOOTH",
"414 -10 OFFCURVE",
"445 -6 OFFCURVE",
"468 0 CURVE",
"490 -82 OFFCURVE",
"539 -120 OFFCURVE",
"622 -120 CURVE SMOOTH",
"649 -120 OFFCURVE",
"671 -119 OFFCURVE",
"690 -116 CURVE",
"690 -30 LINE",
"676 -33 OFFCURVE",
"661 -34 OFFCURVE",
"642 -34 CURVE SMOOTH",
"590 -34 OFFCURVE",
"558 -16 OFFCURVE",
"543 23 CURVE",
"656 73 OFFCURVE",
"722 193 OFFCURVE",
"722 346 CURVE SMOOTH",
"722 570 OFFCURVE",
"597 702 OFFCURVE",
"385 702 CURVE SMOOTH",
"173 702 OFFCURVE",
"48 570 OFFCURVE",
"48 346 CURVE SMOOTH"
);
}
);
width = 770;
},
{
associatedMasterId = "8007C042-6FBA-4E49-99B8-8B738A4EBE86";
background = {
paths = (
{
closed = 1;
nodes = (
"118 554 OFFCURVE",
"223 693 OFFCURVE",
"386 693 CURVE SMOOTH",
"549 693 OFFCURVE",
"645 554 OFFCURVE",
"645 351 CURVE SMOOTH",
"645 148 OFFCURVE",
"536 8 OFFCURVE",
"373 8 CURVE SMOOTH",
"210 8 OFFCURVE",
"118 148 OFFCURVE",
"118 351 CURVE SMOOTH"
);
},
{
closed = 1;
nodes = (
"28 164 OFFCURVE",
"164 24 OFFCURVE",
"333 3 CURVE",
"333 -137 OFFCURVE",
"371 -195 OFFCURVE",
"458 -195 CURVE SMOOTH",
"524 -195 OFFCURVE",
"576 -146 OFFCURVE",
"608 -92 CURVE SMOOTH",
"613 -83 OFFCURVE",
"600 -78 OFFCURVE",
"596 -86 CURVE SMOOTH",
"573 -133 OFFCURVE",
"546 -167 OFFCURVE",
"514 -167 CURVE SMOOTH",
"431 -167 OFFCURVE",
"417 -103 OFFCURVE",
"417 2 CURVE",
"588 21 OFFCURVE",
"734 163 OFFCURVE",
"734 351 CURVE SMOOTH",
"734 554 OFFCURVE",
"570 703 OFFCURVE",
"382 703 CURVE SMOOTH",
"195 703 OFFCURVE",
"28 557 OFFCURVE",
"28 351 CURVE SMOOTH"
);
}
);
};
layerId = "B67156FE-C025-4FB8-BF0D-75B6ADCED026";
name = "Oct 19 17, 00:09";
paths = (
{
closed = 1;
nodes = (
"521 113 OFFCURVE",
"586 52 OFFCURVE",
"650 -10 CURVE",
"722 58 LINE",
"529 243 LINE",
"457 175 LINE"
);
},
{
closed = 1;
nodes = (
"597 -10 OFFCURVE",
"722 122 OFFCURVE",
"722 346 CURVE SMOOTH",
"722 570 OFFCURVE",
"597 702 OFFCURVE",
"385 702 CURVE SMOOTH",
"173 702 OFFCURVE",
"48 570 OFFCURVE",
"48 346 CURVE SMOOTH",
"48 122 OFFCURVE",
"173 -10 OFFCURVE",
"385 -10 CURVE SMOOTH"
);
},
{
closed = 1;
nodes = (
"225 76 OFFCURVE",
"130 176 OFFCURVE",
"130 346 CURVE SMOOTH",
"130 517 OFFCURVE",
"225 618 OFFCURVE",
"385 618 CURVE SMOOTH",
"545 618 OFFCURVE",
"640 517 OFFCURVE",
"640 346 CURVE SMOOTH",
"640 176 OFFCURVE",
"545 76 OFFCURVE",
"385 76 CURVE SMOOTH"
);
},
{
closed = 1;
nodes = (
"597 -10 OFFCURVE",
"722 122 OFFCURVE",
"722 346 CURVE SMOOTH",
"722 570 OFFCURVE",
"597 702 OFFCURVE",
"385 702 CURVE SMOOTH",
"173 702 OFFCURVE",
"48 570 OFFCURVE",
"48 346 CURVE SMOOTH",
"48 122 OFFCURVE",
"173 -10 OFFCURVE",
"385 -10 CURVE SMOOTH"
);
},
{
closed = 1;
nodes = (
"225 76 OFFCURVE",
"130 176 OFFCURVE",
"130 346 CURVE SMOOTH",
"130 517 OFFCURVE",
"225 618 OFFCURVE",
"385 618 CURVE SMOOTH",
"545 618 OFFCURVE",
"640 517 OFFCURVE",
"640 346 CURVE SMOOTH",
"640 176 OFFCURVE",
"545 76 OFFCURVE",
"385 76 CURVE SMOOTH"
);
}
);
width = 770;
},
{
associatedMasterId = "8007C042-6FBA-4E49-99B8-8B738A4EBE86";
background = {
paths = (
{
closed = 1;
nodes = (
"743 420 OFFCURVE",
"728 482 OFFCURVE",
"697 537 CURVE SMOOTH",
"636 646 OFFCURVE",
"524 710 OFFCURVE",
"395 710 CURVE SMOOTH",
"330 710 OFFCURVE",
"272 695 OFFCURVE",
"219 665 CURVE SMOOTH",
"113 604 OFFCURVE",
"47 490 OFFCURVE",
"47 350 CURVE SMOOTH",
"47 285 OFFCURVE",
"60 227 OFFCURVE",
"87 175 CURVE SMOOTH",
"139 71 OFFCURVE",
"235 6 OFFCURVE",
"351 -7 CURVE",
"370 -92 OFFCURVE",
"466 -160 OFFCURVE",
"567 -172 CURVE",
"598 -106 LINE",
"601 -98 LINE",
"538 -90 OFFCURVE",
"467 -48 OFFCURVE",
"452 -5 CURVE",
"502 -5 OFFCURVE",
"550 12 OFFCURVE",
"595 47 CURVE SMOOTH",
"685 116 OFFCURVE",
"743 234 OFFCURVE",
"743 350 CURVE SMOOTH"
);
},
{
closed = 1;
nodes = (
"645 297 OFFCURVE",
"635 250 OFFCURVE",
"615 209 CURVE SMOOTH",
"574 127 OFFCURVE",
"495 78 OFFCURVE",
"395 78 CURVE SMOOTH",
"345 78 OFFCURVE",
"301 90 OFFCURVE",
"263 113 CURVE SMOOTH",
"187 159 OFFCURVE",
"145 243 OFFCURVE",
"145 350 CURVE SMOOTH",
"145 403 OFFCURVE",
"155 451 OFFCURVE",
"176 492 CURVE SMOOTH",
"216 574 OFFCURVE",
"295 622 OFFCURVE",
"395 622 CURVE SMOOTH",
"445 622 OFFCURVE",
"489 611 OFFCURVE",
"527 588 CURVE SMOOTH",
"603 542 OFFCURVE",
"645 457 OFFCURVE",
"645 350 CURVE SMOOTH"
);
}
);
};
layerId = "7DD38C3F-055F-4FCF-9960-3B2023821635";
name = "Dec 23 17, 17:39";
paths = (
{
closed = 1;
nodes = (
"529 175 OFFCURVE",
"468 224 OFFCURVE",
"385 224 CURVE SMOOTH",
"306 224 OFFCURVE",
"260 188 OFFCURVE",
"260 128 CURVE SMOOTH",
"260 106 OFFCURVE",
"265 88 OFFCURVE",
"273 80 CURVE",
"357 80 LINE",
"339 88 OFFCURVE",
"329 103 OFFCURVE",
"329 120 CURVE SMOOTH",
"329 143 OFFCURVE",
"348 156 OFFCURVE",
"381 156 CURVE SMOOTH",
"431 156 OFFCURVE",
"468 120 OFFCURVE",
"481 60 CURVE SMOOTH",
"498 -18 OFFCURVE",
"553 -64 OFFCURVE",
"629 -64 CURVE SMOOTH",
"660 -64 OFFCURVE",
"690 -59 OFFCURVE",
"709 -51 CURVE",
"709 27 LINE",
"689 16 OFFCURVE",
"663 8 OFFCURVE",
"637 8 CURVE SMOOTH",
"594 8 OFFCURVE",
"562 39 OFFCURVE",
"549 92 CURVE SMOOTH"
);
},
{
closed = 1;
nodes = (
"603 -10 OFFCURVE",
"730 124 OFFCURVE",
"730 350 CURVE SMOOTH",
"730 576 OFFCURVE",
"603 710 OFFCURVE",
"389 710 CURVE SMOOTH",
"175 710 OFFCURVE",
"48 576 OFFCURVE",
"48 350 CURVE SMOOTH",
"48 124 OFFCURVE",
"175 -10 OFFCURVE",
"389 -10 CURVE SMOOTH"
);
},
{
closed = 1;
nodes = (
"229 80 OFFCURVE",
"134 180 OFFCURVE",
"134 350 CURVE SMOOTH",
"134 523 OFFCURVE",
"229 626 OFFCURVE",
"389 626 CURVE SMOOTH",
"549 626 OFFCURVE",
"644 523 OFFCURVE",
"644 350 CURVE SMOOTH",
"644 180 OFFCURVE",
"549 80 OFFCURVE",
"389 80 CURVE SMOOTH"
);
}
);
width = 778;
},
{
associatedMasterId = "8007C042-6FBA-4E49-99B8-8B738A4EBE86";
background = {
paths = (
{
closed = 1;
nodes = (
"743 420 OFFCURVE",
"728 482 OFFCURVE",
"697 537 CURVE SMOOTH",
"636 646 OFFCURVE",
"524 710 OFFCURVE",
"395 710 CURVE SMOOTH",
"330 710 OFFCURVE",
"272 695 OFFCURVE",
"219 665 CURVE SMOOTH",
"113 604 OFFCURVE",
"47 490 OFFCURVE",
"47 350 CURVE SMOOTH",
"47 285 OFFCURVE",
"60 227 OFFCURVE",
"87 175 CURVE SMOOTH",
"139 71 OFFCURVE",
"235 6 OFFCURVE",
"351 -7 CURVE",
"370 -92 OFFCURVE",
"466 -160 OFFCURVE",
"567 -172 CURVE",
"598 -106 LINE",
"601 -98 LINE",
"538 -90 OFFCURVE",
"467 -48 OFFCURVE",
"452 -5 CURVE",
"502 -5 OFFCURVE",
"550 12 OFFCURVE",
"595 47 CURVE SMOOTH",
"685 116 OFFCURVE",
"743 234 OFFCURVE",
"743 350 CURVE SMOOTH"
);
},
{
closed = 1;
nodes = (
"645 297 OFFCURVE",
"635 250 OFFCURVE",
"615 209 CURVE SMOOTH",
"574 127 OFFCURVE",
"495 78 OFFCURVE",
"395 78 CURVE SMOOTH",
"345 78 OFFCURVE",
"301 90 OFFCURVE",
"263 113 CURVE SMOOTH",
"187 159 OFFCURVE",
"145 243 OFFCURVE",
"145 350 CURVE SMOOTH",
"145 403 OFFCURVE",
"155 451 OFFCURVE",
"176 492 CURVE SMOOTH",
"216 574 OFFCURVE",
"295 622 OFFCURVE",
"395 622 CURVE SMOOTH",
"445 622 OFFCURVE",
"489 611 OFFCURVE",
"527 588 CURVE SMOOTH",
"603 542 OFFCURVE",
"645 457 OFFCURVE",
"645 350 CURVE SMOOTH"
);
}
);
};
layerId = "71CC7F52-FB94-48D3-BC05-B271B65433EE";
name = "Dec 26 17, 15:08";
paths = (
{
closed = 1;
nodes = (
"610 -10 OFFCURVE",
"738 124 OFFCURVE",
"738 350 CURVE SMOOTH",
"738 576 OFFCURVE",
"610 710 OFFCURVE",
"393 710 CURVE SMOOTH",
"176 710 OFFCURVE",
"48 576 OFFCURVE",
"48 350 CURVE SMOOTH",
"48 124 OFFCURVE",
"176 -10 OFFCURVE",
"393 -10 CURVE SMOOTH"
);
},
{
closed = 1;
nodes = (
"233 76 OFFCURVE",
"138 178 OFFCURVE",
"138 350 CURVE SMOOTH",
"138 523 OFFCURVE",
"233 626 OFFCURVE",
"393 626 CURVE SMOOTH",
"553 626 OFFCURVE",
"648 523 OFFCURVE",
"648 350 CURVE SMOOTH",
"648 178 OFFCURVE",
"553 76 OFFCURVE",
"393 76 CURVE SMOOTH"
);
},
{
closed = 1;
nodes = (
"351 -125 LINE",
"351 -154 OFFCURVE",
"370 -171 OFFCURVE",
"401 -171 CURVE",
"639 -171 LINE",
"639 -93 LINE",
"447 -91 LINE",
"437 -91 OFFCURVE",
"431 -87 OFFCURVE",
"431 -79 CURVE",
"431 39 LINE",
"351 39 LINE"
);
}
);
width = 786;
},
{
associatedMasterId = "8007C042-6FBA-4E49-99B8-8B738A4EBE86";
background = {
paths = (
{
closed = 1;
nodes = (
"357 263 LINE",
"481 99 LINE",
"447 84 OFFCURVE",
"412 76 OFFCURVE",
"376 77 CURVE SMOOTH",
"240 77 OFFCURVE",
"136 179 OFFCURVE",
"136 324 CURVE SMOOTH",
"136 469 OFFCURVE",
"240 571 OFFCURVE",
"376 571 CURVE SMOOTH",
"444 571 OFFCURVE",
"501 549 OFFCURVE",
"548 503 CURVE SMOOTH",
"594 456 OFFCURVE",
"618 397 OFFCURVE",
"618 325 CURVE SMOOTH",
"618 253 OFFCURVE",
"596 194 OFFCURVE",
"551 149 CURVE",
"426 316 LINE"
);
},
{
closed = 1;
nodes = (
"434 -9 OFFCURVE",
"487 3 OFFCURVE",
"534 27 CURVE",
"591 -49 LINE",
"661 4 LINE",
"606 76 LINE",
"677 141 OFFCURVE",
"713 223 OFFCURVE",
"713 321 CURVE SMOOTH",
"713 517 OFFCURVE",
"561 657 OFFCURVE",
"377 657 CURVE SMOOTH",
"193 657 OFFCURVE",
"40 515 OFFCURVE",
"40 323 CURVE SMOOTH",
"40 131 OFFCURVE",
"189 -9 OFFCURVE",
"376 -9 CURVE SMOOTH"
);
}
);
};
layerId = "4222AC02-3D74-4132-94D6-1A1DD7C4B7B9";
name = "Jan 17 18, 20:18";
paths = (
{
closed = 1;
nodes = (
"44 131 OFFCURVE",
"183 -12 OFFCURVE",
"371 -12 CURVE SMOOTH",
"431 -12 OFFCURVE",
"479 1 OFFCURVE",
"523 25 CURVE",
"532 31 LINE",
"538 22 LINE",
"591 -50 LINE",
"659 2 LINE",
"605 72 LINE",
"598 80 LINE",
"605 86 LINE",
"663 148 OFFCURVE",
"698 225 OFFCURVE",
"698 325 CURVE SMOOTH",
"698 519 OFFCURVE",
"559 662 OFFCURVE",
"371 662 CURVE SMOOTH",
"183 662 OFFCURVE",
"44 519 OFFCURVE",
"44 325 CURVE SMOOTH"
);
},
{
closed = 1;
nodes = (
"124 469 OFFCURVE",
"227 580 OFFCURVE",
"371 580 CURVE SMOOTH",
"515 580 OFFCURVE",
"618 469 OFFCURVE",
"618 325 CURVE SMOOTH",
"618 257 OFFCURVE",
"599 197 OFFCURVE",
"559 153 CURVE",
"551 144 LINE",
"545 153 LINE",
"367 394 LINE",
"299 342 LINE",
"479 105 LINE",
"486 97 LINE",
"458 81 OFFCURVE",
"417 70 OFFCURVE",
"371 70 CURVE SMOOTH",
"227 70 OFFCURVE",
"124 181 OFFCURVE",
"124 325 CURVE SMOOTH"
);
}
);
width = 742;
},
{
associatedMasterId = "8007C042-6FBA-4E49-99B8-8B738A4EBE86";
background = {
paths = (
{
closed = 1;
nodes = (
"356 262 LINE",
"480 98 LINE",
"446 83 OFFCURVE",
"411 76 OFFCURVE",
"376 76 CURVE SMOOTH",
"240 76 OFFCURVE",
"135 179 OFFCURVE",
"135 323 CURVE SMOOTH",
"136 468 OFFCURVE",
"239 570 OFFCURVE",
"375 570 CURVE SMOOTH",
"443 570 OFFCURVE",
"500 547 OFFCURVE",
"547 502 CURVE SMOOTH",
"593 455 OFFCURVE",
"616 396 OFFCURVE",
"616 324 CURVE SMOOTH",
"616 252 OFFCURVE",
"594 194 OFFCURVE",
"550 149 CURVE",
"425 315 LINE"
);
},
{
closed = 1;
nodes = (
"433 -9 OFFCURVE",
"486 3 OFFCURVE",
"532 27 CURVE",
"590 -49 LINE",
"659 4 LINE",
"605 76 LINE",
"676 141 OFFCURVE",
"712 223 OFFCURVE",
"712 320 CURVE SMOOTH",
"712 516 OFFCURVE",
"560 656 OFFCURVE",
"376 656 CURVE SMOOTH",
"193 656 OFFCURVE",
"40 513 OFFCURVE",
"40 322 CURVE SMOOTH",
"40 131 OFFCURVE",
"189 -9 OFFCURVE",
"376 -9 CURVE SMOOTH"
);
}
);
};
layerId = "483FB0A2-01F2-49B1-B487-72693F366BCA";
name = "Jun 19 18, 00:33";
paths = (
{
closed = 1;
nodes = (
"588 -52 LINE",
"660 0 LINE",
"372 395 LINE",
"296 343 LINE"
);
},
{
closed = 1;
nodes = (
"559 -16 OFFCURVE",
"694 129 OFFCURVE",
"694 325 CURVE SMOOTH",
"694 521 OFFCURVE",
"559 666 OFFCURVE",
"371 666 CURVE SMOOTH",
"183 666 OFFCURVE",
"48 521 OFFCURVE",
"48 325 CURVE SMOOTH",
"48 129 OFFCURVE",
"183 -16 OFFCURVE",
"371 -16 CURVE SMOOTH"
);
},
{
closed = 1;
nodes = (
"235 68 OFFCURVE",
"134 177 OFFCURVE",
"134 325 CURVE SMOOTH",
"134 473 OFFCURVE",
"235 584 OFFCURVE",
"371 584 CURVE SMOOTH",
"507 584 OFFCURVE",
"608 473 OFFCURVE",
"608 325 CURVE SMOOTH",
"608 177 OFFCURVE",
"507 68 OFFCURVE",
"371 68 CURVE SMOOTH"
);
}
);
width = 742;
},
{
associatedMasterId = "8007C042-6FBA-4E49-99B8-8B738A4EBE86";
background = {
paths = (
{
closed = 1;
nodes = (
"785 0 LINE",
"785 78 LINE",
"586 78 LINE",
"697 130 OFFCURVE",
"766 241 OFFCURVE",
"766 381 CURVE SMOOTH",
"766 592 OFFCURVE",
"610 741 OFFCURVE",
"407 741 CURVE SMOOTH",
"201 741 OFFCURVE",
"47 590 OFFCURVE",
"47 370 CURVE SMOOTH",
"47 150 OFFCURVE",
"201 0 OFFCURVE",
"411 0 CURVE SMOOTH"
);
},
{
closed = 1;
nodes = (
"147 542 OFFCURVE",
"260 653 OFFCURVE",
"407 653 CURVE SMOOTH",
"554 653 OFFCURVE",
"667 542 OFFCURVE",
"667 370 CURVE SMOOTH",
"667 198 OFFCURVE",
"554 87 OFFCURVE",
"407 87 CURVE SMOOTH",
"260 87 OFFCURVE",
"147 198 OFFCURVE",
"147 370 CURVE SMOOTH"
);
}
);
};
layerId = "77958A83-85F4-4C3B-99CE-D194D96DD5F6";
name = "Dec 6 18, 21:11";
paths = (
{
closed = 1;
nodes = (
"44 130 OFFCURVE",
"182 -16 OFFCURVE",
"367 -16 CURVE SMOOTH",
"431 -16 OFFCURVE",
"483 -1 OFFCURVE",
"531 27 CURVE",
"588 -52 LINE",
"656 0 LINE",
"596 79 LINE",
"656 143 OFFCURVE",
"690 221 OFFCURVE",
"690 325 CURVE SMOOTH",
"690 520 OFFCURVE",
"552 666 OFFCURVE",
"367 666 CURVE SMOOTH",
"182 666 OFFCURVE",
"44 520 OFFCURVE",
"44 325 CURVE SMOOTH"
);
},
{
closed = 1;
nodes = (
"128 473 OFFCURVE",
"230 584 OFFCURVE",
"367 584 CURVE SMOOTH",
"504 584 OFFCURVE",
"606 473 OFFCURVE",
"606 325 CURVE SMOOTH",
"606 253 OFFCURVE",
"587 194 OFFCURVE",
"547 146 CURVE",
"386 372 LINE",
"316 320 LINE",
"484 96 LINE",
"454 74 OFFCURVE",
"415 68 OFFCURVE",
"367 68 CURVE SMOOTH",
"230 68 OFFCURVE",
"128 178 OFFCURVE",
"128 325 CURVE SMOOTH"
);
}
);
width = 734;
},
{
associatedMasterId = "8007C042-6FBA-4E49-99B8-8B738A4EBE86";
background = {
paths = (
{
closed = 1;
nodes = (
"785 0 LINE",
"785 78 LINE",
"586 78 LINE",
"697 130 OFFCURVE",
"766 241 OFFCURVE",
"766 381 CURVE SMOOTH",
"766 592 OFFCURVE",
"610 741 OFFCURVE",
"407 741 CURVE SMOOTH",
"201 741 OFFCURVE",
"47 590 OFFCURVE",
"47 370 CURVE SMOOTH",
"47 150 OFFCURVE",
"201 0 OFFCURVE",
"411 0 CURVE SMOOTH"
);
},
{
closed = 1;
nodes = (
"147 542 OFFCURVE",
"260 653 OFFCURVE",
"407 653 CURVE SMOOTH",
"554 653 OFFCURVE",
"667 542 OFFCURVE",
"667 370 CURVE SMOOTH",
"667 198 OFFCURVE",
"554 87 OFFCURVE",
"407 87 CURVE SMOOTH",
"260 87 OFFCURVE",
"147 198 OFFCURVE",
"147 370 CURVE SMOOTH"
);
}
);
};
layerId = "549CE5E2-F24E-4148-88BC-E818E8A4AE93";
name = "Dec 6 18, 21:16";
paths = (
{
closed = 1;
nodes = (
"553 -12 OFFCURVE",
"690 129 OFFCURVE",
"690 325 CURVE SMOOTH",
"690 521 OFFCURVE",
"553 662 OFFCURVE",
"365 662 CURVE SMOOTH",
"177 662 OFFCURVE",
"40 521 OFFCURVE",
"40 325 CURVE SMOOTH",
"40 129 OFFCURVE",
"177 -12 OFFCURVE",
"365 -12 CURVE SMOOTH"
);
},
{
closed = 1;
nodes = (
"229 72 OFFCURVE",
"128 179 OFFCURVE",
"128 325 CURVE SMOOTH",
"128 473 OFFCURVE",
"229 580 OFFCURVE",
"365 580 CURVE SMOOTH",
"501 580 OFFCURVE",
"602 473 OFFCURVE",
"602 325 CURVE SMOOTH",
"602 179 OFFCURVE",
"501 72 OFFCURVE",
"365 72 CURVE SMOOTH"
);
},
{
closed = 1;
nodes = (
"589 -50 LINE",
"660 3 LINE",
"388 375 LINE",
"317 322 LINE"
);
}
);
width = 730;
},
{
background = {
paths = (
{
closed = 1;
nodes = (
"48 129 OFFCURVE",
"185 -12 OFFCURVE",
"373 -12 CURVE SMOOTH",
"437 -12 OFFCURVE",
"492 4 OFFCURVE",
"540 36 CURVE",
"603 -50 LINE",
"665 2 LINE",
"601 84 LINE",
"657 140 OFFCURVE",
"698 229 OFFCURVE",
"698 325 CURVE SMOOTH",
"698 521 OFFCURVE",
"561 662 OFFCURVE",
"373 662 CURVE SMOOTH",
"185 662 OFFCURVE",
"48 521 OFFCURVE",
"48 325 CURVE SMOOTH"
);
},
{
closed = 1;
nodes = (
"136 473 OFFCURVE",
"237 580 OFFCURVE",
"373 580 CURVE SMOOTH",
"509 580 OFFCURVE",
"610 473 OFFCURVE",
"610 325 CURVE SMOOTH",
"610 257 OFFCURVE",
"589 197 OFFCURVE",
"553 153 CURVE",
"394 368 LINE",
"330 316 LINE",
"494 101 LINE",
"462 81 OFFCURVE",
"417 72 OFFCURVE",
"373 72 CURVE SMOOTH",
"237 72 OFFCURVE",
"136 179 OFFCURVE",
"136 325 CURVE SMOOTH"
);
}
);
};
layerId = "516EF9F5-8A61-4DB8-B238-FB46D711CD4C";
paths = (
{
closed = 1;
nodes = (
"48 129 OFFCURVE",
"185 -12 OFFCURVE",
"373 -12 CURVE SMOOTH",
"427 -12 OFFCURVE",
"474 -1 OFFCURVE",
"516 22 CURVE SMOOTH",
"523 26 OFFCURVE",
"522 31 OFFCURVE",
"520 36 CURVE SMOOTH",
"519 39 OFFCURVE",
"518 42 OFFCURVE",
"518 45 CURVE SMOOTH",
"518 58 OFFCURVE",
"529 69 OFFCURVE",
"542 69 CURVE SMOOTH",
"555 69 OFFCURVE",
"566 58 OFFCURVE",
"566 45 CURVE SMOOTH",
"566 38 OFFCURVE",
"564 32 OFFCURVE",
"558 27 CURVE SMOOTH",
"553 23 OFFCURVE",
"553 18 OFFCURVE",
"557 13 CURVE SMOOTH",
"603 -50 LINE",
"665 2 LINE",
"618 62 LINE SMOOTH",
"615 66 OFFCURVE",
"610 66 OFFCURVE",
"607 64 CURVE SMOOTH",
"604 62 OFFCURVE",
"600 61 OFFCURVE",
"596 61 CURVE SMOOTH",
"583 61 OFFCURVE",
"572 72 OFFCURVE",
"572 85 CURVE SMOOTH",
"572 98 OFFCURVE",
"583 109 OFFCURVE",
"596 109 CURVE SMOOTH",
"601 109 OFFCURVE",
"606 107 OFFCURVE",
"609 105 CURVE SMOOTH",
"613 102 OFFCURVE",
"618 102 OFFCURVE",
"621 106 CURVE SMOOTH",
"666 164 OFFCURVE",
"698 240 OFFCURVE",
"698 325 CURVE SMOOTH",
"698 521 OFFCURVE",
"561 662 OFFCURVE",
"373 662 CURVE SMOOTH",
"185 662 OFFCURVE",
"48 521 OFFCURVE",
"48 325 CURVE SMOOTH"
);
},
{
closed = 1;
nodes = (
"70 313 OFFCURVE",
"70 337 OFFCURVE",
"73 353 CURVE SMOOTH",
"76 367 OFFCURVE",
"84 375 OFFCURVE",
"96 375 CURVE SMOOTH",
"110 375 OFFCURVE",
"118 363 OFFCURVE",
"116 349 CURVE SMOOTH",
"114 335 OFFCURVE",
"114 315 OFFCURVE",
"116 301 CURVE SMOOTH",
"118 287 OFFCURVE",
"110 275 OFFCURVE",
"96 275 CURVE SMOOTH",
"84 275 OFFCURVE",
"76 283 OFFCURVE",
"73 297 CURVE SMOOTH"
);
},
{
closed = 1;
nodes = (
"136 473 OFFCURVE",
"237 580 OFFCURVE",
"373 580 CURVE SMOOTH",
"509 580 OFFCURVE",
"610 473 OFFCURVE",
"610 325 CURVE SMOOTH",
"610 268 OFFCURVE",
"594 217 OFFCURVE",
"569 176 CURVE SMOOTH",
"565 170 OFFCURVE",
"566 165 OFFCURVE",
"569 161 CURVE SMOOTH",
"572 157 OFFCURVE",
"575 153 OFFCURVE",
"575 147 CURVE SMOOTH",
"575 134 OFFCURVE",
"564 123 OFFCURVE",
"551 123 CURVE SMOOTH",
"538 123 OFFCURVE",
"527 134 OFFCURVE",
"527 147 CURVE SMOOTH",
"527 153 OFFCURVE",
"530 159 OFFCURVE",
"534 164 CURVE SMOOTH",
"538 168 OFFCURVE",
"538 174 OFFCURVE",
"534 179 CURVE SMOOTH",
"394 368 LINE",
"330 316 LINE",
"474 128 LINE SMOOTH",
"479 122 OFFCURVE",
"483 124 OFFCURVE",
"486 125 CURVE SMOOTH",
"490 127 OFFCURVE",
"494 128 OFFCURVE",
"498 128 CURVE SMOOTH",
"511 128 OFFCURVE",
"522 117 OFFCURVE",
"522 104 CURVE SMOOTH",
"522 91 OFFCURVE",
"511 80 OFFCURVE",
"498 80 CURVE SMOOTH",
"492 80 OFFCURVE",
"486 82 OFFCURVE",
"482 86 CURVE SMOOTH",
"478 90 OFFCURVE",
"475 91 OFFCURVE",
"470 89 CURVE SMOOTH",
"442 78 OFFCURVE",
"407 72 OFFCURVE",
"373 72 CURVE SMOOTH",
"237 72 OFFCURVE",
"136 179 OFFCURVE",
"136 325 CURVE SMOOTH"
);
},
{
closed = 1;
nodes = (
"147 127 OFFCURVE",
"158 138 OFFCURVE",
"171 138 CURVE SMOOTH",
"184 138 OFFCURVE",
"195 127 OFFCURVE",
"195 114 CURVE SMOOTH",
"195 101 OFFCURVE",
"184 90 OFFCURVE",
"171 90 CURVE SMOOTH",
"158 90 OFFCURVE",
"147 101 OFFCURVE",
"147 114 CURVE SMOOTH"
);
},
{
closed = 1;
nodes = (
"147 547 OFFCURVE",
"158 558 OFFCURVE",
"171 558 CURVE SMOOTH",
"184 558 OFFCURVE",
"195 547 OFFCURVE",
"195 534 CURVE SMOOTH",
"195 521 OFFCURVE",
"184 510 OFFCURVE",
"171 510 CURVE SMOOTH",
"158 510 OFFCURVE",
"147 521 OFFCURVE",
"147 534 CURVE SMOOTH"
);
},
{
closed = 1;
nodes = (
"323 47 OFFCURVE",
"335 55 OFFCURVE",
"349 53 CURVE SMOOTH",
"363 51 OFFCURVE",
"383 51 OFFCURVE",
"397 53 CURVE SMOOTH",
"411 55 OFFCURVE",
"423 47 OFFCURVE",
"423 33 CURVE SMOOTH",
"423 21 OFFCURVE",
"415 13 OFFCURVE",
"401 10 CURVE SMOOTH",
"385 7 OFFCURVE",
"361 7 OFFCURVE",
"345 10 CURVE SMOOTH",
"331 13 OFFCURVE",
"323 21 OFFCURVE",
"323 33 CURVE SMOOTH"
);
},
{
closed = 1;
nodes = (
"323 629 OFFCURVE",
"331 637 OFFCURVE",
"345 640 CURVE SMOOTH",
"361 643 OFFCURVE",
"385 643 OFFCURVE",
"401 640 CURVE SMOOTH",
"415 637 OFFCURVE",
"423 629 OFFCURVE",
"423 617 CURVE SMOOTH",
"423 603 OFFCURVE",
"411 595 OFFCURVE",
"397 597 CURVE SMOOTH",
"383 599 OFFCURVE",
"363 599 OFFCURVE",
"349 597 CURVE SMOOTH",
"335 595 OFFCURVE",
"323 603 OFFCURVE",
"323 617 CURVE SMOOTH"
);
},
{
closed = 1;
nodes = (
"551 547 OFFCURVE",
"562 558 OFFCURVE",
"575 558 CURVE SMOOTH",
"588 558 OFFCURVE",
"599 547 OFFCURVE",
"599 534 CURVE SMOOTH",
"599 521 OFFCURVE",
"588 510 OFFCURVE",
"575 510 CURVE SMOOTH",
"562 510 OFFCURVE",
"551 521 OFFCURVE",
"551 534 CURVE SMOOTH"
);
},
{
closed = 1;
nodes = (
"632 315 OFFCURVE",
"632 335 OFFCURVE",
"630 349 CURVE SMOOTH",
"628 363 OFFCURVE",
"636 375 OFFCURVE",
"650 375 CURVE SMOOTH",
"662 375 OFFCURVE",
"670 367 OFFCURVE",
"673 353 CURVE SMOOTH",
"676 337 OFFCURVE",
"676 313 OFFCURVE",
"673 297 CURVE SMOOTH",
"670 283 OFFCURVE",
"662 275 OFFCURVE",
"650 275 CURVE SMOOTH",
"636 275 OFFCURVE",
"628 287 OFFCURVE",
"630 301 CURVE SMOOTH"
);
},
{
closed = 1;
nodes = (
"421 307 OFFCURVE",
"431 297 OFFCURVE",
"431 283 CURVE SMOOTH",
"431 269 OFFCURVE",
"421 259 OFFCURVE",
"407 259 CURVE SMOOTH",
"393 259 OFFCURVE",
"383 269 OFFCURVE",
"383 283 CURVE SMOOTH",
"383 297 OFFCURVE",
"393 307 OFFCURVE",
"407 307 CURVE SMOOTH"
);
}
);
width = 750;
},
{
associatedMasterId = "516EF9F5-8A61-4DB8-B238-FB46D711CD4C";
background = {
paths = (
{
closed = 1;
nodes = (
"44 129 OFFCURVE",
"181 -12 OFFCURVE",
"369 -12 CURVE SMOOTH",
"433 -12 OFFCURVE",
"488 4 OFFCURVE",
"536 36 CURVE",
"599 -50 LINE",
"661 2 LINE",
"597 84 LINE",
"653 140 OFFCURVE",
"694 229 OFFCURVE",
"694 325 CURVE SMOOTH",
"694 521 OFFCURVE",
"557 662 OFFCURVE",
"369 662 CURVE SMOOTH",
"181 662 OFFCURVE",
"44 521 OFFCURVE",
"44 325 CURVE SMOOTH"
);
},
{
closed = 1;
nodes = (
"132 473 OFFCURVE",
"233 580 OFFCURVE",
"369 580 CURVE SMOOTH",
"505 580 OFFCURVE",
"606 473 OFFCURVE",
"606 325 CURVE SMOOTH",
"606 257 OFFCURVE",
"585 197 OFFCURVE",
"549 153 CURVE",
"390 368 LINE",
"326 316 LINE",
"490 101 LINE",
"458 81 OFFCURVE",
"413 72 OFFCURVE",
"369 72 CURVE SMOOTH",
"233 72 OFFCURVE",
"132 179 OFFCURVE",
"132 325 CURVE SMOOTH"
);
}
);
};
layerId = "E8C70039-DBD5-4E56-9EE5-787156F7B7B8";
name = "Oct 27 19, 11:38";
paths = (
{
closed = 1;
nodes = (
"44 129 OFFCURVE",
"181 -12 OFFCURVE",
"369 -12 CURVE SMOOTH",
"423 -12 OFFCURVE",
"470 -1 OFFCURVE",
"512 22 CURVE SMOOTH",
"519 26 OFFCURVE",
"518 31 OFFCURVE",
"516 36 CURVE SMOOTH",
"515 39 OFFCURVE",
"514 42 OFFCURVE",
"514 45 CURVE SMOOTH",
"514 58 OFFCURVE",
"525 69 OFFCURVE",
"538 69 CURVE SMOOTH",
"551 69 OFFCURVE",
"562 58 OFFCURVE",
"562 45 CURVE SMOOTH",
"562 38 OFFCURVE",
"560 32 OFFCURVE",
"554 27 CURVE SMOOTH",
"549 23 OFFCURVE",
"549 18 OFFCURVE",
"553 13 CURVE",
"599 -50 LINE",
"661 2 LINE",
"597 84 LINE",
"653 140 OFFCURVE",
"694 229 OFFCURVE",
"694 325 CURVE SMOOTH",
"694 521 OFFCURVE",
"557 662 OFFCURVE",
"369 662 CURVE SMOOTH",
"181 662 OFFCURVE",
"44 521 OFFCURVE",
"44 325 CURVE SMOOTH"
);
},
{
closed = 1;
nodes = (
"66 317 OFFCURVE",
"66 333 OFFCURVE",
"69 349 CURVE SMOOTH",
"72 363 OFFCURVE",
"80 371 OFFCURVE",
"92 371 CURVE SMOOTH",
"106 371 OFFCURVE",
"114 359 OFFCURVE",
"112 345 CURVE SMOOTH",
"110 329 OFFCURVE",
"110 321 OFFCURVE",
"112 305 CURVE SMOOTH",
"114 291 OFFCURVE",
"106 279 OFFCURVE",
"92 279 CURVE SMOOTH",
"80 279 OFFCURVE",
"72 287 OFFCURVE",
"69 301 CURVE SMOOTH"
);
},
{
closed = 1;
nodes = (
"132 473 OFFCURVE",
"233 580 OFFCURVE",
"369 580 CURVE SMOOTH",
"505 580 OFFCURVE",
"606 473 OFFCURVE",
"606 325 CURVE SMOOTH",
"606 268.213 OFFCURVE",
"590 217 OFFCURVE",
"565 176 CURVE SMOOTH",
"561 170 OFFCURVE",
"562 165 OFFCURVE",
"565 161 CURVE SMOOTH",
"568 157 OFFCURVE",
"571 153 OFFCURVE",
"571 147 CURVE SMOOTH",
"571 134 OFFCURVE",
"560 123 OFFCURVE",
"547 123 CURVE SMOOTH",
"534 123 OFFCURVE",
"523 134 OFFCURVE",
"523 147 CURVE SMOOTH",
"523 153 OFFCURVE",
"526 159 OFFCURVE",
"530 164 CURVE SMOOTH",
"534 168 OFFCURVE",
"534 174 OFFCURVE",
"530 179 CURVE SMOOTH",
"390 368 LINE",
"326 316 LINE",
"490 101 LINE",
"458 81 OFFCURVE",
"413 72 OFFCURVE",
"369 72 CURVE SMOOTH",
"233 72 OFFCURVE",
"132 179 OFFCURVE",
"132 325 CURVE SMOOTH"
);
},
{
closed = 1;
nodes = (
"143 127 OFFCURVE",
"154 138 OFFCURVE",
"167 138 CURVE SMOOTH",
"180 138 OFFCURVE",
"191 127 OFFCURVE",
"191 114 CURVE SMOOTH",
"191 101 OFFCURVE",
"180 90 OFFCURVE",
"167 90 CURVE SMOOTH",
"154 90 OFFCURVE",
"143 101 OFFCURVE",
"143 114 CURVE SMOOTH"
);
},
{
closed = 1;
nodes = (
"143 547 OFFCURVE",
"154 558 OFFCURVE",
"167 558 CURVE SMOOTH",
"180 558 OFFCURVE",
"191 547 OFFCURVE",
"191 534 CURVE SMOOTH",
"191 521 OFFCURVE",
"180 510 OFFCURVE",
"167 510 CURVE SMOOTH",
"154 510 OFFCURVE",
"143 521 OFFCURVE",
"143 534 CURVE SMOOTH"
);
},
{
closed = 1;
nodes = (
"323 47 OFFCURVE",
"335 55 OFFCURVE",
"349 53 CURVE SMOOTH",
"365 51 OFFCURVE",
"373 51 OFFCURVE",
"389 53 CURVE SMOOTH",
"403 55 OFFCURVE",
"415 47 OFFCURVE",
"415 33 CURVE SMOOTH",
"415 21 OFFCURVE",
"407 13 OFFCURVE",
"393 10 CURVE SMOOTH",
"377 7 OFFCURVE",
"361 7 OFFCURVE",
"345 10 CURVE SMOOTH",
"331 13 OFFCURVE",
"323 21 OFFCURVE",
"323 33 CURVE SMOOTH"
);
},
{
closed = 1;
nodes = (
"323 629 OFFCURVE",
"331 637 OFFCURVE",
"345 640 CURVE SMOOTH",
"361 643 OFFCURVE",
"377 643 OFFCURVE",
"393 640 CURVE SMOOTH",
"407 637 OFFCURVE",
"415 629 OFFCURVE",
"415 617 CURVE SMOOTH",
"415 603 OFFCURVE",
"403 595 OFFCURVE",
"389 597 CURVE SMOOTH",
"373 599 OFFCURVE",
"365 599 OFFCURVE",
"349 597 CURVE SMOOTH",
"335 595 OFFCURVE",
"323 603 OFFCURVE",
"323 617 CURVE SMOOTH"
);
},
{
closed = 1;
nodes = (
"547 547 OFFCURVE",
"558 558 OFFCURVE",
"571 558 CURVE SMOOTH",
"584 558 OFFCURVE",
"595 547 OFFCURVE",
"595 534 CURVE SMOOTH",
"595 521 OFFCURVE",
"584 510 OFFCURVE",
"571 510 CURVE SMOOTH",
"558 510 OFFCURVE",
"547 521 OFFCURVE",
"547 534 CURVE SMOOTH"
);
},
{
closed = 1;
nodes = (
"628 321 OFFCURVE",
"628 329 OFFCURVE",
"626 345 CURVE SMOOTH",
"624 359 OFFCURVE",
"632 371 OFFCURVE",
"646 371 CURVE SMOOTH",
"658 371 OFFCURVE",
"666 363 OFFCURVE",
"669 349 CURVE SMOOTH",
"672 333 OFFCURVE",
"672 317 OFFCURVE",
"669 301 CURVE SMOOTH",
"666 287 OFFCURVE",
"658 279 OFFCURVE",
"646 279 CURVE SMOOTH",
"632 279 OFFCURVE",
"624 291 OFFCURVE",
"626 305 CURVE SMOOTH"
);
},
{
closed = 1;
nodes = (
"568 72 OFFCURVE",
"579 61 OFFCURVE",
"592 61 CURVE SMOOTH",
"605 61 OFFCURVE",
"616 72 OFFCURVE",
"616 85 CURVE SMOOTH",
"616 98 OFFCURVE",
"605 109 OFFCURVE",
"592 109 CURVE SMOOTH",
"579 109 OFFCURVE",
"568 98 OFFCURVE",
"568 85 CURVE SMOOTH"
);
},
{
closed = 1;
nodes = (
"470 91 OFFCURVE",
"481 80 OFFCURVE",
"494 80 CURVE SMOOTH",
"507 80 OFFCURVE",
"518 91 OFFCURVE",
"518 104 CURVE SMOOTH",
"518 117 OFFCURVE",
"507 128 OFFCURVE",
"494 128 CURVE SMOOTH",
"481 128 OFFCURVE",
"470 117 OFFCURVE",
"470 104 CURVE SMOOTH"
);
}
);
width = 742;
}
);
leftMetricsKey = O;
unicode = 0051;
},
{
glyphname = R;
lastChange = "2019-11-01 17:14:14 +0000";
layers = (
{
background = {
hints = (
{
horizontal = 1;
place = "{0, 21}";
target = up;
type = BottomGhost;
},
{
horizontal = 1;
place = "{298, 84}";
type = Stem;
},
{
horizontal = 1;
place = "{636, 86}";
type = Stem;
},
{
place = "{77, 96}";
type = Stem;
},
{
place = "{533, 100}";
type = Stem;
}
);
paths = (
{
closed = 1;
nodes = (
"150 650 LINE",
"150 0 LINE",
"68 0 LINE",
"68 650 LINE"
);
},
{
closed = 1;
nodes = (
"150 346 LINE",
"354 346 LINE SMOOTH",
"426 346 OFFCURVE",
"474 393 OFFCURVE",
"474 457 CURVE SMOOTH",
"474 521 OFFCURVE",
"426 570 OFFCURVE",
"358 570 CURVE SMOOTH",
"150 570 LINE",
"150 650 LINE",
"354 650 LINE SMOOTH",
"474 650 OFFCURVE",
"558 571 OFFCURVE",
"558 459 CURVE SMOOTH",
"558 347 OFFCURVE",
"474 268 OFFCURVE",
"350 268 CURVE SMOOTH",
"150 268 LINE"
);
},
{
closed = 1;
nodes = (
"428 284 LINE",
"576 0 LINE",
"474 0 LINE",
"338 268 LINE"
);
}
);
};
layerId = "8007C042-6FBA-4E49-99B8-8B738A4EBE86";
paths = (
{
closed = 1;
nodes = (
"150 650 LINE",
"150 0 LINE",
"68 0 LINE",
"68 650 LINE"
);
},
{
closed = 1;
nodes = (
"150 346 LINE",
"354 346 LINE SMOOTH",
"426 346 OFFCURVE",
"474 393 OFFCURVE",
"474 457 CURVE SMOOTH",
"474 521 OFFCURVE",
"426 570 OFFCURVE",
"358 570 CURVE SMOOTH",
"150 570 LINE",
"150 650 LINE",
"354 650 LINE SMOOTH",
"474 650 OFFCURVE",
"558 571 OFFCURVE",
"558 459 CURVE SMOOTH",
"558 347 OFFCURVE",
"474 268 OFFCURVE",
"350 268 CURVE SMOOTH",
"150 268 LINE"
);
},
{
closed = 1;
nodes = (
"428 284 LINE",
"576 0 LINE",
"474 0 LINE",
"338 268 LINE"
);
}
);
width = 600;
},
{
associatedMasterId = "8007C042-6FBA-4E49-99B8-8B738A4EBE86";
background = {
paths = (
{
closed = 1;
nodes = (
"379 562 OFFCURVE",
"422 525 OFFCURVE",
"422 461 CURVE SMOOTH",
"422 397 OFFCURVE",
"378 362 OFFCURVE",
"302 362 CURVE SMOOTH",
"162 362 LINE",
"162 563 LINE",
"303 563 LINE SMOOTH"
);
},
{
closed = 1;
nodes = (
"162 276 LINE",
"253 276 LINE",
"437 0 LINE",
"549 0 LINE",
"354 280 LINE",
"400 287 OFFCURVE",
"439 307 OFFCURVE",
"470 341 CURVE SMOOTH",
"532 408 OFFCURVE",
"534 526 OFFCURVE",
"462 594 CURVE SMOOTH",
"423 630 OFFCURVE",
"370 648 OFFCURVE",
"303 648 CURVE SMOOTH",
"68 648 LINE",
"68 0 LINE",
"162 0 LINE"
);
}
);
};
layerId = "F48A871F-1811-4BE0-A076-26C992A6360E";
name = "Jan 15 18, 19:27";
paths = (
{
closed = 1;
nodes = (
"154 650 LINE",
"154 0 LINE",
"76 0 LINE",
"76 650 LINE"
);
},
{
closed = 1;
nodes = (
"316 650 LINE",
"440 650 OFFCURVE",
"526 569 OFFCURVE",
"526 459 CURVE SMOOTH",
"526 349 OFFCURVE",
"430 266 OFFCURVE",
"310 266 CURVE",
"154 266 LINE",
"154 340 LINE",
"314 340 LINE",
"388 340 OFFCURVE",
"444 389 OFFCURVE",
"444 455 CURVE SMOOTH",
"444 523 OFFCURVE",
"390 570 OFFCURVE",
"314 570 CURVE",
"154 570 LINE",
"154 650 LINE"
);
},
{
closed = 1;
nodes = (
"384 296 LINE",
"538 0 LINE",
"446 0 LINE",
"294 296 LINE"
);
}
);
width = 582;
},
{
associatedMasterId = "8007C042-6FBA-4E49-99B8-8B738A4EBE86";
background = {
paths = (
{
closed = 1;
nodes = (
"379 562 OFFCURVE",
"422 525 OFFCURVE",
"422 461 CURVE SMOOTH",
"422 397 OFFCURVE",
"378 362 OFFCURVE",
"302 362 CURVE SMOOTH",
"162 362 LINE",
"162 563 LINE",
"303 563 LINE SMOOTH"
);
},
{
closed = 1;
nodes = (
"162 276 LINE",
"253 276 LINE",
"437 0 LINE",
"549 0 LINE",
"354 280 LINE",
"400 287 OFFCURVE",
"439 307 OFFCURVE",
"470 341 CURVE SMOOTH",
"532 408 OFFCURVE",
"534 526 OFFCURVE",
"462 594 CURVE SMOOTH",
"423 630 OFFCURVE",
"370 648 OFFCURVE",
"303 648 CURVE SMOOTH",
"68 648 LINE",
"68 0 LINE",
"162 0 LINE"
);
}
);
};
layerId = "B79A9C34-90A3-4EA1-98A3-DBD6E7CA62C5";
name = "Jan 15 18, 19:41";
paths = (
{
closed = 1;
nodes = (
"154 650 LINE",
"154 0 LINE",
"76 0 LINE",
"76 650 LINE"
);
},
{
closed = 1;
nodes = (
"154 340 LINE",
"326 340 LINE SMOOTH",
"404 340 OFFCURVE",
"464 384 OFFCURVE",
"464 456 CURVE SMOOTH",
"464 528 OFFCURVE",
"407 572 OFFCURVE",
"330 572 CURVE SMOOTH",
"154 572 LINE",
"154 650 LINE",
"332 650 LINE SMOOTH",
"456 650 OFFCURVE",
"542 572 OFFCURVE",
"542 460 CURVE SMOOTH",
"542 376 OFFCURVE",
"479 306 OFFCURVE",
"396 290 CURVE",
"444 286 OFFCURVE",
"483 250 OFFCURVE",
"496 206 CURVE SMOOTH",
"548 30 OFFCURVE",
"550 16 OFFCURVE",
"566 0 CURVE",
"484 0 LINE",
"469 16 OFFCURVE",
"468 26 OFFCURVE",
"420 194 CURVE SMOOTH",
"408 235 OFFCURVE",
"360 266 OFFCURVE",
"272 266 CURVE SMOOTH",
"154 266 LINE"
);
}
);
width = 582;
},
{
associatedMasterId = "8007C042-6FBA-4E49-99B8-8B738A4EBE86";
background = {
paths = (
{
closed = 1;
nodes = (
"374 561 OFFCURVE",
"417 524 OFFCURVE",
"417 460 CURVE SMOOTH",
"417 396 OFFCURVE",
"373 361 OFFCURVE",
"298 361 CURVE SMOOTH",
"157 361 LINE",
"157 562 LINE",
"298 562 LINE SMOOTH"
);
},
{
closed = 1;
nodes = (
"157 275 LINE",
"248 275 LINE",
"432 0 LINE",
"544 0 LINE",
"350 280 LINE",
"395 286 OFFCURVE",
"434 306 OFFCURVE",
"465 340 CURVE SMOOTH",
"527 407 OFFCURVE",
"529 525 OFFCURVE",
"457 593 CURVE SMOOTH",
"418 629 OFFCURVE",
"365 647 OFFCURVE",
"298 647 CURVE SMOOTH",
"64 647 LINE",
"64 0 LINE",
"157 0 LINE"
);
}
);
};
layerId = "DF24A0FF-5649-412C-B229-77D0E1963A3F";
name = "Feb 21 18, 16:39";
paths = (
{
closed = 1;
nodes = (
"150 346 LINE",
"324 346 LINE SMOOTH",
"385 346 OFFCURVE",
"432 394 OFFCURVE",
"432 458 CURVE SMOOTH",
"432 522 OFFCURVE",
"384 570 OFFCURVE",
"322 570 CURVE SMOOTH",
"150 570 LINE",
"150 650 LINE",
"326 650 LINE SMOOTH",
"431 650 OFFCURVE",
"512 568 OFFCURVE",
"512 459 CURVE SMOOTH",
"512 351 OFFCURVE",
"431 270 OFFCURVE",
"326 270 CURVE SMOOTH",
"150 270 LINE"
);
},
{
closed = 1;
nodes = (
"150 650 LINE",
"150 0 LINE",
"72 0 LINE",
"72 650 LINE"
);
},
{
closed = 1;
nodes = (
"293 414 LINE",
"528 0 LINE",
"434 0 LINE",
"201 414 LINE"
);
}
);
width = 560;
},
{
associatedMasterId = "8007C042-6FBA-4E49-99B8-8B738A4EBE86";
background = {
paths = (
{
closed = 1;
nodes = (
"378 561 OFFCURVE",
"421 524 OFFCURVE",
"421 460 CURVE SMOOTH",
"421 396 OFFCURVE",
"377 361 OFFCURVE",
"302 361 CURVE SMOOTH",
"161 361 LINE",
"161 562 LINE",
"302 562 LINE SMOOTH"
);
},
{
closed = 1;
nodes = (
"161 275 LINE",
"252 275 LINE",
"436 0 LINE",
"548 0 LINE",
"354 280 LINE",
"399 286 OFFCURVE",
"438 306 OFFCURVE",
"469 340 CURVE SMOOTH",
"531 407 OFFCURVE",
"533 525 OFFCURVE",
"461 593 CURVE SMOOTH",
"422 629 OFFCURVE",
"369 647 OFFCURVE",
"302 647 CURVE SMOOTH",
"68 647 LINE",
"68 0 LINE",
"161 0 LINE"
);
}
);
};
layerId = "61E945C5-C51D-451C-9D26-41FC90DCF123";
name = "Jun 20 18, 23:11";
paths = (
{
closed = 1;
nodes = (
"154 650 LINE",
"154 0 LINE",
"72 0 LINE",
"72 650 LINE"
);
},
{
closed = 1;
nodes = (
"154 352 LINE",
"320 352 LINE SMOOTH",
"388 352 OFFCURVE",
"436 396 OFFCURVE",
"436 460 CURVE SMOOTH",
"436 524 OFFCURVE",
"388 568 OFFCURVE",
"322 568 CURVE SMOOTH",
"154 568 LINE",
"154 650 LINE",
"318 650 LINE SMOOTH",
"434 650 OFFCURVE",
"516 570 OFFCURVE",
"516 462 CURVE SMOOTH",
"516 340 OFFCURVE",
"425 272 OFFCURVE",
"304 272 CURVE",
"154 272 LINE"
);
},
{
closed = 1;
nodes = (
"280 302 LINE",
"372 302 LINE",
"536 0 LINE",
"440 0 LINE",
"280 290 LINE"
);
}
);
width = 560;
},
{
associatedMasterId = "8007C042-6FBA-4E49-99B8-8B738A4EBE86";
background = {
paths = (
{
closed = 1;
nodes = (
"378 561 OFFCURVE",
"421 524 OFFCURVE",
"421 460 CURVE SMOOTH",
"421 396 OFFCURVE",
"377 361 OFFCURVE",
"302 361 CURVE SMOOTH",
"161 361 LINE",
"161 562 LINE",
"302 562 LINE SMOOTH"
);
},
{
closed = 1;
nodes = (
"161 275 LINE",
"252 275 LINE",
"436 0 LINE",
"548 0 LINE",
"354 280 LINE",
"399 286 OFFCURVE",
"438 306 OFFCURVE",
"469 340 CURVE SMOOTH",
"531 407 OFFCURVE",
"533 525 OFFCURVE",
"461 593 CURVE SMOOTH",
"422 629 OFFCURVE",
"369 647 OFFCURVE",
"302 647 CURVE SMOOTH",
"68 647 LINE",
"68 0 LINE",
"161 0 LINE"
);
}
);
};
layerId = "D857D9C5-7938-4275-894C-668ADDB86DB8";
name = "Oct 1 18, 23:46";
paths = (
{
closed = 1;
nodes = (
"154 650 LINE",
"154 0 LINE",
"72 0 LINE",
"72 650 LINE"
);
},
{
closed = 1;
nodes = (
"154 344 LINE",
"316 344 LINE SMOOTH",
"390 344 OFFCURVE",
"440 390 OFFCURVE",
"440 456 CURVE SMOOTH",
"440 520 OFFCURVE",
"392 568 OFFCURVE",
"320 568 CURVE SMOOTH",
"154 568 LINE",
"154 650 LINE",
"308 650 LINE SMOOTH",
"432 650 OFFCURVE",
"522 572 OFFCURVE",
"522 460 CURVE SMOOTH",
"522 372 OFFCURVE",
"468 302 OFFCURVE",
"380 278 CURVE",
"536 0 LINE",
"440 0 LINE",
"290 264 LINE",
"154 264 LINE"
);
}
);
width = 560;
},
{
associatedMasterId = "8007C042-6FBA-4E49-99B8-8B738A4EBE86";
background = {
paths = (
{
closed = 1;
nodes = (
"165 0 LINE",
"165 298 LINE",
"309 298 LINE SMOOTH",
"536 299 OFFCURVE",
"478 152 OFFCURVE",
"555 0 CURVE",
"663 0 LINE",
"576 168 OFFCURVE",
"614 294 OFFCURVE",
"461 335 CURVE",
"566 362 OFFCURVE",
"625 435 OFFCURVE",
"625 529 CURVE SMOOTH",
"625 591 OFFCURVE",
"599 641 OFFCURVE",
"553 674 CURVE SMOOTH",
"509 705 OFFCURVE",
"448 722 OFFCURVE",
"360 722 CURVE SMOOTH",
"69 722 LINE",
"69 0 LINE"
);
},
{
closed = 1;
nodes = (
"346 636 LINE SMOOTH",
"409 636 OFFCURVE",
"451 626 OFFCURVE",
"480 604 CURVE SMOOTH",
"509 583 OFFCURVE",
"525 552 OFFCURVE",
"525 511 CURVE SMOOTH",
"525 470 OFFCURVE",
"508 437 OFFCURVE",
"477 415 CURVE SMOOTH",
"447 393 OFFCURVE",
"404 382 OFFCURVE",
"346 382 CURVE SMOOTH",
"165 382 LINE",
"165 636 LINE"
);
}
);
};
layerId = "7089099D-B31F-40A7-9427-1BDF8F1800AE";
name = "Dec 6 18, 21:03";
paths = (
{
closed = 1;
nodes = (
"146 650 LINE",
"146 0 LINE",
"64 0 LINE",
"64 650 LINE"
);
},
{
closed = 1;
nodes = (
"146 344 LINE",
"320 344 LINE SMOOTH",
"396 344 OFFCURVE",
"448 388 OFFCURVE",
"448 456 CURVE SMOOTH",
"448 522 OFFCURVE",
"398 568 OFFCURVE",
"324 568 CURVE SMOOTH",
"146 568 LINE",
"146 650 LINE",
"312 650 LINE SMOOTH",
"438 650 OFFCURVE",
"530 574 OFFCURVE",
"530 460 CURVE SMOOTH",
"530 370 OFFCURVE",
"476 302 OFFCURVE",
"384 278 CURVE",
"548 0 LINE",
"448 0 LINE",
"294 264 LINE",
"146 264 LINE"
);
}
);
width = 576;
},
{
background = {
paths = (
{
closed = 1;
nodes = (
"150 650 LINE",
"150 0 LINE",
"68 0 LINE",
"68 650 LINE"
);
},
{
closed = 1;
nodes = (
"150 346 LINE",
"354 346 LINE SMOOTH",
"426 346 OFFCURVE",
"474 393 OFFCURVE",
"474 457 CURVE SMOOTH",
"474 521 OFFCURVE",
"426 570 OFFCURVE",
"358 570 CURVE SMOOTH",
"150 570 LINE",
"150 650 LINE",
"354 650 LINE SMOOTH",
"474 650 OFFCURVE",
"558 571 OFFCURVE",
"558 459 CURVE SMOOTH",
"558 347 OFFCURVE",
"474 268 OFFCURVE",
"350 268 CURVE SMOOTH",
"150 268 LINE"
);
},
{
closed = 1;
nodes = (
"428 284 LINE",
"576 0 LINE",
"474 0 LINE",
"338 268 LINE"
);
}
);
};
layerId = "516EF9F5-8A61-4DB8-B238-FB46D711CD4C";
paths = (
{
closed = 1;
nodes = (
"150 0 LINE",
"150 244 LINE SMOOTH",
"150 249 OFFCURVE",
"147 252 OFFCURVE",
"142 252 CURVE SMOOTH",
"129 252 OFFCURVE",
"118 263 OFFCURVE",
"118 276 CURVE SMOOTH",
"118 289 OFFCURVE",
"129 300 OFFCURVE",
"142 300 CURVE SMOOTH",
"155 300 OFFCURVE",
"166 289 OFFCURVE",
"166 276 CURVE SMOOTH",
"166 271 OFFCURVE",
"169 268 OFFCURVE",
"174 268 CURVE SMOOTH",
"338 268 LINE",
"474 0 LINE",
"576 0 LINE",
"447 248 LINE SMOOTH",
"442 257 OFFCURVE",
"440 260 OFFCURVE",
"430 260 CURVE SMOOTH",
"416 260 OFFCURVE",
"406 270 OFFCURVE",
"406 284 CURVE SMOOTH",
"406 298 OFFCURVE",
"416 308 OFFCURVE",
"430 308 CURVE SMOOTH",
"437 308 OFFCURVE",
"443 305 OFFCURVE",
"446 300 CURVE SMOOTH",
"451 294 OFFCURVE",
"459 292 OFFCURVE",
"465 296 CURVE SMOOTH",
"524 329 OFFCURVE",
"558 388 OFFCURVE",
"558 459 CURVE SMOOTH",
"558 571 OFFCURVE",
"474 650 OFFCURVE",
"354 650 CURVE SMOOTH",
"68 650 LINE",
"68 0 LINE"
);
},
{
closed = 1;
nodes = (
"85 99 LINE SMOOTH",
"85 113 OFFCURVE",
"95 123 OFFCURVE",
"109 123 CURVE SMOOTH",
"123 123 OFFCURVE",
"133 113 OFFCURVE",
"133 99 CURVE SMOOTH",
"133 51 LINE SMOOTH",
"133 37 OFFCURVE",
"123 27 OFFCURVE",
"109 27 CURVE SMOOTH",
"95 27 OFFCURVE",
"85 37 OFFCURVE",
"85 51 CURVE SMOOTH"
);
},
{
closed = 1;
nodes = (
"118 351 OFFCURVE",
"129 362 OFFCURVE",
"142 362 CURVE SMOOTH",
"147 362 OFFCURVE",
"150 365 OFFCURVE",
"150 370 CURVE SMOOTH",
"150 546 LINE SMOOTH",
"150 551 OFFCURVE",
"147 554 OFFCURVE",
"142 554 CURVE SMOOTH",
"129 554 OFFCURVE",
"118 565 OFFCURVE",
"118 578 CURVE SMOOTH",
"118 591 OFFCURVE",
"129 602 OFFCURVE",
"142 602 CURVE SMOOTH",
"155 602 OFFCURVE",
"166 591 OFFCURVE",
"166 578 CURVE SMOOTH",
"166 573 OFFCURVE",
"169 570 OFFCURVE",
"174 570 CURVE SMOOTH",
"358 570 LINE SMOOTH",
"426 570 OFFCURVE",
"474 521 OFFCURVE",
"474 457 CURVE SMOOTH",
"474 393 OFFCURVE",
"426 346 OFFCURVE",
"354 346 CURVE SMOOTH",
"174 346 LINE SMOOTH",
"169 346 OFFCURVE",
"166 343 OFFCURVE",
"166 338 CURVE SMOOTH",
"166 325 OFFCURVE",
"155 314 OFFCURVE",
"142 314 CURVE SMOOTH",
"129 314 OFFCURVE",
"118 325 OFFCURVE",
"118 338 CURVE SMOOTH"
);
},
{
closed = 1;
nodes = (
"278 624 OFFCURVE",
"288 634 OFFCURVE",
"302 634 CURVE SMOOTH",
"350 634 LINE SMOOTH",
"364 634 OFFCURVE",
"374 624 OFFCURVE",
"374 610 CURVE SMOOTH",
"374 596 OFFCURVE",
"364 586 OFFCURVE",
"350 586 CURVE SMOOTH",
"302 586 LINE SMOOTH",
"288 586 OFFCURVE",
"278 596 OFFCURVE",
"278 610 CURVE SMOOTH"
);
},
{
closed = 1;
nodes = (
"491 476 OFFCURVE",
"502 487 OFFCURVE",
"515 487 CURVE SMOOTH",
"528 487 OFFCURVE",
"539 476 OFFCURVE",
"539 463 CURVE SMOOTH",
"539 450 OFFCURVE",
"528 439 OFFCURVE",
"515 439 CURVE SMOOTH",
"502 439 OFFCURVE",
"491 450 OFFCURVE",
"491 463 CURVE SMOOTH"
);
},
{
closed = 1;
nodes = (
"302 331 OFFCURVE",
"312 321 OFFCURVE",
"312 307 CURVE SMOOTH",
"312 293 OFFCURVE",
"302 283 OFFCURVE",
"288 283 CURVE SMOOTH",
"274 283 OFFCURVE",
"264 293 OFFCURVE",
"264 307 CURVE SMOOTH",
"264 321 OFFCURVE",
"274 331 OFFCURVE",
"288 331 CURVE SMOOTH"
);
},
{
closed = 1;
nodes = (
"424 144 OFFCURVE",
"429 157 OFFCURVE",
"442 164 CURVE SMOOTH",
"454 170 OFFCURVE",
"468 166 OFFCURVE",
"474 153 CURVE SMOOTH",
"520 62 LINE SMOOTH",
"526 50 OFFCURVE",
"522 36 OFFCURVE",
"510 30 CURVE SMOOTH",
"498 24 OFFCURVE",
"484 28 OFFCURVE",
"478 40 CURVE SMOOTH",
"431 131 LINE SMOOTH"
);
}
);
width = 600;
}
);
leftMetricsKey = l;
unicode = 0052;
},
{
glyphname = S;
lastChange = "2019-11-14 08:34:17 +0000";
layers = (
{
background = {
hints = (
{
horizontal = 1;
place = "{-13, 86}";
type = Stem;
},
{
horizontal = 1;
place = "{658, 84}";
type = Stem;
},
{
place = "{59, 100}";
type = Stem;
},
{
place = "{503, 102}";
type = Stem;
}
);
paths = (
{
closed = 1;
nodes = (
"44 78 OFFCURVE",
"158 -12 OFFCURVE",
"308 -12 CURVE SMOOTH",
"446 -12 OFFCURVE",
"540 72 OFFCURVE",
"540 190 CURVE SMOOTH",
"540 266 OFFCURVE",
"478 338 OFFCURVE",
"386 358 CURVE SMOOTH",
"260 386 LINE SMOOTH",
"196 400 OFFCURVE",
"154 438 OFFCURVE",
"154 482 CURVE SMOOTH",
"154 544 OFFCURVE",
"208 586 OFFCURVE",
"284 586 CURVE SMOOTH",
"364 586 OFFCURVE",
"426 538 OFFCURVE",
"430 466 CURVE",
"520 490 LINE",
"508 590 OFFCURVE",
"410 662 OFFCURVE",
"288 662 CURVE SMOOTH",
"158 662 OFFCURVE",
"68 584 OFFCURVE",
"68 474 CURVE SMOOTH",
"68 394 OFFCURVE",
"136 331 OFFCURVE",
"236 308 CURVE SMOOTH",
"358 280 LINE SMOOTH",
"414 267 OFFCURVE",
"452 226 OFFCURVE",
"452 182 CURVE SMOOTH",
"452 114 OFFCURVE",
"392 68 OFFCURVE",
"310 68 CURVE SMOOTH",
"206 68 OFFCURVE",
"130 134 OFFCURVE",
"130 226 CURVE",
"36 206 LINE"
);
}
);
};
layerId = "8007C042-6FBA-4E49-99B8-8B738A4EBE86";
paths = (
{
closed = 1;
nodes = (
"44 78 OFFCURVE",
"158 -12 OFFCURVE",
"308 -12 CURVE SMOOTH",
"446 -12 OFFCURVE",
"540 70 OFFCURVE",
"540 188 CURVE SMOOTH",
"540 272 OFFCURVE",
"478 338 OFFCURVE",
"386 358 CURVE SMOOTH",
"260 386 LINE SMOOTH",
"196 400 OFFCURVE",
"154 434 OFFCURVE",
"154 486 CURVE SMOOTH",
"154 546 OFFCURVE",
"208 586 OFFCURVE",
"284 586 CURVE SMOOTH",
"364 586 OFFCURVE",
"426 538 OFFCURVE",
"430 466 CURVE",
"520 490 LINE",
"508 590 OFFCURVE",
"410 662 OFFCURVE",
"288 662 CURVE SMOOTH",
"158 662 OFFCURVE",
"68 586 OFFCURVE",
"68 478 CURVE SMOOTH",
"68 394 OFFCURVE",
"136 331 OFFCURVE",
"236 308 CURVE SMOOTH",
"358 280 LINE SMOOTH",
"414 267 OFFCURVE",
"452 226 OFFCURVE",
"452 182 CURVE SMOOTH",
"452 114 OFFCURVE",
"392 68 OFFCURVE",
"310 68 CURVE SMOOTH",
"206 68 OFFCURVE",
"130 134 OFFCURVE",
"130 226 CURVE",
"36 206 LINE"
);
}
);
width = 580;
},
{
associatedMasterId = "8007C042-6FBA-4E49-99B8-8B738A4EBE86";
background = {
paths = (
{
closed = 1;
nodes = (
"157 703 OFFCURVE",
"51 632 OFFCURVE",
"51 513 CURVE SMOOTH",
"51 407 OFFCURVE",
"159 359 OFFCURVE",
"267 316 CURVE SMOOTH",
"369 273 OFFCURVE",
"469 233 OFFCURVE",
"469 135 CURVE SMOOTH",
"469 56 OFFCURVE",
"420 0 OFFCURVE",
"311 0 CURVE SMOOTH",
"145 0 OFFCURVE",
"78 99 OFFCURVE",
"78 286 CURVE SMOOTH",
"78 301 OFFCURVE",
"67 301 OFFCURVE",
"67 286 CURVE SMOOTH",
"67 238 OFFCURVE",
"68 76 OFFCURVE",
"68 30 CURVE SMOOTH",
"68 23 OFFCURVE",
"69 23 OFFCURVE",
"78 20 CURVE",
"150 1 OFFCURVE",
"203 -10 OFFCURVE",
"311 -10 CURVE SMOOTH",
"431 -10 OFFCURVE",
"529 67 OFFCURVE",
"529 182 CURVE SMOOTH",
"529 290 OFFCURVE",
"424 336 OFFCURVE",
"320 379 CURVE SMOOTH",
"216 422 OFFCURVE",
"114 465 OFFCURVE",
"114 560 CURVE SMOOTH",
"114 636 OFFCURVE",
"162 693 OFFCURVE",
"285 693 CURVE SMOOTH",
"472 693 OFFCURVE",
"501 577 OFFCURVE",
"498 422 CURVE SMOOTH",
"498 409 OFFCURVE",
"508 409 OFFCURVE",
"508 422 CURVE SMOOTH",
"508 580 OFFCURVE",
"517 646 OFFCURVE",
"514 666 CURVE SMOOTH",
"513 674 OFFCURVE",
"510 674 OFFCURVE",
"503 677 CURVE",
"446 690 OFFCURVE",
"385 703 OFFCURVE",
"285 703 CURVE SMOOTH"
);
}
);
};
layerId = "003A5419-0E0F-4A80-B94F-D963176D047E";
name = "Oct 31 17, 19:59";
paths = (
{
closed = 1;
nodes = (
"63 72 OFFCURVE",
"170 -10 OFFCURVE",
"324 -10 CURVE SMOOTH",
"480 -10 OFFCURVE",
"594 67 OFFCURVE",
"594 198 CURVE SMOOTH",
"594 306 OFFCURVE",
"525 364 OFFCURVE",
"408 382 CURVE",
"291 400 LINE",
"196 416 OFFCURVE",
"140 446 OFFCURVE",
"140 502 CURVE SMOOTH",
"140 573 OFFCURVE",
"216 615 OFFCURVE",
"324 615 CURVE SMOOTH",
"432 615 OFFCURVE",
"489 572 OFFCURVE",
"506 499 CURVE",
"586 511 LINE",
"564 632 OFFCURVE",
"480 703 OFFCURVE",
"332 703 CURVE SMOOTH",
"159 703 OFFCURVE",
"56 628 OFFCURVE",
"56 496 CURVE SMOOTH",
"56 400 OFFCURVE",
"132 337 OFFCURVE",
"261 322 CURVE",
"388 302 LINE",
"465 288 OFFCURVE",
"510 248 OFFCURVE",
"510 194 CURVE SMOOTH",
"510 122 OFFCURVE",
"432 80 OFFCURVE",
"328 80 CURVE SMOOTH",
"220 80 OFFCURVE",
"143 135 OFFCURVE",
"120 228 CURVE",
"36 212 LINE"
);
}
);
width = 626;
},
{
associatedMasterId = "8007C042-6FBA-4E49-99B8-8B738A4EBE86";
background = {
paths = (
{
closed = 1;
nodes = (
"151 703 OFFCURVE",
"45 632 OFFCURVE",
"45 513 CURVE SMOOTH",
"45 407 OFFCURVE",
"153 359 OFFCURVE",
"261 316 CURVE SMOOTH",
"363 273 OFFCURVE",
"463 233 OFFCURVE",
"463 135 CURVE SMOOTH",
"463 56 OFFCURVE",
"414 0 OFFCURVE",
"305 0 CURVE SMOOTH",
"139 0 OFFCURVE",
"72 99 OFFCURVE",
"72 286 CURVE SMOOTH",
"72 301 OFFCURVE",
"61 301 OFFCURVE",
"61 286 CURVE SMOOTH",
"61 238 OFFCURVE",
"62 76 OFFCURVE",
"62 30 CURVE SMOOTH",
"62 23 OFFCURVE",
"63 23 OFFCURVE",
"72 20 CURVE",
"144 1 OFFCURVE",
"197 -10 OFFCURVE",
"305 -10 CURVE SMOOTH",
"425 -10 OFFCURVE",
"523 67 OFFCURVE",
"523 182 CURVE SMOOTH",
"523 290 OFFCURVE",
"418 336 OFFCURVE",
"314 379 CURVE SMOOTH",
"210 422 OFFCURVE",
"108 465 OFFCURVE",
"108 560 CURVE SMOOTH",
"108 636 OFFCURVE",
"156 693 OFFCURVE",
"279 693 CURVE SMOOTH",
"466 693 OFFCURVE",
"495 577 OFFCURVE",
"492 422 CURVE SMOOTH",
"492 409 OFFCURVE",
"502 409 OFFCURVE",
"502 422 CURVE SMOOTH",
"502 580 OFFCURVE",
"511 646 OFFCURVE",
"508 666 CURVE SMOOTH",
"507 674 OFFCURVE",
"504 674 OFFCURVE",
"497 677 CURVE",
"440 690 OFFCURVE",
"379 703 OFFCURVE",
"279 703 CURVE SMOOTH"
);
}
);
};
layerId = "0FCB554F-D020-42CC-A1C1-DA269702A05B";
name = "Nov 12 17, 23:55";
paths = (
{
closed = 1;
nodes = (
"48 71 OFFCURVE",
"157 -10 OFFCURVE",
"326 -10 CURVE SMOOTH",
"477 -10 OFFCURVE",
"590 74 OFFCURVE",
"590 198 CURVE SMOOTH",
"590 297 OFFCURVE",
"521 369 OFFCURVE",
"403 391 CURVE",
"271 415 LINE",
"194 432 OFFCURVE",
"148 470 OFFCURVE",
"148 518 CURVE SMOOTH",
"148 582 OFFCURVE",
"207 624 OFFCURVE",
"308 624 CURVE SMOOTH",
"404 624 OFFCURVE",
"468 579 OFFCURVE",
"480 504 CURVE",
"560 524 LINE",
"546 641 OFFCURVE",
"454 710 OFFCURVE",
"314 710 CURVE SMOOTH",
"157 710 OFFCURVE",
"64 636 OFFCURVE",
"64 512 CURVE SMOOTH",
"64 424 OFFCURVE",
"132 359 OFFCURVE",
"247 337 CURVE",
"387 311 LINE",
"462 293 OFFCURVE",
"506 249 OFFCURVE",
"506 192 CURVE SMOOTH",
"506 124 OFFCURVE",
"432 80 OFFCURVE",
"334 80 CURVE SMOOTH",
"211 80 OFFCURVE",
"130 135 OFFCURVE",
"116 229 CURVE",
"32 207 LINE"
);
}
);
width = 626;
},
{
background = {
paths = (
{
closed = 1;
nodes = (
"44 78 OFFCURVE",
"158 -12 OFFCURVE",
"308 -12 CURVE SMOOTH",
"446 -12 OFFCURVE",
"540 72 OFFCURVE",
"540 190 CURVE SMOOTH",
"540 266 OFFCURVE",
"478 338 OFFCURVE",
"386 358 CURVE SMOOTH",
"260 386 LINE SMOOTH",
"196 400 OFFCURVE",
"154 438 OFFCURVE",
"154 482 CURVE SMOOTH",
"154 544 OFFCURVE",
"208 586 OFFCURVE",
"284 586 CURVE SMOOTH",
"364 586 OFFCURVE",
"426 538 OFFCURVE",
"430 466 CURVE",
"520 490 LINE",
"508 590 OFFCURVE",
"410 662 OFFCURVE",
"288 662 CURVE SMOOTH",
"158 662 OFFCURVE",
"68 584 OFFCURVE",
"68 474 CURVE SMOOTH",
"68 394 OFFCURVE",
"136 331 OFFCURVE",
"236 308 CURVE SMOOTH",
"358 280 LINE SMOOTH",
"414 267 OFFCURVE",
"452 226 OFFCURVE",
"452 182 CURVE SMOOTH",
"452 114 OFFCURVE",
"392 68 OFFCURVE",
"310 68 CURVE SMOOTH",
"206 68 OFFCURVE",
"130 134 OFFCURVE",
"130 226 CURVE",
"36 206 LINE"
);
}
);
};
layerId = "516EF9F5-8A61-4DB8-B238-FB46D711CD4C";
paths = (
{
closed = 1;
nodes = (
"44 78 OFFCURVE",
"158 -12 OFFCURVE",
"308 -12 CURVE SMOOTH",
"446 -12 OFFCURVE",
"540 70 OFFCURVE",
"540 188 CURVE SMOOTH",
"540 272 OFFCURVE",
"478 338 OFFCURVE",
"386 358 CURVE SMOOTH",
"260 386 LINE SMOOTH",
"196 400 OFFCURVE",
"154 434 OFFCURVE",
"154 486 CURVE SMOOTH",
"154 546 OFFCURVE",
"208 586 OFFCURVE",
"284 586 CURVE SMOOTH",
"364 586 OFFCURVE",
"426 538 OFFCURVE",
"430 466 CURVE",
"520 490 LINE",
"508 590 OFFCURVE",
"410 662 OFFCURVE",
"288 662 CURVE SMOOTH",
"158 662 OFFCURVE",
"68 586 OFFCURVE",
"68 478 CURVE SMOOTH",
"68 394 OFFCURVE",
"136 331 OFFCURVE",
"236 308 CURVE SMOOTH",
"358 280 LINE SMOOTH",
"414 267 OFFCURVE",
"452 226 OFFCURVE",
"452 182 CURVE SMOOTH",
"452 114 OFFCURVE",
"392 68 OFFCURVE",
"310 68 CURVE SMOOTH",
"206 68 OFFCURVE",
"130 134 OFFCURVE",
"130 226 CURVE",
"36 206 LINE"
);
},
{
closed = 1;
nodes = (
"346 55 OFFCURVE",
"358 47 OFFCURVE",
"358 33 CURVE SMOOTH",
"358 21 OFFCURVE",
"350 13 OFFCURVE",
"336 10 CURVE SMOOTH",
"320 7 OFFCURVE",
"296 7 OFFCURVE",
"280 10 CURVE SMOOTH",
"266 13 OFFCURVE",
"258 21 OFFCURVE",
"258 33 CURVE SMOOTH",
"258 47 OFFCURVE",
"270 55 OFFCURVE",
"284 53 CURVE SMOOTH",
"298 51 OFFCURVE",
"318 51 OFFCURVE",
"332 53 CURVE SMOOTH"
);
},
{
closed = 1;
nodes = (
"298 603 OFFCURVE",
"278 603 OFFCURVE",
"264 601 CURVE SMOOTH",
"250 599 OFFCURVE",
"238 607 OFFCURVE",
"238 621 CURVE SMOOTH",
"238 633 OFFCURVE",
"246 641 OFFCURVE",
"260 644 CURVE SMOOTH",
"276 647 OFFCURVE",
"300 647 OFFCURVE",
"316 644 CURVE SMOOTH",
"330 641 OFFCURVE",
"338 633 OFFCURVE",
"338 621 CURVE SMOOTH",
"338 607 OFFCURVE",
"326 599 OFFCURVE",
"312 601 CURVE SMOOTH"
);
},
{
closed = 1;
nodes = (
"470 200 OFFCURVE",
"480 210 OFFCURVE",
"494 210 CURVE SMOOTH",
"508 210 OFFCURVE",
"518 200 OFFCURVE",
"518 186 CURVE SMOOTH",
"518 172 OFFCURVE",
"508 162 OFFCURVE",
"494 162 CURVE SMOOTH",
"480 162 OFFCURVE",
"470 172 OFFCURVE",
"470 186 CURVE SMOOTH"
);
},
{
closed = 1;
nodes = (
"89 500 OFFCURVE",
"99 510 OFFCURVE",
"113 510 CURVE SMOOTH",
"127 510 OFFCURVE",
"137 500 OFFCURVE",
"137 486 CURVE SMOOTH",
"137 472 OFFCURVE",
"127 462 OFFCURVE",
"113 462 CURVE SMOOTH",
"99 462 OFFCURVE",
"89 472 OFFCURVE",
"89 486 CURVE SMOOTH"
);
},
{
closed = 1;
nodes = (
"448 502 OFFCURVE",
"437 513 OFFCURVE",
"437 526 CURVE SMOOTH",
"437 539 OFFCURVE",
"448 550 OFFCURVE",
"461 550 CURVE SMOOTH",
"474 550 OFFCURVE",
"485 539 OFFCURVE",
"485 526 CURVE SMOOTH",
"485 513 OFFCURVE",
"474 502 OFFCURVE",
"461 502 CURVE SMOOTH"
);
},
{
closed = 1;
nodes = (
"123 152 OFFCURVE",
"134 141 OFFCURVE",
"134 128 CURVE SMOOTH",
"134 115 OFFCURVE",
"123 104 OFFCURVE",
"110 104 CURVE SMOOTH",
"97 104 OFFCURVE",
"86 115 OFFCURVE",
"86 128 CURVE SMOOTH",
"86 141 OFFCURVE",
"97 152 OFFCURVE",
"110 152 CURVE SMOOTH"
);
},
{
closed = 1;
nodes = (
"231 328 OFFCURVE",
"224 339 OFFCURVE",
"228 353 CURVE SMOOTH",
"231 367 OFFCURVE",
"242 374 OFFCURVE",
"256 370 CURVE SMOOTH",
"356 347 LINE SMOOTH",
"370 344 OFFCURVE",
"376 333 OFFCURVE",
"373 318 CURVE SMOOTH",
"370 305 OFFCURVE",
"359 298 OFFCURVE",
"345 301 CURVE SMOOTH",
"245 324 LINE SMOOTH"
);
}
);
width = 580;
},
{
associatedMasterId = "8007C042-6FBA-4E49-99B8-8B738A4EBE86";
background = {
paths = (
{
closed = 1;
nodes = (
"44 78 OFFCURVE",
"158 -12 OFFCURVE",
"308 -12 CURVE SMOOTH",
"446 -12 OFFCURVE",
"540 72 OFFCURVE",
"540 190 CURVE SMOOTH",
"540 266 OFFCURVE",
"478 338 OFFCURVE",
"386 358 CURVE SMOOTH",
"260 386 LINE SMOOTH",
"196 400 OFFCURVE",
"154 438 OFFCURVE",
"154 482 CURVE SMOOTH",
"154 544 OFFCURVE",
"208 586 OFFCURVE",
"284 586 CURVE SMOOTH",
"364 586 OFFCURVE",
"426 538 OFFCURVE",
"430 466 CURVE",
"520 490 LINE",
"508 590 OFFCURVE",
"410 662 OFFCURVE",
"288 662 CURVE SMOOTH",
"158 662 OFFCURVE",
"68 584 OFFCURVE",
"68 474 CURVE SMOOTH",
"68 394 OFFCURVE",
"136 331 OFFCURVE",
"236 308 CURVE SMOOTH",
"358 280 LINE SMOOTH",
"414 267 OFFCURVE",
"452 226 OFFCURVE",
"452 182 CURVE SMOOTH",
"452 114 OFFCURVE",
"392 68 OFFCURVE",
"310 68 CURVE SMOOTH",
"206 68 OFFCURVE",
"130 134 OFFCURVE",
"130 226 CURVE",
"36 206 LINE"
);
}
);
};
layerId = "03A34EE1-3B39-4683-BE2F-A7E17FC9D474";
name = "Nov 1 19, 10:16";
paths = (
{
closed = 1;
nodes = (
"44 78 OFFCURVE",
"158 -12 OFFCURVE",
"308 -12 CURVE SMOOTH",
"446 -12 OFFCURVE",
"540 72 OFFCURVE",
"540 190 CURVE SMOOTH",
"540 266 OFFCURVE",
"478 338 OFFCURVE",
"386 358 CURVE SMOOTH",
"260 386 LINE SMOOTH",
"196 400 OFFCURVE",
"154 438 OFFCURVE",
"154 482 CURVE SMOOTH",
"154 544 OFFCURVE",
"208 586 OFFCURVE",
"284 586 CURVE SMOOTH",
"364 586 OFFCURVE",
"426 538 OFFCURVE",
"430 466 CURVE",
"520 490 LINE",
"508 590 OFFCURVE",
"410 662 OFFCURVE",
"288 662 CURVE SMOOTH",
"158 662 OFFCURVE",
"68 584 OFFCURVE",
"68 474 CURVE SMOOTH",
"68 394 OFFCURVE",
"136 331 OFFCURVE",
"236 308 CURVE SMOOTH",
"358 280 LINE SMOOTH",
"414 267 OFFCURVE",
"452 226 OFFCURVE",
"452 182 CURVE SMOOTH",
"452 114 OFFCURVE",
"392 68 OFFCURVE",
"310 68 CURVE SMOOTH",
"206 68 OFFCURVE",
"130 134 OFFCURVE",
"130 226 CURVE",
"36 206 LINE"
);
}
);
width = 580;
}
);
note = "Stretta?";
unicode = 0053;
},
{
glyphname = T;
lastChange = "2019-11-01 10:54:07 +0000";
layers = (
{
background = {
hints = (
{
horizontal = 1;
place = "{0, 21}";
target = up;
type = BottomGhost;
},
{
horizontal = 1;
place = "{636, 86}";
type = Stem;
},
{
place = "{276, 96}";
type = Stem;
}
);
paths = (
{
closed = 1;
nodes = (
"258 0 LINE",
"340 0 LINE",
"340 650 LINE",
"258 650 LINE"
);
},
{
closed = 1;
nodes = (
"20 570 LINE",
"576 570 LINE",
"576 650 LINE",
"20 650 LINE"
);
}
);
};
layerId = "8007C042-6FBA-4E49-99B8-8B738A4EBE86";
paths = (
{
closed = 1;
nodes = (
"258 0 LINE",
"340 0 LINE",
"340 650 LINE",
"258 650 LINE"
);
},
{
closed = 1;
nodes = (
"20 570 LINE",
"576 570 LINE",
"576 650 LINE",
"20 650 LINE"
);
}
);
width = 596;
},
{
background = {
paths = (
{
closed = 1;
nodes = (
"258 0 LINE",
"340 0 LINE",
"340 650 LINE",
"258 650 LINE"
);
},
{
closed = 1;
nodes = (
"20 570 LINE",
"576 570 LINE",
"576 650 LINE",
"20 650 LINE"
);
}
);
};
layerId = "516EF9F5-8A61-4DB8-B238-FB46D711CD4C";
paths = (
{
closed = 1;
nodes = (
"234 570 LINE",
"239 570 OFFCURVE",
"242 573 OFFCURVE",
"242 578 CURVE SMOOTH",
"242 591 OFFCURVE",
"253 602 OFFCURVE",
"266 602 CURVE SMOOTH",
"279 602 OFFCURVE",
"290 591 OFFCURVE",
"290 578 CURVE SMOOTH",
"290 565 OFFCURVE",
"279 554 OFFCURVE",
"266 554 CURVE SMOOTH",
"261 554 OFFCURVE",
"258 551 OFFCURVE",
"258 546 CURVE",
"258 0 LINE",
"340 0 LINE",
"340 546 LINE",
"340 551 OFFCURVE",
"337 554 OFFCURVE",
"332 554 CURVE SMOOTH",
"319 554 OFFCURVE",
"308 565 OFFCURVE",
"308 578 CURVE SMOOTH",
"308 591 OFFCURVE",
"319 602 OFFCURVE",
"332 602 CURVE SMOOTH",
"345 602 OFFCURVE",
"356 591 OFFCURVE",
"356 578 CURVE SMOOTH",
"356 573 OFFCURVE",
"359 570 OFFCURVE",
"364 570 CURVE",
"576 570 LINE",
"576 650 LINE",
"20 650 LINE",
"20 570 LINE"
);
},
{
closed = 1;
nodes = (
"275 320 OFFCURVE",
"285 330 OFFCURVE",
"299 330 CURVE SMOOTH",
"313 330 OFFCURVE",
"323 320 OFFCURVE",
"323 306 CURVE SMOOTH",
"323 204 LINE SMOOTH",
"323 190 OFFCURVE",
"313 180 OFFCURVE",
"299 180 CURVE SMOOTH",
"285 180 OFFCURVE",
"275 190 OFFCURVE",
"275 204 CURVE SMOOTH",
"275 306 LINE SMOOTH"
);
},
{
closed = 1;
nodes = (
"286 27 OFFCURVE",
"275 38 OFFCURVE",
"275 51 CURVE SMOOTH",
"275 64 OFFCURVE",
"286 75 OFFCURVE",
"299 75 CURVE SMOOTH",
"312 75 OFFCURVE",
"323 64 OFFCURVE",
"323 51 CURVE SMOOTH",
"323 38 OFFCURVE",
"312 27 OFFCURVE",
"299 27 CURVE SMOOTH"
);
},
{
closed = 1;
nodes = (
"133 634 OFFCURVE",
"143 624 OFFCURVE",
"143 610 CURVE SMOOTH",
"143 596 OFFCURVE",
"133 586 OFFCURVE",
"119 586 CURVE SMOOTH",
"71 586 LINE SMOOTH",
"57 586 OFFCURVE",
"47 596 OFFCURVE",
"47 610 CURVE SMOOTH",
"47 624 OFFCURVE",
"57 634 OFFCURVE",
"71 634 CURVE SMOOTH",
"119 634 LINE SMOOTH"
);
},
{
closed = 1;
nodes = (
"539 634 OFFCURVE",
"549 624 OFFCURVE",
"549 610 CURVE SMOOTH",
"549 596 OFFCURVE",
"539 586 OFFCURVE",
"525 586 CURVE SMOOTH",
"477 586 LINE SMOOTH",
"463 586 OFFCURVE",
"453 596 OFFCURVE",
"453 610 CURVE SMOOTH",
"453 624 OFFCURVE",
"463 634 OFFCURVE",
"477 634 CURVE SMOOTH",
"525 634 LINE SMOOTH"
);
}
);
width = 596;
}
);
unicode = 0054;
},
{
glyphname = U;
lastChange = "2019-11-02 16:15:32 +0000";
layers = (
{
background = {
hints = (
{
horizontal = 1;
place = "{-13, 88}";
type = Stem;
},
{
horizontal = 1;
place = "{722, -20}";
target = down;
type = TopGhost;
},
{
place = "{71, 96}";
type = Stem;
},
{
place = "{565, 95}";
type = Stem;
}
);
paths = (
{
closed = 1;
nodes = (
"56 102 OFFCURVE",
"166 -10 OFFCURVE",
"318 -10 CURVE SMOOTH",
"470 -10 OFFCURVE",
"580 104 OFFCURVE",
"580 260 CURVE SMOOTH",
"580 650 LINE",
"498 650 LINE",
"498 264 LINE SMOOTH",
"498 152 OFFCURVE",
"422 72 OFFCURVE",
"318 72 CURVE SMOOTH",
"214 72 OFFCURVE",
"138 152 OFFCURVE",
"138 264 CURVE SMOOTH",
"138 650 LINE",
"56 650 LINE",
"56 258 LINE SMOOTH"
);
}
);
};
layerId = "8007C042-6FBA-4E49-99B8-8B738A4EBE86";
paths = (
{
closed = 1;
nodes = (
"56 102 OFFCURVE",
"166 -12 OFFCURVE",
"318 -12 CURVE SMOOTH",
"470 -12 OFFCURVE",
"580 104 OFFCURVE",
"580 260 CURVE SMOOTH",
"580 650 LINE",
"498 650 LINE",
"498 264 LINE SMOOTH",
"498 152 OFFCURVE",
"422 72 OFFCURVE",
"318 72 CURVE SMOOTH",
"214 72 OFFCURVE",
"138 152 OFFCURVE",
"138 264 CURVE SMOOTH",
"138 650 LINE",
"56 650 LINE",
"56 258 LINE SMOOTH"
);
}
);
width = 636;
},
{
background = {
paths = (
{
closed = 1;
nodes = (
"56 102 OFFCURVE",
"166 -10 OFFCURVE",
"318 -10 CURVE SMOOTH",
"470 -10 OFFCURVE",
"580 104 OFFCURVE",
"580 260 CURVE SMOOTH",
"580 650 LINE",
"498 650 LINE",
"498 264 LINE SMOOTH",
"498 152 OFFCURVE",
"422 72 OFFCURVE",
"318 72 CURVE SMOOTH",
"214 72 OFFCURVE",
"138 152 OFFCURVE",
"138 264 CURVE SMOOTH",
"138 650 LINE",
"56 650 LINE",
"56 258 LINE SMOOTH"
);
}
);
};
layerId = "516EF9F5-8A61-4DB8-B238-FB46D711CD4C";
paths = (
{
closed = 1;
nodes = (
"56 102 OFFCURVE",
"166 -12 OFFCURVE",
"318 -12 CURVE SMOOTH",
"470 -12 OFFCURVE",
"580 104 OFFCURVE",
"580 260 CURVE SMOOTH",
"580 650 LINE",
"498 650 LINE",
"498 264 LINE SMOOTH",
"498 152 OFFCURVE",
"422 72 OFFCURVE",
"318 72 CURVE SMOOTH",
"214 72 OFFCURVE",
"138 152 OFFCURVE",
"138 264 CURVE SMOOTH",
"138 650 LINE",
"56 650 LINE",
"56 258 LINE SMOOTH"
);
},
{
closed = 1;
nodes = (
"356 55 OFFCURVE",
"368 47 OFFCURVE",
"368 33 CURVE SMOOTH",
"368 21 OFFCURVE",
"360 13 OFFCURVE",
"346 10 CURVE SMOOTH",
"330 7 OFFCURVE",
"306 7 OFFCURVE",
"290 10 CURVE SMOOTH",
"276 13 OFFCURVE",
"268 21 OFFCURVE",
"268 33 CURVE SMOOTH",
"268 47 OFFCURVE",
"280 55 OFFCURVE",
"294 53 CURVE SMOOTH",
"308 51 OFFCURVE",
"328 51 OFFCURVE",
"342 53 CURVE SMOOTH"
);
},
{
closed = 1;
nodes = (
"134 114 OFFCURVE",
"144 124 OFFCURVE",
"158 124 CURVE SMOOTH",
"172 124 OFFCURVE",
"182 114 OFFCURVE",
"182 100 CURVE SMOOTH",
"182 86 OFFCURVE",
"172 76 OFFCURVE",
"158 76 CURVE SMOOTH",
"144 76 OFFCURVE",
"134 86 OFFCURVE",
"134 100 CURVE SMOOTH"
);
},
{
closed = 1;
nodes = (
"454 114 OFFCURVE",
"464 124 OFFCURVE",
"478 124 CURVE SMOOTH",
"492 124 OFFCURVE",
"502 114 OFFCURVE",
"502 100 CURVE SMOOTH",
"502 86 OFFCURVE",
"492 76 OFFCURVE",
"478 76 CURVE SMOOTH",
"464 76 OFFCURVE",
"454 86 OFFCURVE",
"454 100 CURVE SMOOTH"
);
},
{
closed = 1;
nodes = (
"73 320 OFFCURVE",
"83 330 OFFCURVE",
"97 330 CURVE SMOOTH",
"111 330 OFFCURVE",
"121 320 OFFCURVE",
"121 306 CURVE SMOOTH",
"121 258 LINE SMOOTH",
"121 244 OFFCURVE",
"111 234 OFFCURVE",
"97 234 CURVE SMOOTH",
"83 234 OFFCURVE",
"73 244 OFFCURVE",
"73 258 CURVE SMOOTH",
"73 306 LINE SMOOTH"
);
},
{
closed = 1;
nodes = (
"515 320 OFFCURVE",
"525 330 OFFCURVE",
"539 330 CURVE SMOOTH",
"553 330 OFFCURVE",
"563 320 OFFCURVE",
"563 306 CURVE SMOOTH",
"563 258 LINE SMOOTH",
"563 244 OFFCURVE",
"553 234 OFFCURVE",
"539 234 CURVE SMOOTH",
"525 234 OFFCURVE",
"515 244 OFFCURVE",
"515 258 CURVE SMOOTH",
"515 306 LINE SMOOTH"
);
},
{
closed = 1;
nodes = (
"73 613 OFFCURVE",
"83 623 OFFCURVE",
"97 623 CURVE SMOOTH",
"111 623 OFFCURVE",
"121 613 OFFCURVE",
"121 599 CURVE SMOOTH",
"121 497 LINE SMOOTH",
"121 483 OFFCURVE",
"111 473 OFFCURVE",
"97 473 CURVE SMOOTH",
"83 473 OFFCURVE",
"73 483 OFFCURVE",
"73 497 CURVE SMOOTH",
"73 599 LINE SMOOTH"
);
},
{
closed = 1;
nodes = (
"515 613 OFFCURVE",
"525 623 OFFCURVE",
"539 623 CURVE SMOOTH",
"553 623 OFFCURVE",
"563 613 OFFCURVE",
"563 599 CURVE SMOOTH",
"563 497 LINE SMOOTH",
"563 483 OFFCURVE",
"553 473 OFFCURVE",
"539 473 CURVE SMOOTH",
"525 473 OFFCURVE",
"515 483 OFFCURVE",
"515 497 CURVE SMOOTH",
"515 599 LINE SMOOTH"
);
}
);
width = 636;
}
);
unicode = 0055;
},
{
glyphname = V;
lastChange = "2019-11-03 18:05:03 +0000";
layers = (
{
background = {
hints = (
{
horizontal = 1;
place = "{0, 21}";
target = up;
type = BottomGhost;
},
{
horizontal = 1;
place = "{722, -20}";
target = down;
type = TopGhost;
},
{
place = "{5, 688}";
type = Stem;
},
{
horizontal = 1;
place = "{0, 114}";
type = Stem;
}
);
paths = (
{
closed = 1;
nodes = (
"253 0 LINE",
"345 0 LINE",
"586 650 LINE",
"494 650 LINE",
"301 100 LINE",
"106 650 LINE",
"12 650 LINE"
);
}
);
};
layerId = "8007C042-6FBA-4E49-99B8-8B738A4EBE86";
paths = (
{
closed = 1;
nodes = (
"253 0 LINE",
"345 0 LINE",
"586 650 LINE",
"494 650 LINE",
"301 100 LINE",
"106 650 LINE",
"12 650 LINE"
);
}
);
width = 598;
},
{
associatedMasterId = "8007C042-6FBA-4E49-99B8-8B738A4EBE86";
background = {
paths = (
{
closed = 1;
nodes = (
"386 0 LINE",
"681 722 LINE",
"577 722 LINE",
"454 420 LINE SMOOTH",
"410 308 OFFCURVE",
"361 173 OFFCURVE",
"340 114 CURVE",
"339 114 LINE",
"317 173 OFFCURVE",
"267 309 OFFCURVE",
"222 420 CURVE SMOOTH",
"98 722 LINE",
"-7 722 LINE",
"288 0 LINE"
);
}
);
};
layerId = "57B88EFD-678B-47B8-980E-4CDFF332BD59";
name = "Feb 23 19, 22:00";
paths = (
{
closed = 1;
nodes = (
"274 0 LINE",
"358 0 LINE",
"624 650 LINE",
"527 650 LINE",
"413 356 LINE SMOOTH",
"385 287 OFFCURVE",
"345 178 OFFCURVE",
"318 104 CURVE",
"289 181 OFFCURVE",
"247 290 OFFCURVE",
"220 356 CURVE SMOOTH",
"102 650 LINE",
"4 650 LINE"
);
}
);
width = 628;
},
{
background = {
paths = (
{
closed = 1;
nodes = (
"253 0 LINE",
"345 0 LINE",
"586 650 LINE",
"494 650 LINE",
"301 100 LINE",
"106 650 LINE",
"12 650 LINE"
);
}
);
};
layerId = "516EF9F5-8A61-4DB8-B238-FB46D711CD4C";
paths = (
{
closed = 1;
nodes = (
"315 141 OFFCURVE",
"315 128 OFFCURVE",
"322 113 CURVE SMOOTH",
"324 109 OFFCURVE",
"325 105 OFFCURVE",
"325 101 CURVE SMOOTH",
"325 88 OFFCURVE",
"314 77 OFFCURVE",
"301 77 CURVE SMOOTH",
"288 77 OFFCURVE",
"277 88 OFFCURVE",
"277 101 CURVE SMOOTH",
"277 105 OFFCURVE",
"278 109 OFFCURVE",
"280 113 CURVE SMOOTH",
"287 128 OFFCURVE",
"287 141 OFFCURVE",
"280 159 CURVE SMOOTH",
"106 650 LINE",
"12 650 LINE",
"253 0 LINE",
"345 0 LINE",
"586 650 LINE",
"494 650 LINE",
"322 159 LINE SMOOTH"
);
},
{
closed = 1;
nodes = (
"546 585 OFFCURVE",
"536 575 OFFCURVE",
"522 575 CURVE SMOOTH",
"508 575 OFFCURVE",
"498 585 OFFCURVE",
"498 599 CURVE SMOOTH",
"498 613 OFFCURVE",
"508 623 OFFCURVE",
"522 623 CURVE SMOOTH",
"536 623 OFFCURVE",
"546 613 OFFCURVE",
"546 599 CURVE SMOOTH"
);
},
{
closed = 1;
nodes = (
"101 585 OFFCURVE",
"91 575 OFFCURVE",
"77 575 CURVE SMOOTH",
"63 575 OFFCURVE",
"53 585 OFFCURVE",
"53 599 CURVE SMOOTH",
"53 613 OFFCURVE",
"63 623 OFFCURVE",
"77 623 CURVE SMOOTH",
"91 623 OFFCURVE",
"101 613 OFFCURVE",
"101 599 CURVE SMOOTH"
);
},
{
closed = 1;
nodes = (
"225 244 OFFCURVE",
"215 234 OFFCURVE",
"201 234 CURVE SMOOTH",
"187 234 OFFCURVE",
"177 244 OFFCURVE",
"177 258 CURVE SMOOTH",
"177 272 OFFCURVE",
"187 282 OFFCURVE",
"201 282 CURVE SMOOTH",
"215 282 OFFCURVE",
"225 272 OFFCURVE",
"225 258 CURVE SMOOTH"
);
},
{
closed = 1;
nodes = (
"422 244 OFFCURVE",
"412 234 OFFCURVE",
"398 234 CURVE SMOOTH",
"384 234 OFFCURVE",
"374 244 OFFCURVE",
"374 258 CURVE SMOOTH",
"374 272 OFFCURVE",
"384 282 OFFCURVE",
"398 282 CURVE SMOOTH",
"412 282 OFFCURVE",
"422 272 OFFCURVE",
"422 258 CURVE SMOOTH"
);
},
{
closed = 1;
nodes = (
"436 430 OFFCURVE",
"449 436 OFFCURVE",
"462 431 CURVE SMOOTH",
"475 426 OFFCURVE",
"481 414 OFFCURVE",
"477 401 CURVE SMOOTH",
"461 355 LINE SMOOTH",
"456 342 OFFCURVE",
"443 336 OFFCURVE",
"430 341 CURVE SMOOTH",
"417 346 OFFCURVE",
"411 358 OFFCURVE",
"415 371 CURVE SMOOTH",
"431 417 LINE SMOOTH"
);
},
{
closed = 1;
nodes = (
"186 371 LINE SMOOTH",
"190 358 OFFCURVE",
"184 346 OFFCURVE",
"171 341 CURVE SMOOTH",
"158 336 OFFCURVE",
"145 342 OFFCURVE",
"140 355 CURVE SMOOTH",
"124 401 LINE SMOOTH",
"120 414 OFFCURVE",
"126 426 OFFCURVE",
"139 431 CURVE SMOOTH",
"152 436 OFFCURVE",
"165 430 OFFCURVE",
"170 417 CURVE SMOOTH"
);
}
);
width = 598;
},
{
associatedMasterId = "516EF9F5-8A61-4DB8-B238-FB46D711CD4C";
background = {
paths = (
{
closed = 1;
nodes = (
"386 0 LINE",
"681 722 LINE",
"577 722 LINE",
"454 420 LINE SMOOTH",
"410 308 OFFCURVE",
"361 173 OFFCURVE",
"340 114 CURVE",
"339 114 LINE",
"317 173 OFFCURVE",
"267 309 OFFCURVE",
"222 420 CURVE SMOOTH",
"98 722 LINE",
"-7 722 LINE",
"288 0 LINE"
);
}
);
};
layerId = "E9B6B528-65B5-44F9-8B7F-8DBF449BF1EE";
name = "Feb 23 19, 22:00";
paths = (
{
closed = 1;
nodes = (
"274 0 LINE",
"358 0 LINE",
"624 650 LINE",
"527 650 LINE",
"413 356 LINE SMOOTH",
"385 287 OFFCURVE",
"345 178 OFFCURVE",
"318 104 CURVE",
"289 181 OFFCURVE",
"247 290 OFFCURVE",
"220 356 CURVE SMOOTH",
"102 650 LINE",
"4 650 LINE"
);
}
);
width = 628;
}
);
leftKerningGroup = V;
rightKerningGroup = V;
unicode = 0056;
},
